<?xml version="1.0" standalone="no"?>
<!DOCTYPE svg PUBLIC "-//W3C//DTD SVG 1.1//EN" "http://www.w3.org/Graphics/SVG/1.1/DTD/svg11.dtd" >
<svg>
<metadata>
Created by FontForge 20120731 at Wed Aug 21 22:04:16 2019
 By www
Copyright (c) 2015 by Reto Moser. All rights reserved.
</metadata>
<defs>
<font id="GTEestiProText-Medium" horiz-adv-x="600" >
  <font-face 
    font-family="GT Eesti Pro Text Medium"
    font-weight="500"
    font-stretch="normal"
    units-per-em="1000"
    panose-1="0 0 6 0 0 0 0 0 0 0"
    ascent="750"
    descent="-250"
    x-height="462"
    cap-height="700"
    bbox="-427 -252 1128 894"
    underline-thickness="50"
    underline-position="-50"
    unicode-range="U+0020-FB02"
  />
<missing-glyph horiz-adv-x="770" 
d="M385 -15q-158 0 -261.5 103.5t-103.5 261.5q0 159 103.5 262t261.5 103q159 0 262 -103t103 -262q0 -158 -103 -261.5t-262 -103.5zM385 10q148 0 245 98t97 247l-51 65l-70 -30l-68 90l-79 -44l-74 118l-74 -118l-79 44l-68 -90l-70 30l-51 -65q0 -149 97 -247t245 -98z
M282 318q-15 0 -25 10t-10 25t10 25t25 10t25 -10t10 -25t-10 -25t-25 -10zM487 318q-15 0 -25 10t-10 25t10 25t25 10t25 -10t10 -25t-10 -25t-25 -10zM343 255l36 101q2 9 11 5q9 -2 5 -11l-28 -78h34q9 0 9 -9q0 -8 -9 -8h-58zM188 171q-30 0 -49.5 19.5t-19.5 49.5
t19.5 49.5t49.5 19.5t49.5 -19.5t19.5 -49.5t-19.5 -49.5t-49.5 -19.5zM581 171q-30 0 -49.5 19.5t-19.5 49.5t19.5 49.5t49.5 19.5t49.5 -19.5t19.5 -49.5t-19.5 -49.5t-49.5 -19.5zM385 193q-46 0 -62 -30q-3 -6 -9 -6q-8 0 -8 9q0 17 24.5 31t54.5 14t54.5 -14t24.5 -31
q0 -9 -8 -9q-6 0 -9 6q-16 30 -62 30z" />
    <glyph glyph-name="fi" unicode="fi" horiz-adv-x="581" 
d="M322 709v-113h-9q-47 0 -68.5 -19t-21.5 -66v-21q-2 -27 -5 -34l2 -2q10 8 43 8h59v-109h-59q-33 0 -43 7l-2 -2q5 -15 5 -56v-302h-123v302q0 41 5 56l-2 2q-10 -7 -43 -7h-41v109h41q33 0 43 -8l2 2q-3 6 -5 33v17q0 106 54.5 154.5t146.5 48.5h21zM529 700v-149h-135
v149h135zM522 462v-462h-122v462h122z" />
    <glyph glyph-name="fl" unicode="fl" horiz-adv-x="581" 
d="M522 715v-715h-122v715h122zM322 709v-113h-9q-47 0 -68.5 -19t-21.5 -66v-21q-2 -27 -5 -34l2 -2q10 8 43 8h59v-109h-59q-33 0 -43 7l-2 -2q5 -15 5 -56v-302h-123v302q0 41 5 56l-2 2q-10 -7 -43 -7h-41v109h41q33 0 43 -8l2 2q-3 6 -5 33v17q0 106 54.5 154.5
t146.5 48.5h21z" />
    <glyph glyph-name="f_f" unicode="ff" horiz-adv-x="682" 
d="M322 709v-113h-9q-47 0 -68.5 -19t-21.5 -66v-21q-2 -27 -5 -34l2 -2q10 8 43 8h59v-109h-59q-33 0 -43 7l-2 -2q5 -15 5 -56v-302h-123v302q0 41 5 56l-2 2q-10 -7 -43 -7h-41v109h41q33 0 43 -8l2 2q-3 6 -5 33v17q0 106 54.5 154.5t146.5 48.5h21zM663 709v-113h-9
q-47 0 -68.5 -19t-21.5 -66v-21q-2 -27 -5 -34l2 -2q10 8 43 8h59v-109h-59q-32 0 -43 7l-2 -2q5 -15 5 -56v-302h-123v302q0 41 5 56l-2 2q-10 -7 -43 -7h-41v109h41q33 0 43 -8l2 2q-3 6 -5 33v17q0 106 54.5 154.5t146.5 48.5h21z" />
    <glyph glyph-name="f_f_i" unicode="ffi" horiz-adv-x="922" 
d="M322 709v-113h-9q-47 0 -68.5 -19t-21.5 -66v-21q-2 -27 -5 -34l2 -2q10 8 43 8h59v-109h-59q-33 0 -43 7l-2 -2q5 -15 5 -56v-302h-123v302q0 41 5 56l-2 2q-10 -7 -43 -7h-41v109h41q33 0 43 -8l2 2q-3 6 -5 33v17q0 106 54.5 154.5t146.5 48.5h21zM663 709v-113h-9
q-47 0 -68.5 -19t-21.5 -66v-21q-2 -27 -5 -34l2 -2q10 8 43 8h59v-109h-59q-32 0 -43 7l-2 -2q5 -15 5 -56v-302h-123v302q0 41 5 56l-2 2q-10 -7 -43 -7h-41v109h41q33 0 43 -8l2 2q-3 6 -5 33v17q0 106 54.5 154.5t146.5 48.5h21zM870 700v-149h-135v149h135zM863 462
v-462h-122v462h122z" />
    <glyph glyph-name="f_f_l" unicode="ffl" horiz-adv-x="922" 
d="M863 715v-715h-122v715h122zM322 709v-113h-9q-47 0 -68.5 -19t-21.5 -66v-21q-2 -27 -5 -34l2 -2q10 8 43 8h59v-109h-59q-33 0 -43 7l-2 -2q5 -15 5 -56v-302h-123v302q0 41 5 56l-2 2q-10 -7 -43 -7h-41v109h41q33 0 43 -8l2 2q-3 6 -5 33v17q0 106 54.5 154.5
t146.5 48.5h21zM663 709v-113h-9q-47 0 -68.5 -19t-21.5 -66v-21q-2 -27 -5 -34l2 -2q10 8 43 8h59v-109h-59q-32 0 -43 7l-2 -2q5 -15 5 -56v-302h-123v302q0 41 5 56l-2 2q-10 -7 -43 -7h-41v109h41q33 0 43 -8l2 2q-3 6 -5 33v17q0 106 54.5 154.5t146.5 48.5h21z" />
    <glyph glyph-name=".notdef" horiz-adv-x="770" 
d="M385 -15q-158 0 -261.5 103.5t-103.5 261.5q0 159 103.5 262t261.5 103q159 0 262 -103t103 -262q0 -158 -103 -261.5t-262 -103.5zM385 10q148 0 245 98t97 247l-51 65l-70 -30l-68 90l-79 -44l-74 118l-74 -118l-79 44l-68 -90l-70 30l-51 -65q0 -149 97 -247t245 -98z
M282 318q-15 0 -25 10t-10 25t10 25t25 10t25 -10t10 -25t-10 -25t-25 -10zM487 318q-15 0 -25 10t-10 25t10 25t25 10t25 -10t10 -25t-10 -25t-25 -10zM343 255l36 101q2 9 11 5q9 -2 5 -11l-28 -78h34q9 0 9 -9q0 -8 -9 -8h-58zM188 171q-30 0 -49.5 19.5t-19.5 49.5
t19.5 49.5t49.5 19.5t49.5 -19.5t19.5 -49.5t-19.5 -49.5t-49.5 -19.5zM581 171q-30 0 -49.5 19.5t-19.5 49.5t19.5 49.5t49.5 19.5t49.5 -19.5t19.5 -49.5t-19.5 -49.5t-49.5 -19.5zM385 193q-46 0 -62 -30q-3 -6 -9 -6q-8 0 -8 9q0 17 24.5 31t54.5 14t54.5 -14t24.5 -31
q0 -9 -8 -9q-6 0 -9 6q-16 30 -62 30z" />
    <glyph glyph-name=".null" horiz-adv-x="0" 
 />
    <glyph glyph-name="nonmarkingreturn" horiz-adv-x="333" 
 />
    <glyph glyph-name="space" unicode=" " horiz-adv-x="283" 
 />
    <glyph glyph-name="exclam" unicode="!" horiz-adv-x="335" 
d="M124 220l-34 480h155l-34 -480h-87zM98 0v149h139v-149h-139z" />
    <glyph glyph-name="quotedbl" unicode="&#x22;" horiz-adv-x="319" 
d="M69 462l-23 253h98l-23 -253h-52zM199 462l-23 253h98l-23 -253h-52z" />
    <glyph glyph-name="numbersign" unicode="#" horiz-adv-x="628" 
d="M583 449h-121l-31 -175h114v-57h-125l-39 -217h-62l39 217h-138l-39 -217h-62l39 217h-112v57h123l31 175h-116v57h127l35 194h62l-35 -194h138l35 194h62l-35 -194h110v-57zM369 274l31 175h-138l-31 -175h138z" />
    <glyph glyph-name="dollar" unicode="$" horiz-adv-x="523" 
d="M270 -82v38q0 23 4 35l-1 1q-12 -7 -32 -6q-123 6 -216 66l55 107q90 -47 164 -56q22 -2 29 -9l1 1q-4 12 -4 38v151l-87 59q-112 73 -112 177q0 69 46.5 114.5t123.5 53.5q25 2 31 -5l2 1q-4 15 -4 33v40h30v-40q0 -17 -3 -33l2 -1q6 6 26 5q64 -3 153 -43l-50 -108
q-59 24 -102 32q-20 4 -27 11l-2 -2q3 -12 3 -31v-133l70 -46q71 -46 100 -89t29 -102q0 -79 -45.5 -128t-128.5 -60q-17 -2 -28 5l-1 -1q4 -13 4 -36v-39h-30zM273 426l1 1q-4 19 -4 37v84q0 20 4 32l-1 1q-3 -3 -7.5 -4.5t-10.5 -3t-8 -1.5q-53 -11 -53 -52
q0 -20 13 -36.5t48 -39.5q12 -8 18 -18zM297 96q7 7 24 12q54 16 54 60q0 42 -50 78q-22 18 -27 26h-1q3 -11 3 -36v-103q0 -21 -4 -36z" />
    <glyph glyph-name="percent" unicode="%" horiz-adv-x="781" 
d="M215 365q-72 0 -118.5 45.5t-46.5 117.5t46.5 117t118.5 45q71 0 118 -45t47 -117t-47 -117.5t-118 -45.5zM155 0l395 675h64l-395 -675h-64zM215 424q46 0 74.5 29t28.5 75q0 45 -28.5 74t-74.5 29q-45 0 -74.5 -29t-29.5 -74q0 -46 29.5 -75t74.5 -29zM566 -5
q-72 0 -118.5 45t-46.5 117t46.5 117.5t118.5 45.5q71 0 118 -45.5t47 -117.5t-47 -117t-118 -45zM566 54q46 0 74.5 29t28.5 74q0 46 -28.5 75t-74.5 29q-45 0 -74.5 -29t-29.5 -75q0 -45 29.5 -74t74.5 -29z" />
    <glyph glyph-name="ampersand" unicode="&#x26;" horiz-adv-x="688" 
d="M439 675l67 -106l-1 -3h-197q-28 0 -37 8l-4 -2l239 -337h2q-3 16 11 36q24 38 55 96l106 -54q-52 -103 -82 -143q-12 -18 -29 -19v-2l105 -146l-1 -3h-146l-41 60h-3q-13 -30 -66.5 -52.5t-120.5 -22.5q-112 0 -183 64.5t-71 168.5q0 154 136 214q19 7 33 6l1 2
l-166 231l2 4h391zM273 356h-2q-2 -10 -19 -18q-82 -38 -82 -116q0 -52 34 -84.5t90 -32.5q41 0 97 29q19 8 31 6l1 3z" />
    <glyph glyph-name="quotesingle" unicode="'" horiz-adv-x="199" 
d="M69 462l-23 253h108l-23 -253h-62z" />
    <glyph glyph-name="parenleft" unicode="(" horiz-adv-x="308" 
d="M204 -215q-81 108 -124.5 238t-43.5 264q0 258 168 490l88 -57q-147 -207 -147 -433q0 -244 147 -442z" />
    <glyph glyph-name="parenright" unicode=")" horiz-adv-x="308" 
d="M115 -215l-88 60q147 198 147 442q0 226 -147 433l88 57q168 -232 168 -490q0 -134 -43.5 -264t-124.5 -238z" />
    <glyph glyph-name="asterisk" unicode="*" horiz-adv-x="415" 
d="M140 370l-73 53l88 99l-129 29l28 85l121 -53l-13 132h90l-12 -132l121 53l28 -85l-130 -29l88 -99l-72 -53l-68 114z" />
    <glyph glyph-name="plus" unicode="+" 
d="M329 541v-216h215v-54h-215v-216h-58v216h-215v54h215v216h58z" />
    <glyph glyph-name="comma" unicode="," horiz-adv-x="259" 
d="M38 -167l33 289h137l-101 -289h-69z" />
    <glyph glyph-name="hyphen" unicode="-" horiz-adv-x="379" 
d="M338 324v-114h-297v114h297z" />
    <glyph glyph-name="period" unicode="." horiz-adv-x="240" 
d="M51 0v149h139v-149h-139z" />
    <glyph glyph-name="slash" unicode="/" horiz-adv-x="572" 
d="M103 -104l-77 43l442 820l79 -44z" />
    <glyph glyph-name="zero" unicode="0" horiz-adv-x="595" 
d="M298 690q122 0 189.5 -92t67.5 -260t-67.5 -260.5t-189.5 -92.5t-189.5 92.5t-67.5 260.5t67 260t190 92zM298 576q-64 0 -98.5 -62.5t-34.5 -175.5t35 -176t98 -63t97.5 63t34.5 176t-34.5 175.5t-97.5 62.5z" />
    <glyph glyph-name="one" unicode="1" horiz-adv-x="369" 
d="M276 675v-675h-120v401q0 49 8 78l-3 2q-11 -16 -35 -28l-89 -46v120l126 89l19 59h94z" />
    <glyph glyph-name="two" unicode="2" horiz-adv-x="526" 
d="M273 690q94 0 146 -47t52 -130q0 -50 -21 -98t-70 -111l-102 -133q-28 -37 -60 -64l2 -3q33 11 97 11h183l1 -2l-65 -113h-430l-3 7l279 358q62 80 62 132q0 37 -22 57.5t-61 20.5q-68 0 -154 -62l-60 97q113 80 226 80z" />
    <glyph glyph-name="three" unicode="3" horiz-adv-x="500" 
d="M237 690q93 0 144 -42t51 -118q0 -51 -24.5 -88.5t-67.5 -53.5q-24 -9 -58 -12v-4q34 0 58 -7q62 -17 95.5 -60.5t33.5 -109.5q0 -98 -66 -154t-184 -56q-111 0 -202 48l43 113q82 -46 159 -46q60 0 93 27.5t33 76.5q0 56 -44.5 80t-147.5 24v109q156 0 156 88
q0 35 -24 54t-67 19q-66 0 -144 -48l-50 100q98 60 213 60z" />
    <glyph glyph-name="four" unicode="4" horiz-adv-x="572" 
d="M453 675v-415q0 -19 -4 -26l2 -2q8 3 23 3h88l-36 -113h-52q-13 0 -23 4l-2 -2q4 -5 4 -26v-98h-117v98q0 20 3 26l-2 2q-8 -4 -22 -4h-302v97l326 456h114zM339 526q-13 -37 -50 -90l-113 -158q-25 -34 -42 -49l2 -2q17 8 63 8h116q15 0 22 -3l2 2q-3 5 -3 26v193
q0 45 6 72z" />
    <glyph glyph-name="five" unicode="5" horiz-adv-x="493" 
d="M488 675l-45 -119h-162q-16 0 -28 4l-1 -1q0 -14 -6 -38l-14 -50q-5 -19 -19 -34l1 -2q16 6 41 6q98 0 156 -58t58 -157q0 -113 -71.5 -177t-198.5 -64q-107 0 -196 48l42 110q85 -44 157 -44q66 0 103.5 33.5t37.5 91.5q0 118 -154 118q-61 0 -106 -14l-4 3l102 344h307
z" />
    <glyph glyph-name="six" unicode="6" horiz-adv-x="537" 
d="M420 677l-182 -205q-51 -59 -72 -114l4 -1q50 92 139 92q92 0 150 -64t58 -165q0 -104 -68.5 -169.5t-177.5 -65.5q-110 0 -178 68.5t-68 180.5q0 76 28 144t93 148l122 151h152zM270 337q-55 0 -88 -33t-33 -89q0 -53 33 -85t88 -32t88 33.5t33 89.5q0 53 -32.5 84.5
t-88.5 31.5z" />
    <glyph glyph-name="seven" unicode="7" horiz-adv-x="461" 
d="M460 675l1 -3l-291 -672h-135l209 460q45 99 51 106l-2 2q-25 -11 -89 -11h-201l48 118h409z" />
    <glyph glyph-name="eight" unicode="8" horiz-adv-x="555" 
d="M277 -15q-113 0 -176.5 52.5t-63.5 145.5q0 71 37.5 118t103.5 57v4q-55 10 -88 51.5t-33 100.5q0 81 59.5 128.5t160.5 47.5t161 -47.5t60 -128.5q0 -59 -33 -100.5t-88 -51.5v-4q65 -11 103 -58t38 -117q0 -93 -64 -145.5t-177 -52.5zM277 414q43 0 69 23t26 62
q0 38 -26 61.5t-69 23.5t-68.5 -23.5t-25.5 -61.5q0 -39 25.5 -62t68.5 -23zM277 97q52 0 82.5 28t30.5 76q0 49 -30.5 77.5t-82.5 28.5q-51 0 -81.5 -28.5t-30.5 -77.5q0 -47 30 -75.5t82 -28.5z" />
    <glyph glyph-name="nine" unicode="9" horiz-adv-x="519" 
d="M255 690q110 0 177 -69.5t67 -183.5q0 -74 -25 -136.5t-85 -136.5l-129 -164h-146l184 221q47 57 61 92l-4 2q-47 -84 -136 -84t-147.5 64t-58.5 161q0 103 67.5 168.5t174.5 65.5zM256 576q-53 0 -85.5 -32.5t-32.5 -85.5t32 -84.5t86 -31.5q55 0 87 31.5t32 84.5
q0 55 -32 86.5t-87 31.5z" />
    <glyph glyph-name="colon" unicode=":" horiz-adv-x="240" 
d="M51 313v149h139v-149h-139zM51 0v149h139v-149h-139z" />
    <glyph glyph-name="semicolon" unicode=";" horiz-adv-x="260" 
d="M68 313v149h139v-149h-139zM38 -167l33 289h137l-101 -289h-69z" />
    <glyph glyph-name="less" unicode="&#x3c;" 
d="M529 533v-64l-391 -170l391 -168v-64l-458 202v61z" />
    <glyph glyph-name="equal" unicode="=" 
d="M553 428v-56h-506v56h506zM553 228v-56h-506v56h506z" />
    <glyph glyph-name="greater" unicode="&#x3e;" 
d="M71 533l458 -203v-61l-458 -202v64l391 168l-391 170v64z" />
    <glyph glyph-name="question" unicode="?" horiz-adv-x="380" 
d="M192 715q78 0 120 -35t42 -93q0 -66 -53 -119l-53 -53q-30 -30 -30 -53q0 -32 58 -65l-51 -92q-60 26 -96.5 61t-36.5 93q0 55 54 109l43 42q34 33 34 58q0 17 -13 27.5t-36 10.5q-47 0 -117 -43l-49 96q97 56 184 56zM121 0v149h139v-149h-139z" />
    <glyph glyph-name="at" unicode="@" horiz-adv-x="938" 
d="M485 -150q-120 0 -219 48t-159.5 143.5t-60.5 221.5q0 197 119 312t319 115q182 0 295 -105.5t113 -277.5q0 -115 -47 -186t-135 -71q-51 0 -84.5 22.5t-41.5 67.5h-3q-19 -41 -57 -65t-92 -24q-70 0 -113 41t-43 108t43.5 107t114.5 40q92 0 138 -72l2 1q-5 18 -7 52
q-3 66 -95 66q-47 0 -127 -18l-20 93q93 18 158 18q96 0 143 -39.5t47 -123.5v-131q0 -57 47 -57q36 0 59 41t23 118q0 147 -88.5 229t-228.5 82q-160 0 -254.5 -90.5t-94.5 -251.5q0 -151 99.5 -240.5t250.5 -89.5q93 0 184 36l31 -79q-114 -41 -216 -41zM476 140
q35 0 56.5 17.5t21.5 45.5t-21.5 45.5t-56.5 17.5q-36 0 -57.5 -17t-21.5 -46t21.5 -46t57.5 -17z" />
    <glyph glyph-name="A" unicode="A" horiz-adv-x="713" 
d="M8 0l338 714h21l338 -714h-142l-74 166h-265l-74 -166h-142zM256 264q15 3 51 3h99q36 0 51 -3l1 1q-14 18 -30 52l-46 110q-22 52 -23 76h-4q-3 -25 -24 -76l-46 -110q-13 -31 -30 -52z" />
    <glyph glyph-name="B" unicode="B" horiz-adv-x="624" 
d="M71 0v700h274q91 0 145 -47.5t54 -126.5q0 -53 -25 -90t-70 -52q-26 -10 -54 -11v-4q27 0 56 -7q65 -14 99.5 -57.5t34.5 -110.5q0 -89 -60 -141.5t-161 -52.5h-293zM197 412q8 4 26 4h90q49 0 75.5 23.5t26.5 65.5q0 82 -97 82h-95q-18 0 -26 5l-2 -2q4 -10 4 -27v-122
q0 -17 -4 -27zM197 108q15 5 27 5h115q113 0 113 95q0 97 -121 97h-108q-18 0 -26 4l-2 -2q4 -10 4 -27v-142q0 -18 -4 -28z" />
    <glyph glyph-name="C" unicode="C" horiz-adv-x="681" 
d="M407 -15q-166 0 -271 102t-105 263t105 263t271 102q142 0 251 -77l-71 -108q-84 58 -180 58q-106 0 -172.5 -66t-66.5 -172t66.5 -172t172.5 -66q96 0 180 58l71 -108q-109 -77 -251 -77z" />
    <glyph glyph-name="D" unicode="D" horiz-adv-x="691" 
d="M294 700q168 0 267 -94.5t99 -255.5t-99 -255.5t-267 -94.5h-223v700h223zM197 588l-2 -2q4 -10 4 -28v-416q0 -18 -4 -28l2 -2q8 5 26 5h77q105 0 164.5 62t59.5 171t-60 171t-164 62h-77q-18 0 -26 5z" />
    <glyph glyph-name="E" unicode="E" horiz-adv-x="529" 
d="M485 700v-117h-262q-16 0 -26 5l-2 -2q4 -10 4 -28v-99q0 -18 -4 -28l2 -2q8 4 26 4h232v-116h-232q-16 0 -26 5l-2 -2q4 -10 4 -28v-150q0 -18 -4 -28l2 -2q10 5 26 5h266v-117h-418v700h414z" />
    <glyph glyph-name="F" unicode="F" horiz-adv-x="507" 
d="M491 700v-117h-268q-16 0 -26 5l-2 -2q4 -10 4 -28v-114q0 -18 -4 -28l2 -2q10 5 26 5h242v-117h-242q-18 0 -26 4l-2 -2q4 -10 4 -27v-277h-128v700h420z" />
    <glyph glyph-name="G" unicode="G" horiz-adv-x="774" 
d="M405 715q152 0 269 -91l-79 -105q-83 69 -195 69q-105 0 -169.5 -66.5t-64.5 -170.5q0 -106 65 -172.5t171 -66.5q101 0 156 53.5t59 123.5l-2 2q-14 -10 -65 -10h-149v113h348v-35q0 -76 -21.5 -143t-63.5 -119t-109.5 -82t-152.5 -30q-163 0 -267 100t-104 264
q0 163 103 264.5t271 101.5z" />
    <glyph glyph-name="H" unicode="H" horiz-adv-x="724" 
d="M653 700v-700h-128v285q0 21 4 28l-2 2q-10 -5 -27 -5h-277q-16 0 -26 5l-2 -2q4 -10 4 -28v-285h-128v700h128v-245q0 -18 -4 -28l2 -2q8 4 26 4h277q19 0 27 -4l2 2q-4 7 -4 28v245h128z" />
    <glyph glyph-name="I" unicode="I" horiz-adv-x="269" 
d="M199 700v-700h-128v700h128z" />
    <glyph glyph-name="J" unicode="J" horiz-adv-x="320" 
d="M250 700v-517q0 -97 -41.5 -142.5t-127.5 -45.5q-27 0 -60 4v118q16 -1 45 -1q28 0 42 16.5t14 54.5v513h128z" />
    <glyph glyph-name="K" unicode="K" horiz-adv-x="661" 
d="M618 700l-233 -271q-37 -41 -59 -54v-4q21 -13 53 -51l279 -320h-173l-293 351l-3 -1q10 -43 10 -105v-245h-128v700h128v-206q0 -64 -10 -104l3 -2l256 312h170z" />
    <glyph glyph-name="L" unicode="L" horiz-adv-x="498" 
d="M199 700v-556q0 -17 -4 -27l2 -2q8 4 26 4h267v-119h-419v700h128z" />
    <glyph glyph-name="M" unicode="M" horiz-adv-x="919" 
d="M452 -7l-157 342q-26 57 -29 99h-4q-2 -56 -16 -101l-102 -333h-136l232 710h21l179 -410q14 -33 18 -76h4q5 46 17 76l179 410h21l233 -710h-137l-101 333q-14 45 -16 101h-4q-4 -43 -29 -99l-157 -342h-16z" />
    <glyph glyph-name="N" unicode="N" horiz-adv-x="730" 
d="M91 710l398 -397q34 -35 50 -71l4 1q-11 36 -11 124v333h128v-710h-21l-397 397q-34 34 -51 71l-4 -1q11 -36 11 -124v-333h-127v710h20z" />
    <glyph glyph-name="O" unicode="O" horiz-adv-x="795" 
d="M397 715q160 0 263.5 -103t103.5 -262t-103.5 -262t-263.5 -103t-263 103t-103 262t103 262t263 103zM397 588q-102 0 -166.5 -66.5t-64.5 -171.5t64.5 -171.5t166.5 -66.5q103 0 167.5 66.5t64.5 171.5t-64.5 171.5t-167.5 66.5z" />
    <glyph glyph-name="P" unicode="P" horiz-adv-x="564" 
d="M312 700q110 0 171.5 -54.5t61.5 -152.5t-60 -152.5t-165 -54.5h-97q-18 0 -26 5l-2 -2q4 -10 4 -28v-261h-128v700h241zM197 590l-2 -2q4 -10 4 -28v-134q0 -18 -4 -28l2 -2q8 5 26 5h92q47 0 73 25t26 67q0 43 -26 68t-73 25h-92q-18 0 -26 4z" />
    <glyph glyph-name="Q" unicode="Q" horiz-adv-x="800" 
d="M401 -5q-159 0 -264.5 102t-105.5 258q0 158 103 259t265 101q160 0 261.5 -97.5t101.5 -248.5q0 -155 -125 -242q-47 -31 -113 -52v-5q105 31 172 31h71v-106h-366zM401 123q99 0 162 65.5t63 169.5q0 103 -62 166.5t-166 63.5q-105 0 -168.5 -64.5t-63.5 -168.5
q0 -102 66.5 -167t168.5 -65z" />
    <glyph glyph-name="R" unicode="R" horiz-adv-x="626" 
d="M317 700q105 0 165 -52.5t60 -145.5q0 -80 -52 -134.5t-118 -54.5q-17 0 -29 4v-4q37 -11 75 -57l205 -256h-161l-232 302q-10 0 -15 1q-14 1 -20 5l-2 -2q6 -15 6 -39v-267h-128v700h246zM197 590l-2 -2q4 -10 4 -28v-123q0 -17 -4 -27l2 -2q8 4 26 4h94q44 0 68.5 22.5
t24.5 63.5q0 40 -24 64t-69 24h-94q-18 0 -26 4z" />
    <glyph glyph-name="S" unicode="S" horiz-adv-x="519" 
d="M272 715q100 0 202 -50l-57 -116q-76 43 -146 43q-74 0 -74 -51q0 -20 12 -35.5t42 -37.5l121 -86q63 -44 91 -89t28 -106q0 -97 -63 -149.5t-175 -52.5q-131 0 -240 67l58 117q98 -60 186 -60q48 0 74 19.5t26 51.5q0 24 -16 45.5t-54 48.5l-114 82q-110 77 -110 182
q0 82 55.5 129.5t153.5 47.5z" />
    <glyph glyph-name="T" unicode="T" horiz-adv-x="530" 
d="M522 700v-119h-168q-18 0 -26 4l-2 -2q3 -7 3 -27v-556h-128v556q0 17 4 27l-2 2q-9 -4 -26 -4h-169v119h514z" />
    <glyph glyph-name="U" unicode="U" horiz-adv-x="696" 
d="M633 700v-429q0 -133 -76.5 -209t-208.5 -76q-133 0 -209 76t-76 209v429h131v-424q0 -76 42 -119.5t112 -43.5t112 43.5t42 119.5v424h131z" />
    <glyph glyph-name="V" unicode="V" horiz-adv-x="667" 
d="M667 700l-323 -708h-21l-323 708h151l148 -361q25 -63 32 -116h4q10 60 33 116l148 361h151z" />
    <glyph glyph-name="W" unicode="W" horiz-adv-x="974" 
d="M496 710l142 -351q27 -67 32 -111h4q4 44 28 112l118 340h146l-280 -709h-22l-154 374q-17 39 -21 82h-4q-4 -42 -20 -82l-155 -374h-22l-280 709h146l119 -340q23 -70 28 -112h4q4 43 31 111l142 351h18z" />
    <glyph glyph-name="X" unicode="X" horiz-adv-x="678" 
d="M642 700l-182 -271q-26 -40 -43 -57v-3q17 -18 47 -63l206 -306h-158l-136 212q-31 49 -37 77h-4q-4 -25 -37 -77l-133 -212h-157l205 309q34 49 47 64v3q-13 12 -43 56l-181 268h157l108 -168q32 -51 38 -78h4q4 23 37 78l104 168h158z" />
    <glyph glyph-name="Y" unicode="Y" horiz-adv-x="612" 
d="M607 700l-237 -435v-265h-128v265l-237 435h152l105 -221q4 -8 11 -23t9 -19l7 -14t6 -14t3.5 -11.5t4 -13t2.5 -13.5h2q6 32 43 108l106 221h151z" />
    <glyph glyph-name="Z" unicode="Z" horiz-adv-x="619" 
d="M604 700l2 -5l-387 -589l3 -2q26 18 81 18h304l-64 -122h-533l-2 5l389 589l-2 2q-28 -18 -89 -18h-255l62 122h491z" />
    <glyph glyph-name="bracketleft" unicode="[" horiz-adv-x="356" 
d="M346 756v-92h-107q-28 0 -39 5l-1 -1q6 -14 6 -37v-724q0 -23 -6 -37l1 -1q11 5 39 5h107v-93h-250v975h250z" />
    <glyph glyph-name="backslash" unicode="\" horiz-adv-x="552" 
d="M102 759l424 -798l-74 -39l-426 797z" />
    <glyph glyph-name="bracketright" unicode="]" horiz-adv-x="356" 
d="M10 756h250v-975h-250v93h107q28 0 39 -5l1 1q-6 14 -6 37v724q0 23 6 37l-1 1q-11 -5 -39 -5h-107v92z" />
    <glyph glyph-name="asciicircum" unicode="^" 
d="M359 715l144 -322h-92l-111 253l-111 -253h-92l144 322h118z" />
    <glyph glyph-name="underscore" unicode="_" horiz-adv-x="524" 
d="M519 -15v-94h-513v94h513z" />
    <glyph glyph-name="grave" unicode="`" horiz-adv-x="328" 
d="M193 553l-143 151l1 3h123l104 -151l-1 -3h-84z" />
    <glyph glyph-name="a" unicode="a" horiz-adv-x="514" 
d="M253 477q110 0 159 -44t49 -142v-291h-124q0 47 15 82l-4 2q-51 -99 -159 -99q-74 0 -119.5 44.5t-45.5 117.5t45.5 116.5t121.5 43.5q106 0 155 -80l4 2q-8 24 -8 68q-5 74 -102 74q-54 0 -137 -20l-24 103q90 23 174 23zM238 223q-37 0 -60 -20t-23 -52t22.5 -51.5
t59.5 -19.5q38 0 62 20t24 52q0 31 -23.5 51t-61.5 20z" />
    <glyph glyph-name="b" unicode="b" horiz-adv-x="591" 
d="M345 -15q-60 0 -104 29t-66 83l-4 -1q7 -36 7 -96h-119v715h122v-234q0 -79 -11 -115l4 -1q49 112 171 112q97 0 157.5 -68.5t60.5 -177.5q0 -110 -60.5 -178t-157.5 -68zM309 97q59 0 92.5 36t33.5 98t-33.5 98t-92.5 36t-96 -37t-37 -97t37 -97t96 -37z" />
    <glyph glyph-name="c" unicode="c" horiz-adv-x="464" 
d="M283 -15q-113 0 -184 68.5t-71 177.5t71 177.5t184 68.5q88 0 162 -46l-53 -101q-48 32 -107 32q-58 0 -94.5 -36.5t-36.5 -94.5t36.5 -94.5t94.5 -36.5q59 0 107 32l53 -101q-74 -46 -162 -46z" />
    <glyph glyph-name="d" unicode="d" horiz-adv-x="591" 
d="M246 -15q-97 0 -157.5 68t-60.5 178q0 109 60.5 177.5t157.5 68.5q122 0 171 -112l4 1q-11 36 -11 115v234h122v-715h-119q0 60 7 96l-4 1q-22 -54 -66 -83t-104 -29zM282 97q59 0 96 37t37 97t-37 97t-96 37t-92.5 -36t-33.5 -98t33.5 -98t92.5 -36z" />
    <glyph glyph-name="e" unicode="e" horiz-adv-x="518" 
d="M267 477q105 0 165 -65t60 -180v-29h-286q-42 0 -58 10l-2 -3l4 -11q17 -106 130 -106q77 0 137 55l56 -88q-83 -75 -193 -75q-114 0 -183 66.5t-69 178.5t66 179.5t173 67.5zM263 377q-47 0 -78 -26.5t-37 -72.5l2 -2q14 9 50 9h109q48 0 57 -8l2 2q-3 47 -31 72.5
t-74 25.5z" />
    <glyph glyph-name="f" unicode="f" horiz-adv-x="341" 
d="M322 709v-113h-9q-47 0 -68.5 -19t-21.5 -66v-21q-2 -27 -5 -34l2 -2q10 8 43 8h59v-109h-59q-33 0 -43 7l-2 -2q5 -15 5 -56v-302h-123v302q0 41 5 56l-2 2q-10 -7 -43 -7h-41v109h41q33 0 43 -8l2 2q-3 6 -5 33v17q0 106 54.5 154.5t146.5 48.5h21z" />
    <glyph glyph-name="g" unicode="g" horiz-adv-x="588" 
d="M246 477q120 0 170 -112l4 1q-11 33 -11 96h123v-432q0 -245 -258 -245q-127 0 -219 56l55 105q77 -46 159 -46q65 0 104 30.5t39 83.5v14q0 36 8 68l-4 1q-54 -107 -171 -107q-96 0 -156.5 66.5t-60.5 174.5q0 110 61 178t157 68zM279 364q-56 0 -89.5 -36t-33.5 -97
t33.5 -97t89.5 -36q57 0 94 37t37 96t-37 96t-94 37z" />
    <glyph glyph-name="h" unicode="h" horiz-adv-x="561" 
d="M181 715v-232q0 -67 -10 -121l4 -1q51 116 167 116q78 0 121.5 -47t43.5 -133v-297h-123v262q0 104 -89 104q-53 0 -83.5 -36.5t-30.5 -107.5v-222h-122v715h122z" />
    <glyph glyph-name="i" unicode="i" horiz-adv-x="240" 
d="M188 700v-149h-135v149h135zM181 462v-462h-122v462h122z" />
    <glyph glyph-name="j" unicode="j" horiz-adv-x="240" 
d="M188 700v-149h-135v149h135zM181 462v-479q0 -198 -195 -198h-11v116h9q75 0 75 86v475h122z" />
    <glyph glyph-name="k" unicode="k" horiz-adv-x="520" 
d="M181 715v-355q0 -65 -12 -101l3 -1l176 204h153l-161 -172q-29 -31 -48 -38v-4q14 -5 42 -33l186 -215h-159l-189 232l-3 -2q12 -34 12 -96v-134h-122v715h122z" />
    <glyph glyph-name="l" unicode="l" horiz-adv-x="240" 
d="M181 715v-715h-122v715h122z" />
    <glyph glyph-name="m" unicode="m" horiz-adv-x="838" 
d="M59 0v462h121q0 -53 -11 -97l4 -2q23 59 59.5 86.5t95.5 27.5q113 0 141 -112h4q17 52 57 82t99 30q73 0 114 -45.5t41 -133.5v-298h-123v258q0 56 -21 81.5t-63 25.5q-96 0 -96 -137v-228h-119v259q0 106 -85 106q-96 0 -96 -137v-228h-122z" />
    <glyph glyph-name="n" unicode="n" horiz-adv-x="561" 
d="M343 477q79 0 121.5 -46.5t42.5 -133.5v-297h-123v262q0 104 -89 104q-54 0 -84 -36.5t-30 -107.5v-222h-122v462h122q0 -61 -10 -105l4 -2q49 122 168 122z" />
    <glyph glyph-name="o" unicode="o" horiz-adv-x="568" 
d="M284 477q111 0 183.5 -69t72.5 -177t-72.5 -177t-183.5 -69t-183.5 69t-72.5 177t72.5 177t183.5 69zM284 361q-58 0 -94 -35.5t-36 -94.5t36 -94.5t94 -35.5t94 35.5t36 94.5t-36 94.5t-94 35.5z" />
    <glyph glyph-name="p" unicode="p" horiz-adv-x="591" 
d="M344 477q97 0 158 -68t61 -178t-60.5 -178t-157.5 -68q-123 0 -170 112l-4 -1q9 -43 9 -94v-202h-121v662h120q0 -60 -9 -96l4 -1q54 112 170 112zM309 365q-59 0 -96 -37t-37 -97t37 -97t96 -37t92.5 36t33.5 98t-34 98t-92 36z" />
    <glyph glyph-name="q" unicode="q" horiz-adv-x="591" 
d="M247 477q116 0 170 -112l4 1q-9 36 -9 96h120v-662h-121v202q0 51 9 94l-4 1q-47 -112 -170 -112q-97 0 -157.5 68t-60.5 178t61 178t158 68zM282 365q-58 0 -92 -36t-34 -98t33.5 -98t92.5 -36t96 37t37 97t-37 97t-96 37z" />
    <glyph glyph-name="r" unicode="r" horiz-adv-x="361" 
d="M324 476q18 0 26 -1v-130q-20 2 -38 2q-131 0 -131 -151v-196h-122v462h119q0 -58 -13 -136l4 -1q35 151 155 151z" />
    <glyph glyph-name="s" unicode="s" horiz-adv-x="420" 
d="M210 -15q-107 0 -196 49l49 102q76 -47 153 -47q59 0 59 34q0 12 -8.5 20.5t-31.5 19.5l-84 38q-103 44 -103 138q0 65 46.5 101.5t130.5 36.5q76 0 164 -33l-41 -100q-71 31 -128 31q-48 0 -48 -29q0 -13 10 -22.5t36 -21.5l81 -36q53 -23 76.5 -54.5t23.5 -78.5
q0 -70 -49.5 -109t-139.5 -39z" />
    <glyph glyph-name="t" unicode="t" horiz-adv-x="329" 
d="M222 709v-206q0 -31 -5 -47l3 -2q10 8 42 8h49v-109h-49q-32 0 -42 7l-3 -2q5 -15 5 -56v-302h-123v302q0 41 6 56l-3 2q-10 -7 -43 -7h-40v109h40q33 0 43 -8l3 2q-6 16 -6 47v127l113 79h10z" />
    <glyph glyph-name="u" unicode="u" horiz-adv-x="544" 
d="M488 462v-462h-121q0 55 14 105l-5 1q-47 -121 -161 -121q-75 0 -119.5 49.5t-44.5 139.5v288h126v-257q0 -106 89 -106q46 0 72.5 35t26.5 103v225h123z" />
    <glyph glyph-name="v" unicode="v" horiz-adv-x="512" 
d="M507 462l-230 -469h-41l-230 469h139l78 -188q27 -66 32 -102h2q5 36 32 102l79 188h139z" />
    <glyph glyph-name="w" unicode="w" horiz-adv-x="738" 
d="M210 -7l-204 469h135l67 -176q21 -56 25 -87h4q4 28 32 88l84 183h31l85 -183q28 -60 32 -88h4q3 27 25 87l66 176h136l-204 -469h-33l-94 199q-26 55 -30 81h-4q-4 -26 -30 -81l-94 -199h-33z" />
    <glyph glyph-name="x" unicode="x" horiz-adv-x="533" 
d="M8 0l156 212q17 23 28 28v3q-9 5 -27 27l-139 192h146l59 -87q29 -42 34 -73h4q4 30 34 73l58 87h146l-139 -192q-17 -22 -27 -27v-3q12 -5 28 -29l156 -211h-145l-80 111q-27 36 -32 70h-4q-5 -32 -32 -70l-79 -111h-145z" />
    <glyph glyph-name="y" unicode="y" horiz-adv-x="515" 
d="M510 462l-287 -663h-125l103 234l-195 429h135l92 -220q22 -50 24 -101h4q1 39 18 80l98 241h133z" />
    <glyph glyph-name="z" unicode="z" horiz-adv-x="476" 
d="M3 0l-2 5l278 365l-3 3q-33 -19 -90 -19h-150l64 108h371l2 -4l-272 -365l2 -3q29 18 102 18h165l-66 -108h-401z" />
    <glyph glyph-name="braceleft" unicode="{" horiz-adv-x="396" 
d="M114 273q78 -6 114.5 -41.5t36.5 -105.5v-150q0 -49 23 -70.5t73 -21.5h27v-103h-37q-192 0 -192 189v147q0 49 -31.5 73t-96.5 27v116q65 3 96.5 27t31.5 73v134q0 189 192 189h37v-103h-22q-53 0 -77 -21t-24 -71v-137q0 -70 -36.5 -105.5t-114.5 -41.5v-4z" />
    <glyph glyph-name="bar" unicode="|" horiz-adv-x="315" 
d="M106 -215v942h103v-942h-103z" />
    <glyph glyph-name="braceright" unicode="}" horiz-adv-x="396" 
d="M282 273v4q-78 6 -114.5 41.5t-36.5 105.5v137q0 50 -24 71t-77 21h-22v103h37q192 0 192 -189v-134q0 -49 31.5 -73t96.5 -27v-116q-65 -3 -96.5 -27t-31.5 -73v-147q0 -189 -192 -189h-37v103h27q50 0 73 21.5t23 70.5v150q0 70 36.5 105.5t114.5 41.5z" />
    <glyph glyph-name="asciitilde" unicode="~" 
d="M196 383q51 0 114.5 -31t97.5 -31q23 0 44 8.5t33 16.5t35 27l55 -82q-86 -74 -170 -74q-50 0 -113.5 30.5t-98.5 30.5q-33 0 -56.5 -12.5t-56.5 -39.5l-55 81q86 76 171 76z" />
    <glyph glyph-name="exclamdown" unicode="&#xa1;" horiz-adv-x="335" 
d="M98 487h139v-149h-139v149zM124 267h87l34 -480h-155z" />
    <glyph glyph-name="cent" unicode="&#xa2;" horiz-adv-x="485" 
d="M280 -65v20q0 28 4 35l-1 1q-9 -6 -30 -3q-95 11 -153.5 78.5t-58.5 165.5q0 97 58 163t156 80q22 2 28 -3l1 1q-4 9 -4 32v25h30v-25q0 -22 -4 -33l1 -1q10 7 27 4q75 -10 125 -44l-53 -101q-36 23 -74 28q-18 2 -24 9l-1 -1q3 -9 3 -35v-197q0 -27 -6 -37l1 -1
q7 5 29 8q35 6 72 28l53 -101q-53 -37 -121 -43q-19 -3 -31 3l-1 -1q4 -6 4 -35v-20h-30zM283 95l1 2q-4 13 -4 37v197q0 27 5 34l-1 1q-5 -3 -15.5 -7t-11.5 -4q-43 -13 -66 -45.5t-23 -77.5q0 -47 23.5 -80t64.5 -45q22 -7 27 -12z" />
    <glyph glyph-name="sterling" unicode="&#xa3;" horiz-adv-x="547" 
d="M351 -14q-39 0 -89 18.5t-70 18.5q-31 0 -88 -29l-58 98q115 66 115 149q0 23 -8.5 44t-35.5 70h-81v30h38q23 0 33 -6l1 1q-12 14 -19 30q-16 43 -16 88q0 87 61.5 139.5t163.5 52.5q103 0 190 -57l-62 -105q-61 44 -128 44q-46 0 -73 -23t-27 -62t37 -102h177v-30h-128
q-26 0 -40 7l-1 -2q34 -46 34 -97q0 -42 -23.5 -75t-78.5 -69l2 -3q28 11 55 11q26 0 59.5 -12t56.5 -12q57 0 111 53l62 -100q-79 -70 -170 -70z" />
    <glyph glyph-name="currency" unicode="&#xa4;" 
d="M476 480q57 -63 57 -156q0 -92 -57 -157l57 -57l-20 -19l-57 57q-62 -56 -156 -56q-91 0 -157 56l-57 -57l-19 20l57 57q-57 63 -57 156t57 156l-57 57l20 20l57 -57q66 56 156 56t156 -56l57 57l20 -20zM300 199q54 0 88 35t34 90q0 54 -34 89t-88 35t-88 -35t-34 -89
q0 -55 34 -90t88 -35z" />
    <glyph glyph-name="yen" unicode="&#xa5;" horiz-adv-x="601" 
d="M243 0v222h-178v30h138q22 0 36 -4l1 1q-9 9 -17 23l-19 36h-139v30h97q20 0 34 -4l1 1q-14 15 -18 25l-158 315h141l109 -253q25 -57 27 -88h4q4 35 28 88l109 253h141l-158 -315q-8 -14 -18 -25l1 -1q14 4 34 4h97v-30h-139l-19 -36q-8 -14 -17 -23l1 -1q14 4 36 4h138
v-30h-178v-222h-115z" />
    <glyph glyph-name="brokenbar" unicode="&#xa6;" horiz-adv-x="315" 
d="M106 332v395h103v-395h-103zM209 182v-397h-103v397h103z" />
    <glyph glyph-name="section" unicode="&#xa7;" horiz-adv-x="565" 
d="M515 268q0 -99 -90 -161q42 -44 42 -105q0 -74 -51 -117t-145 -43q-107 0 -201 62l61 97q74 -51 150 -51q70 0 70 49q0 23 -22.5 42t-55.5 32t-72.5 32t-72.5 40t-55.5 58.5t-22.5 85.5q0 99 89 160q-42 44 -42 105q0 74 51.5 117.5t144.5 43.5q106 0 201 -61l-60 -99
q-76 51 -150 51q-35 0 -53 -13t-18 -35q0 -27 31 -48t75.5 -39t89 -41t75.5 -64.5t31 -97.5zM166 298q0 -19 8.5 -34.5t29 -29.5t35 -22t48.5 -23t47 -21q64 38 64 90q0 19 -8.5 34.5t-29 29.5t-35 22t-48.5 23t-47 21q-64 -39 -64 -90z" />
    <glyph glyph-name="dieresis" unicode="&#xa8;" horiz-adv-x="387" 
d="M152 700v-133h-102v133h102zM337 700v-133h-102v133h102z" />
    <glyph glyph-name="copyright" unicode="&#xa9;" horiz-adv-x="819" 
d="M410 -15q-156 0 -260 103.5t-104 261.5t104 261.5t260 103.5q155 0 259.5 -104t104.5 -261t-104.5 -261t-259.5 -104zM410 49q127 0 211.5 85t84.5 216t-84.5 216t-211.5 85q-128 0 -212.5 -85t-84.5 -216t84.5 -216t212.5 -85zM415 128q-100 0 -166 64.5t-66 162.5
t66 162.5t166 64.5q84 0 152 -49l-43 -75q-58 36 -111 36q-61 0 -98.5 -38.5t-37.5 -100.5t37.5 -100.5t98.5 -38.5q50 0 111 35l43 -75q-67 -48 -152 -48z" />
    <glyph glyph-name="ordfeminine" unicode="&#xaa;" horiz-adv-x="389" 
d="M150 338q-52 0 -83 28.5t-31 77.5q0 48 33 76.5t87 28.5q73 0 105 -56l3 1q-5 15 -5 39q0 53 -68 53q-36 0 -94 -13l-16 76q74 15 124 15q77 0 112.5 -30.5t35.5 -98.5v-187h-99q0 32 12 57l-4 2q-38 -69 -112 -69zM196 410q22 0 35.5 11t13.5 30q0 18 -14 29.5t-35 11.5
q-22 0 -35.5 -11t-13.5 -30t13.5 -30t35.5 -11z" />
    <glyph glyph-name="guillemotleft" unicode="&#xab;" horiz-adv-x="479" 
d="M285 419v-4l-85 -114q-47 -64 -62 -75v-2q15 -11 62 -75l85 -114v-4h-125l-144 194l144 194h125zM474 419v-4l-85 -114q-47 -64 -62 -75v-2q15 -11 62 -75l85 -114v-4h-125l-144 194l144 194h125z" />
    <glyph glyph-name="logicalnot" unicode="&#xac;" 
d="M71 432h458v-265h-59v208h-399v57z" />
    <glyph glyph-name="uni00AD" unicode="&#xad;" horiz-adv-x="379" 
d="M338 324v-114h-297v114h297z" />
    <glyph glyph-name="registered" unicode="&#xae;" horiz-adv-x="541" 
d="M271 715q101 0 167.5 -67t66.5 -170q0 -102 -66.5 -169t-167.5 -67t-168 67t-67 169q0 103 67 170t168 67zM271 663q-78 0 -129 -52.5t-51 -132.5t50.5 -132t129.5 -52q78 0 128.5 52.5t50.5 131.5q0 80 -50.5 132.5t-128.5 52.5zM286 616q35 0 57 -20t22 -54
q0 -33 -18.5 -53t-50.5 -20v-2q10 -3 22 -19l61 -79v-5h-57l-75 103h-11v-103h-49v252h99zM280 571h-44v-61h44q34 0 34 30q0 31 -34 31z" />
    <glyph glyph-name="macron" unicode="&#xaf;" horiz-adv-x="399" 
d="M349 674v-83h-299v83h299z" />
    <glyph glyph-name="degree" unicode="&#xb0;" horiz-adv-x="353" 
d="M177 690q61 0 100.5 -39.5t39.5 -101.5t-39.5 -101t-100.5 -39q-62 0 -101.5 39t-39.5 101q0 63 39.5 102t101.5 39zM177 635q-36 0 -60.5 -24t-24.5 -62t24.5 -61.5t60.5 -23.5t60 23.5t24 61.5t-24 62t-60 24z" />
    <glyph glyph-name="plusminus" unicode="&#xb1;" 
d="M329 521v-133h210v-55h-210v-133h-58v133h-210v55h210v133h58zM539 156v-57h-478v57h478z" />
    <glyph glyph-name="acute" unicode="&#xb4;" horiz-adv-x="328" 
d="M277 707l1 -3l-142 -151h-85l-1 3l103 151h124z" />
    <glyph glyph-name="uni00B5" unicode="&#xb5;" 
d="M395 462h123v-462h-121q0 55 14 105l-5 1q-47 -121 -161 -121q-31 0 -53 7v-192h-111v662h126v-257q0 -106 89 -106q46 0 72.5 35t26.5 103v225z" />
    <glyph glyph-name="paragraph" unicode="&#xb6;" horiz-adv-x="641" 
d="M591 700v-91h-63v-715h-91v715h-102v-715h-91v416q-83 0 -138.5 55.5t-55.5 143.5q0 85 58 138t146 53h337z" />
    <glyph glyph-name="periodcentered" unicode="&#xb7;" horiz-adv-x="239" 
d="M50 313v149h139v-149h-139z" />
    <glyph glyph-name="cedilla" unicode="&#xb8;" horiz-adv-x="277" 
d="M160 32l-24 -66q91 -21 91 -73q0 -20 -12 -37t-37 -32.5t-44.5 -25t-53.5 -23.5q-8 -3 -12 -5l-18 39q24 13 33 18.5t22 14t17.5 15t4.5 13.5q0 23 -60 37l45 125h48z" />
    <glyph glyph-name="ordmasculine" unicode="&#xba;" horiz-adv-x="419" 
d="M209 664q76 0 125 -45t49 -118t-49 -118t-125 -45q-75 0 -124 45t-49 118t49 118t124 45zM209 574q-31 0 -52.5 -20t-21.5 -53t21.5 -53t52.5 -20q32 0 53.5 20t21.5 53t-21.5 53t-53.5 20z" />
    <glyph glyph-name="guillemotright" unicode="&#xbb;" horiz-adv-x="483" 
d="M10 419h125l144 -194l-144 -194h-125v4l85 114q47 64 62 75v2q-15 11 -62 75l-85 114v4zM198 419h125l144 -194l-144 -194h-125v4l85 114q47 64 62 75v2q-15 11 -62 75l-85 114v4z" />
    <glyph glyph-name="onequarter" unicode="&#xbc;" horiz-adv-x="700" 
d="M124 289v237q0 25 7 40l-3 1q-4 -6 -21 -14l-59 -28v59l80 49l10 42h45v-386h-59zM106 0l395 675h64l-395 -675h-64zM543 0v54q0 10 2 16v2q-7 -3 -17 -3h-187v48l200 269h61v-244q0 -12 -3 -18l1 -1q6 3 14 3h55l-21 -57h-33q-9 0 -15 3l-1 -2q3 -4 3 -15v-55h-59z
M408 122q10 4 34 4h82q12 0 21 -3l1 1q-2 5 -2 20v116q0 38 3 51l-2 1q-1 -3 -23 -37l-96 -131q-11 -15 -19 -21z" />
    <glyph glyph-name="onehalf" unicode="&#xbd;" horiz-adv-x="745" 
d="M124 289v237q0 25 7 40l-3 1q-4 -6 -21 -14l-59 -28v59l80 49l10 42h45v-386h-59zM106 0l395 675h64l-395 -675h-64zM422 0l-3 5l160 197l6 8q6 7 7.5 9t7 9.5t7.5 11t5.5 10.5t5 12.5t3 12t1.5 13.5q0 24 -15.5 37t-41.5 13q-44 0 -103 -33l-26 50q69 40 135 40
q52 0 82.5 -27t30.5 -74q0 -55 -60 -126l-68 -83q-18 -22 -37 -34l1 -3q19 7 52 7h131l1 -1l-33 -54h-249z" />
    <glyph glyph-name="threequarters" unicode="&#xbe;" horiz-adv-x="800" 
d="M169 280q-71 0 -122 25l23 56q50 -23 97 -23q83 0 83 64q0 33 -28.5 48.5t-97.5 15.5v55q107 0 107 59q0 46 -63 46q-41 0 -95 -27l-25 51q64 34 129 34q56 0 86.5 -25t30.5 -69q0 -37 -24 -62t-70 -29v-3q53 -1 83 -26t30 -72q0 -56 -37.5 -87t-106.5 -31zM189 0
l395 675h64l-395 -675h-64zM635 0v54q0 10 2 16v2q-7 -3 -17 -3h-187v48l200 269h61v-244q0 -12 -3 -18l1 -1q6 3 14 3h55l-21 -57h-33q-9 0 -15 3l-1 -2q3 -4 3 -15v-55h-59zM500 122q10 4 34 4h82q12 0 21 -3l1 1q-2 5 -2 20v116q0 38 3 51l-2 1q-1 -3 -23 -37l-96 -131
q-11 -15 -19 -21z" />
    <glyph glyph-name="questiondown" unicode="&#xbf;" horiz-adv-x="348" 
d="M237 500v-149h-139v149h139zM166 -215q-78 0 -120 35t-42 93q0 66 53 119l53 53q30 30 30 53q0 32 -58 65l51 92q60 -26 96.5 -61t36.5 -93q0 -55 -54 -109l-43 -42q-34 -33 -34 -58q0 -17 13 -27.5t36 -10.5q47 0 117 43l49 -96q-97 -56 -184 -56z" />
    <glyph glyph-name="Agrave" unicode="&#xc0;" horiz-adv-x="713" 
d="M302 853l98 -107l-1 -3h-84l-147 107l1 3h133zM8 0l338 714h21l338 -714h-142l-74 166h-265l-74 -166h-142zM256 264q15 3 51 3h99q36 0 51 -3l1 1q-14 18 -30 52l-46 110q-22 52 -23 76h-4q-3 -25 -24 -76l-46 -110q-13 -31 -30 -52z" />
    <glyph glyph-name="Aacute" unicode="&#xc1;" horiz-adv-x="713" 
d="M545 853l1 -3l-147 -107h-84l-1 3l99 107h132zM8 0l338 714h21l338 -714h-142l-74 166h-265l-74 -166h-142zM256 264q15 3 51 3h99q36 0 51 -3l1 1q-14 18 -30 52l-46 110q-22 52 -23 76h-4q-3 -25 -24 -76l-46 -110q-13 -31 -30 -52z" />
    <glyph glyph-name="Acircumflex" unicode="&#xc2;" horiz-adv-x="713" 
d="M180 743v4l115 116h123l115 -116v-4h-108l-28 28q-34 34 -38 54h-4q-5 -20 -39 -54l-28 -28h-108zM8 0l338 714h21l338 -714h-142l-74 166h-265l-74 -166h-142zM256 264q15 3 51 3h99q36 0 51 -3l1 1q-14 18 -30 52l-46 110q-22 52 -23 76h-4q-3 -25 -24 -76l-46 -110
q-13 -31 -30 -52z" />
    <glyph glyph-name="Atilde" unicode="&#xc3;" horiz-adv-x="713" 
d="M222 739l-43 15q30 107 111 107q28 0 89.5 -16.5t81.5 -16.5q32 0 52 35l43 -15q-30 -107 -110 -107q-29 0 -90.5 16.5t-81.5 16.5q-31 0 -52 -35zM8 0l338 714h21l338 -714h-142l-74 166h-265l-74 -166h-142zM256 264q15 3 51 3h99q36 0 51 -3l1 1q-14 18 -30 52
l-46 110q-22 52 -23 76h-4q-3 -25 -24 -76l-46 -110q-13 -31 -30 -52z" />
    <glyph glyph-name="Adieresis" unicode="&#xc4;" horiz-adv-x="713" 
d="M213 859h102v-116h-102v116zM399 859h102v-116h-102v116zM8 0l338 714h21l338 -714h-142l-74 166h-265l-74 -166h-142zM256 264q15 3 51 3h99q36 0 51 -3l1 1q-14 18 -30 52l-46 110q-22 52 -23 76h-4q-3 -25 -24 -76l-46 -110q-13 -31 -30 -52z" />
    <glyph glyph-name="Aring" unicode="&#xc5;" horiz-adv-x="713" 
d="M390 666l315 -666h-142l-74 166h-265l-74 -166h-142l315 666q-39 10 -62 40t-23 72q0 51 33.5 83.5t85.5 32.5t85.5 -32.5t33.5 -83.5q0 -42 -23.5 -72t-62.5 -40zM295 778q0 -26 17.5 -43.5t44.5 -17.5t44.5 17.5t17.5 43.5t-17.5 43.5t-44.5 17.5t-44.5 -17.5
t-17.5 -43.5zM457 264l1 1q-14 18 -30 52l-46 110q-22 52 -23 76h-4q-3 -25 -24 -76l-46 -110q-13 -31 -30 -52l1 -1q15 3 51 3h99q36 0 51 -3z" />
    <glyph glyph-name="AE" unicode="&#xc6;" horiz-adv-x="941" 
d="M663 117h238v-117h-382v140q0 18 4 28l-2 2q-8 -4 -26 -4h-228l-105 -166h-154l465 700h424v-117h-234q-18 0 -26 4l-2 -2q4 -10 4 -28v-98q0 -18 -4 -28l2 -2q8 4 26 4h209v-116h-209q-18 0 -26 4l-2 -2q4 -10 4 -28v-148q0 -18 -4 -28l2 -2q8 4 26 4zM523 265
q-4 10 -4 28v223q0 39 7 78h-2q-16 -44 -36 -77l-133 -211q-18 -30 -39 -43l1 -2q19 6 54 6h124q19 0 26 -4z" />
    <glyph glyph-name="Ccedilla" unicode="&#xc7;" horiz-adv-x="681" 
d="M658 62q-99 -71 -232 -77l-7 -19q91 -21 91 -73q0 -20 -12 -37t-37 -32.5t-44.5 -25t-53.5 -23.5q-8 -3 -12 -5l-18 39q24 13 33 18.5t22 14t17.5 15t4.5 13.5q0 23 -60 37l28 79q-155 9 -251 109.5t-96 254.5q0 161 105 263t271 102q142 0 251 -77l-71 -108
q-84 58 -180 58q-106 0 -172.5 -66t-66.5 -172t66.5 -172t172.5 -66q96 0 180 58z" />
    <glyph glyph-name="Egrave" unicode="&#xc8;" horiz-adv-x="529" 
d="M235 853l98 -107l-1 -3h-84l-147 107l1 3h133zM485 700v-117h-262q-16 0 -26 5l-2 -2q4 -10 4 -28v-99q0 -18 -4 -28l2 -2q8 4 26 4h232v-116h-232q-16 0 -26 5l-2 -2q4 -10 4 -28v-150q0 -18 -4 -28l2 -2q10 5 26 5h266v-117h-418v700h414z" />
    <glyph glyph-name="Eacute" unicode="&#xc9;" horiz-adv-x="529" 
d="M478 853l1 -3l-147 -107h-84l-1 3l99 107h132zM485 700v-117h-262q-16 0 -26 5l-2 -2q4 -10 4 -28v-99q0 -18 -4 -28l2 -2q8 4 26 4h232v-116h-232q-16 0 -26 5l-2 -2q4 -10 4 -28v-150q0 -18 -4 -28l2 -2q10 5 26 5h266v-117h-418v700h414z" />
    <glyph glyph-name="Ecircumflex" unicode="&#xca;" horiz-adv-x="529" 
d="M113 743v4l115 116h123l115 -116v-4h-108l-28 28q-34 34 -38 54h-4q-5 -20 -39 -54l-28 -28h-108zM485 700v-117h-262q-16 0 -26 5l-2 -2q4 -10 4 -28v-99q0 -18 -4 -28l2 -2q8 4 26 4h232v-116h-232q-16 0 -26 5l-2 -2q4 -10 4 -28v-150q0 -18 -4 -28l2 -2q10 5 26 5
h266v-117h-418v700h414z" />
    <glyph glyph-name="Edieresis" unicode="&#xcb;" horiz-adv-x="529" 
d="M146 859h102v-116h-102v116zM332 859h102v-116h-102v116zM485 700v-117h-262q-16 0 -26 5l-2 -2q4 -10 4 -28v-99q0 -18 -4 -28l2 -2q8 4 26 4h232v-116h-232q-16 0 -26 5l-2 -2q4 -10 4 -28v-150q0 -18 -4 -28l2 -2q10 5 26 5h266v-117h-418v700h414z" />
    <glyph glyph-name="Igrave" unicode="&#xcc;" horiz-adv-x="269" 
d="M80 853l98 -107l-1 -3h-84l-147 107l1 3h133zM199 700v-700h-128v700h128z" />
    <glyph glyph-name="Iacute" unicode="&#xcd;" horiz-adv-x="269" 
d="M323 853l1 -3l-147 -107h-84l-1 3l99 107h132zM199 700v-700h-128v700h128z" />
    <glyph glyph-name="Icircumflex" unicode="&#xce;" horiz-adv-x="269" 
d="M-42 743v4l115 116h123l115 -116v-4h-108l-28 28q-34 34 -38 54h-4q-5 -20 -39 -54l-28 -28h-108zM199 700v-700h-128v700h128z" />
    <glyph glyph-name="Idieresis" unicode="&#xcf;" horiz-adv-x="269" 
d="M-9 859h102v-116h-102v116zM177 859h102v-116h-102v116zM199 700v-700h-128v700h128z" />
    <glyph glyph-name="Eth" unicode="&#xd0;" horiz-adv-x="703" 
d="M310 700q160 0 261 -94.5t101 -255.5t-101 -255.5t-261 -94.5h-223v277q0 18 4 28l-2 2q-10 -5 -26 -5h-67v104h67q18 0 26 -4l2 2q-4 10 -4 27v269h223zM316 117q99 0 159.5 60.5t60.5 172.5t-61 172.5t-159 60.5h-76q-17 0 -27 5l-2 -2q4 -7 4 -28v-127q0 -20 -4 -27
l2 -2q8 4 27 4h141v-104h-141q-17 0 -27 5l-2 -2q4 -7 4 -28v-135q0 -21 -4 -28l2 -2q10 5 27 5h76z" />
    <glyph glyph-name="Ntilde" unicode="&#xd1;" horiz-adv-x="730" 
d="M233 739l-43 15q30 107 111 107q28 0 89.5 -16.5t81.5 -16.5q32 0 52 35l43 -15q-30 -107 -110 -107q-29 0 -90.5 16.5t-81.5 16.5q-31 0 -52 -35zM91 710l398 -397q34 -35 50 -71l4 1q-11 36 -11 124v333h128v-710h-21l-397 397q-34 34 -51 71l-4 -1q11 -36 11 -124
v-333h-127v710h20z" />
    <glyph glyph-name="Ograve" unicode="&#xd2;" horiz-adv-x="795" 
d="M342 853l98 -107l-1 -3h-84l-147 107l1 3h133zM397 715q160 0 263.5 -103t103.5 -262t-103.5 -262t-263.5 -103t-263 103t-103 262t103 262t263 103zM397 588q-102 0 -166.5 -66.5t-64.5 -171.5t64.5 -171.5t166.5 -66.5q103 0 167.5 66.5t64.5 171.5t-64.5 171.5
t-167.5 66.5z" />
    <glyph glyph-name="Oacute" unicode="&#xd3;" horiz-adv-x="795" 
d="M585 853l1 -3l-147 -107h-84l-1 3l99 107h132zM397 715q160 0 263.5 -103t103.5 -262t-103.5 -262t-263.5 -103t-263 103t-103 262t103 262t263 103zM397 588q-102 0 -166.5 -66.5t-64.5 -171.5t64.5 -171.5t166.5 -66.5q103 0 167.5 66.5t64.5 171.5t-64.5 171.5
t-167.5 66.5z" />
    <glyph glyph-name="Ocircumflex" unicode="&#xd4;" horiz-adv-x="795" 
d="M220 743v4l115 116h123l115 -116v-4h-108l-28 28q-34 34 -38 54h-4q-5 -20 -39 -54l-28 -28h-108zM397 715q160 0 263.5 -103t103.5 -262t-103.5 -262t-263.5 -103t-263 103t-103 262t103 262t263 103zM397 588q-102 0 -166.5 -66.5t-64.5 -171.5t64.5 -171.5
t166.5 -66.5q103 0 167.5 66.5t64.5 171.5t-64.5 171.5t-167.5 66.5z" />
    <glyph glyph-name="Otilde" unicode="&#xd5;" horiz-adv-x="795" 
d="M262 739l-43 15q30 107 111 107q28 0 89.5 -16.5t81.5 -16.5q32 0 52 35l43 -15q-30 -107 -110 -107q-29 0 -90.5 16.5t-81.5 16.5q-31 0 -52 -35zM397 715q160 0 263.5 -103t103.5 -262t-103.5 -262t-263.5 -103t-263 103t-103 262t103 262t263 103zM397 588
q-102 0 -166.5 -66.5t-64.5 -171.5t64.5 -171.5t166.5 -66.5q103 0 167.5 66.5t64.5 171.5t-64.5 171.5t-167.5 66.5z" />
    <glyph glyph-name="Odieresis" unicode="&#xd6;" horiz-adv-x="795" 
d="M253 859h102v-116h-102v116zM439 859h102v-116h-102v116zM397 715q160 0 263.5 -103t103.5 -262t-103.5 -262t-263.5 -103t-263 103t-103 262t103 262t263 103zM397 588q-102 0 -166.5 -66.5t-64.5 -171.5t64.5 -171.5t166.5 -66.5q103 0 167.5 66.5t64.5 171.5
t-64.5 171.5t-167.5 66.5z" />
    <glyph glyph-name="multiply" unicode="&#xd7;" 
d="M478 517l41 -41l-178 -178l178 -178l-41 -41l-178 178l-178 -178l-41 41l178 178l-178 178l41 41l178 -178z" />
    <glyph glyph-name="Oslash" unicode="&#xd8;" horiz-adv-x="795" 
d="M625 643q66 -49 102.5 -125t36.5 -168q0 -159 -103.5 -262t-263.5 -103q-112 0 -200 54l-37 -53l-31 20l38 53q-65 49 -100.5 124.5t-35.5 166.5q0 159 103 262t263 103q111 0 197 -52l36 51l31 -21zM166 350q0 -116 77 -183l276 390q-54 31 -122 31q-102 0 -166.5 -66.5
t-64.5 -171.5zM397 112q103 0 167.5 66.5t64.5 171.5q0 118 -80 185l-276 -390q55 -33 124 -33z" />
    <glyph glyph-name="Ugrave" unicode="&#xd9;" horiz-adv-x="696" 
d="M293 853l98 -107l-1 -3h-84l-147 107l1 3h133zM633 700v-429q0 -133 -76.5 -209t-208.5 -76q-133 0 -209 76t-76 209v429h131v-424q0 -76 42 -119.5t112 -43.5t112 43.5t42 119.5v424h131z" />
    <glyph glyph-name="Uacute" unicode="&#xda;" horiz-adv-x="696" 
d="M536 853l1 -3l-147 -107h-84l-1 3l99 107h132zM633 700v-429q0 -133 -76.5 -209t-208.5 -76q-133 0 -209 76t-76 209v429h131v-424q0 -76 42 -119.5t112 -43.5t112 43.5t42 119.5v424h131z" />
    <glyph glyph-name="Ucircumflex" unicode="&#xdb;" horiz-adv-x="696" 
d="M171 743v4l115 116h123l115 -116v-4h-108l-28 28q-34 34 -38 54h-4q-5 -20 -39 -54l-28 -28h-108zM633 700v-429q0 -133 -76.5 -209t-208.5 -76q-133 0 -209 76t-76 209v429h131v-424q0 -76 42 -119.5t112 -43.5t112 43.5t42 119.5v424h131z" />
    <glyph glyph-name="Udieresis" unicode="&#xdc;" horiz-adv-x="696" 
d="M204 859h102v-116h-102v116zM390 859h102v-116h-102v116zM633 700v-429q0 -133 -76.5 -209t-208.5 -76q-133 0 -209 76t-76 209v429h131v-424q0 -76 42 -119.5t112 -43.5t112 43.5t42 119.5v424h131z" />
    <glyph glyph-name="Yacute" unicode="&#xdd;" horiz-adv-x="612" 
d="M494 853l1 -3l-147 -107h-84l-1 3l99 107h132zM607 700l-237 -435v-265h-128v265l-237 435h152l105 -221q4 -8 11 -23t9 -19l7 -14t6 -14t3.5 -11.5t4 -13t2.5 -13.5h2q6 32 43 108l106 221h151z" />
    <glyph glyph-name="Thorn" unicode="&#xde;" horiz-adv-x="552" 
d="M191 700v-112q0 -21 -2 -26l2 -2q6 3 20 3h91q110 0 170.5 -53.5t60.5 -149.5t-60.5 -149.5t-170.5 -53.5h-91q-14 0 -20 3l-2 -2q2 -5 2 -26v-132h-120v700h120zM191 452l-2 -2q2 -5 2 -23v-134q0 -18 -2 -23l2 -2q6 3 19 3h92q50 0 77.5 23.5t27.5 65.5t-27.5 65.5
t-77.5 23.5h-92q-13 0 -19 3z" />
    <glyph glyph-name="germandbls" unicode="&#xdf;" horiz-adv-x="580" 
d="M352 394q94 -2 147 -47t53 -136q0 -106 -71.5 -161t-200.5 -55h-48v112h39q81 0 118 26t37 83q0 68 -46 95.5t-137 27.5v101q125 0 125 88q0 39 -24 59t-64 20q-46 0 -72.5 -26t-26.5 -79v-632h-122v622q0 102 57 162.5t169 60.5q99 0 152 -45t53 -125q0 -59 -33.5 -98.5
t-104.5 -48.5v-4z" />
    <glyph glyph-name="agrave" unicode="&#xe0;" horiz-adv-x="514" 
d="M217 553l-143 151l1 3h123l104 -151l-1 -3h-84zM253 477q110 0 159 -44t49 -142v-291h-124q0 47 15 82l-4 2q-51 -99 -159 -99q-74 0 -119.5 44.5t-45.5 117.5t45.5 116.5t121.5 43.5q106 0 155 -80l4 2q-8 24 -8 68q-5 74 -102 74q-54 0 -137 -20l-24 103q90 23 174 23z
M238 223q-37 0 -60 -20t-23 -52t22.5 -51.5t59.5 -19.5q38 0 62 20t24 52q0 31 -23.5 51t-61.5 20z" />
    <glyph glyph-name="aacute" unicode="&#xe1;" horiz-adv-x="514" 
d="M438 707l1 -3l-142 -151h-85l-1 3l103 151h124zM253 477q110 0 159 -44t49 -142v-291h-124q0 47 15 82l-4 2q-51 -99 -159 -99q-74 0 -119.5 44.5t-45.5 117.5t45.5 116.5t121.5 43.5q106 0 155 -80l4 2q-8 24 -8 68q-5 74 -102 74q-54 0 -137 -20l-24 103q90 23 174 23z
M238 223q-37 0 -60 -20t-23 -52t22.5 -51.5t59.5 -19.5q38 0 62 20t24 52q0 31 -23.5 51t-61.5 20z" />
    <glyph glyph-name="acircumflex" unicode="&#xe2;" horiz-adv-x="514" 
d="M317 707l113 -151v-3h-100l-35 48q-32 43 -37 69h-2q-5 -26 -37 -69l-35 -48h-100v3l113 151h120zM253 477q110 0 159 -44t49 -142v-291h-124q0 47 15 82l-4 2q-51 -99 -159 -99q-74 0 -119.5 44.5t-45.5 117.5t45.5 116.5t121.5 43.5q106 0 155 -80l4 2q-8 24 -8 68
q-5 74 -102 74q-54 0 -137 -20l-24 103q90 23 174 23zM238 223q-37 0 -60 -20t-23 -52t22.5 -51.5t59.5 -19.5q38 0 62 20t24 52q0 31 -23.5 51t-61.5 20z" />
    <glyph glyph-name="atilde" unicode="&#xe3;" horiz-adv-x="514" 
d="M188 702q32 0 88 -23t73 -23q32 0 53 48l49 -17q-27 -119 -108 -119q-32 0 -88 23.5t-72 23.5q-33 0 -54 -49l-49 17q27 119 108 119zM253 477q110 0 159 -44t49 -142v-291h-124q0 47 15 82l-4 2q-51 -99 -159 -99q-74 0 -119.5 44.5t-45.5 117.5t45.5 116.5t121.5 43.5
q106 0 155 -80l4 2q-8 24 -8 68q-5 74 -102 74q-54 0 -137 -20l-24 103q90 23 174 23zM238 223q-37 0 -60 -20t-23 -52t22.5 -51.5t59.5 -19.5q38 0 62 20t24 52q0 31 -23.5 51t-61.5 20z" />
    <glyph glyph-name="adieresis" unicode="&#xe4;" horiz-adv-x="514" 
d="M216 700v-133h-102v133h102zM401 700v-133h-102v133h102zM253 477q110 0 159 -44t49 -142v-291h-124q0 47 15 82l-4 2q-51 -99 -159 -99q-74 0 -119.5 44.5t-45.5 117.5t45.5 116.5t121.5 43.5q106 0 155 -80l4 2q-8 24 -8 68q-5 74 -102 74q-54 0 -137 -20l-24 103
q90 23 174 23zM238 223q-37 0 -60 -20t-23 -52t22.5 -51.5t59.5 -19.5q38 0 62 20t24 52q0 31 -23.5 51t-61.5 20z" />
    <glyph glyph-name="aring" unicode="&#xe5;" horiz-adv-x="514" 
d="M257 747q52 0 86 -33t34 -84t-34 -84t-86 -33t-85.5 33t-33.5 84t33.5 84t85.5 33zM257 693q-28 0 -45.5 -18t-17.5 -45t17.5 -45t45.5 -18q29 0 46.5 18t17.5 45t-17.5 45t-46.5 18zM253 477q110 0 159 -44t49 -142v-291h-124q0 47 15 82l-4 2q-51 -99 -159 -99
q-74 0 -119.5 44.5t-45.5 117.5t45.5 116.5t121.5 43.5q106 0 155 -80l4 2q-8 24 -8 68q-5 74 -102 74q-54 0 -137 -20l-24 103q90 23 174 23zM238 223q-37 0 -60 -20t-23 -52t22.5 -51.5t59.5 -19.5q38 0 62 20t24 52q0 31 -23.5 51t-61.5 20z" />
    <glyph glyph-name="ae" unicode="&#xe6;" horiz-adv-x="825" 
d="M197 -15q-80 0 -126.5 46t-46.5 119q0 72 46.5 114.5t122.5 42.5q103 0 153 -80l3 2q-6 21 -8 69q-3 73 -104 73q-52 0 -135 -20l-24 103q96 23 174 23q65 0 100 -18.5t54 -62.5h1q58 81 169 81q103 0 163 -65t60 -180v-29h-286q-40 0 -57 9l-2 -3l3 -8q17 -108 130 -108
q77 0 137 55l56 -88q-81 -75 -190 -75q-72 0 -125 31.5t-77 86.5h-3q-22 -54 -72 -86t-116 -32zM457 276q14 9 50 9h110q44 0 57 -8l2 2q-4 47 -31.5 72.5t-74.5 25.5t-77.5 -26.5t-37.5 -72.5zM237 80q38 0 62 20t24 52q0 31 -24 51t-62 20q-37 0 -60 -19.5t-23 -51.5
t23 -52t60 -20z" />
    <glyph glyph-name="ccedilla" unicode="&#xe7;" horiz-adv-x="464" 
d="M445 31q-68 -42 -143 -45l-7 -20q91 -21 91 -73q0 -20 -12 -37t-37 -32.5t-44.5 -25t-53.5 -23.5q-8 -3 -12 -5l-18 39q24 13 33 18.5t22 14t17.5 15t4.5 13.5q0 23 -60 37l29 79q-102 9 -164.5 76t-62.5 169q0 109 71 177.5t184 68.5q88 0 162 -46l-53 -101
q-48 32 -107 32q-58 0 -94.5 -36.5t-36.5 -94.5t36.5 -94.5t94.5 -36.5q59 0 107 32z" />
    <glyph glyph-name="egrave" unicode="&#xe8;" horiz-adv-x="518" 
d="M228 553l-143 151l1 3h123l104 -151l-1 -3h-84zM267 477q105 0 165 -65t60 -180v-29h-286q-42 0 -58 10l-2 -3l4 -11q17 -106 130 -106q77 0 137 55l56 -88q-83 -75 -193 -75q-114 0 -183 66.5t-69 178.5t66 179.5t173 67.5zM263 377q-47 0 -78 -26.5t-37 -72.5l2 -2
q14 9 50 9h109q48 0 57 -8l2 2q-3 47 -31 72.5t-74 25.5z" />
    <glyph glyph-name="eacute" unicode="&#xe9;" horiz-adv-x="518" 
d="M449 707l1 -3l-142 -151h-85l-1 3l103 151h124zM267 477q105 0 165 -65t60 -180v-29h-286q-42 0 -58 10l-2 -3l4 -11q17 -106 130 -106q77 0 137 55l56 -88q-83 -75 -193 -75q-114 0 -183 66.5t-69 178.5t66 179.5t173 67.5zM263 377q-47 0 -78 -26.5t-37 -72.5l2 -2
q14 9 50 9h109q48 0 57 -8l2 2q-3 47 -31 72.5t-74 25.5z" />
    <glyph glyph-name="ecircumflex" unicode="&#xea;" horiz-adv-x="518" 
d="M328 707l113 -151v-3h-100l-35 48q-32 43 -37 69h-2q-5 -26 -37 -69l-35 -48h-100v3l113 151h120zM267 477q105 0 165 -65t60 -180v-29h-286q-42 0 -58 10l-2 -3l4 -11q17 -106 130 -106q77 0 137 55l56 -88q-83 -75 -193 -75q-114 0 -183 66.5t-69 178.5t66 179.5
t173 67.5zM263 377q-47 0 -78 -26.5t-37 -72.5l2 -2q14 9 50 9h109q48 0 57 -8l2 2q-3 47 -31 72.5t-74 25.5z" />
    <glyph glyph-name="edieresis" unicode="&#xeb;" horiz-adv-x="518" 
d="M227 700v-133h-102v133h102zM412 700v-133h-102v133h102zM267 477q105 0 165 -65t60 -180v-29h-286q-42 0 -58 10l-2 -3l4 -11q17 -106 130 -106q77 0 137 55l56 -88q-83 -75 -193 -75q-114 0 -183 66.5t-69 178.5t66 179.5t173 67.5zM263 377q-47 0 -78 -26.5t-37 -72.5
l2 -2q14 9 50 9h109q48 0 57 -8l2 2q-3 47 -31 72.5t-74 25.5z" />
    <glyph glyph-name="igrave" unicode="&#xec;" horiz-adv-x="240" 
d="M-6 707h119l52 -151l-1 -3h-81l-90 151zM181 462v-462h-122v462h122z" />
    <glyph glyph-name="iacute" unicode="&#xed;" horiz-adv-x="240" 
d="M253 707l1 -3l-89 -151h-82l-1 3l53 151h118zM181 462v-462h-122v462h122z" />
    <glyph glyph-name="icircumflex" unicode="&#xee;" horiz-adv-x="240" 
d="M177 707l72 -151v-3h-86l-21 48q-17 36 -21 67h-2q-3 -27 -21 -67l-21 -48h-86v3l72 151h114zM181 462v-462h-122v462h122z" />
    <glyph glyph-name="idieresis" unicode="&#xef;" horiz-adv-x="240" 
d="M99 700v-133h-102v133h102zM244 700v-133h-102v133h102zM181 462v-462h-122v462h122z" />
    <glyph glyph-name="eth" unicode="&#xf0;" horiz-adv-x="578" 
d="M392 639q145 -98 145 -329q0 -161 -71 -243t-191 -82q-113 0 -181 69t-68 179q0 105 65 172t166 67q70 0 116.5 -34.5t63.5 -98.5h4q-6 60 -24 104q-33 85 -107 126l-88 -74l-40 43l68 57q-54 17 -128 22l13 98q124 -11 202 -46l73 62l40 -43zM277 98q58 0 94.5 37
t36.5 97t-36.5 96.5t-96.5 36.5q-59 0 -94 -36t-35 -96q0 -61 36 -98t95 -37z" />
    <glyph glyph-name="ntilde" unicode="&#xf1;" horiz-adv-x="561" 
d="M223 702q32 0 88 -23t73 -23q32 0 53 48l49 -17q-27 -119 -108 -119q-32 0 -88 23.5t-72 23.5q-33 0 -54 -49l-49 17q27 119 108 119zM343 477q79 0 121.5 -46.5t42.5 -133.5v-297h-123v262q0 104 -89 104q-54 0 -84 -36.5t-30 -107.5v-222h-122v462h122q0 -61 -10 -105
l4 -2q49 122 168 122z" />
    <glyph glyph-name="ograve" unicode="&#xf2;" horiz-adv-x="568" 
d="M244 553l-143 151l1 3h123l104 -151l-1 -3h-84zM284 477q111 0 183.5 -69t72.5 -177t-72.5 -177t-183.5 -69t-183.5 69t-72.5 177t72.5 177t183.5 69zM284 361q-58 0 -94 -35.5t-36 -94.5t36 -94.5t94 -35.5t94 35.5t36 94.5t-36 94.5t-94 35.5z" />
    <glyph glyph-name="oacute" unicode="&#xf3;" horiz-adv-x="568" 
d="M465 707l1 -3l-142 -151h-85l-1 3l103 151h124zM284 477q111 0 183.5 -69t72.5 -177t-72.5 -177t-183.5 -69t-183.5 69t-72.5 177t72.5 177t183.5 69zM284 361q-58 0 -94 -35.5t-36 -94.5t36 -94.5t94 -35.5t94 35.5t36 94.5t-36 94.5t-94 35.5z" />
    <glyph glyph-name="ocircumflex" unicode="&#xf4;" horiz-adv-x="568" 
d="M344 707l113 -151v-3h-100l-35 48q-32 43 -37 69h-2q-5 -26 -37 -69l-35 -48h-100v3l113 151h120zM284 477q111 0 183.5 -69t72.5 -177t-72.5 -177t-183.5 -69t-183.5 69t-72.5 177t72.5 177t183.5 69zM284 361q-58 0 -94 -35.5t-36 -94.5t36 -94.5t94 -35.5t94 35.5
t36 94.5t-36 94.5t-94 35.5z" />
    <glyph glyph-name="otilde" unicode="&#xf5;" horiz-adv-x="568" 
d="M215 702q32 0 88 -23t73 -23q32 0 53 48l49 -17q-27 -119 -108 -119q-32 0 -88 23.5t-72 23.5q-33 0 -54 -49l-49 17q27 119 108 119zM284 477q111 0 183.5 -69t72.5 -177t-72.5 -177t-183.5 -69t-183.5 69t-72.5 177t72.5 177t183.5 69zM284 361q-58 0 -94 -35.5
t-36 -94.5t36 -94.5t94 -35.5t94 35.5t36 94.5t-36 94.5t-94 35.5z" />
    <glyph glyph-name="odieresis" unicode="&#xf6;" horiz-adv-x="568" 
d="M243 700v-133h-102v133h102zM428 700v-133h-102v133h102zM284 477q111 0 183.5 -69t72.5 -177t-72.5 -177t-183.5 -69t-183.5 69t-72.5 177t72.5 177t183.5 69zM284 361q-58 0 -94 -35.5t-36 -94.5t36 -94.5t94 -35.5t94 35.5t36 94.5t-36 94.5t-94 35.5z" />
    <glyph glyph-name="divide" unicode="&#xf7;" 
d="M344 505v-91h-88v91h88zM559 326v-55h-518v55h518zM344 184v-92h-88v92h88z" />
    <glyph glyph-name="oslash" unicode="&#xf8;" horiz-adv-x="568" 
d="M465 410q75 -69 75 -179q0 -108 -72.5 -177t-183.5 -69q-89 0 -154 45l-39 -44l-29 23l39 44q-73 70 -73 178t72.5 177t183.5 69q86 0 152 -44l38 44l29 -24zM154 231q0 -52 28 -85l174 197q-33 18 -72 18q-58 0 -94 -35.5t-36 -94.5zM284 101q58 0 94 35.5t36 94.5
q0 52 -30 87l-174 -197q32 -20 74 -20z" />
    <glyph glyph-name="ugrave" unicode="&#xf9;" horiz-adv-x="544" 
d="M231 553l-143 151l1 3h123l104 -151l-1 -3h-84zM488 462v-462h-121q0 55 14 105l-5 1q-47 -121 -161 -121q-75 0 -119.5 49.5t-44.5 139.5v288h126v-257q0 -106 89 -106q46 0 72.5 35t26.5 103v225h123z" />
    <glyph glyph-name="uacute" unicode="&#xfa;" horiz-adv-x="544" 
d="M452 707l1 -3l-142 -151h-85l-1 3l103 151h124zM488 462v-462h-121q0 55 14 105l-5 1q-47 -121 -161 -121q-75 0 -119.5 49.5t-44.5 139.5v288h126v-257q0 -106 89 -106q46 0 72.5 35t26.5 103v225h123z" />
    <glyph glyph-name="ucircumflex" unicode="&#xfb;" horiz-adv-x="544" 
d="M331 707l113 -151v-3h-100l-35 48q-32 43 -37 69h-2q-5 -26 -37 -69l-35 -48h-100v3l113 151h120zM488 462v-462h-121q0 55 14 105l-5 1q-47 -121 -161 -121q-75 0 -119.5 49.5t-44.5 139.5v288h126v-257q0 -106 89 -106q46 0 72.5 35t26.5 103v225h123z" />
    <glyph glyph-name="udieresis" unicode="&#xfc;" horiz-adv-x="544" 
d="M230 700v-133h-102v133h102zM415 700v-133h-102v133h102zM488 462v-462h-121q0 55 14 105l-5 1q-47 -121 -161 -121q-75 0 -119.5 49.5t-44.5 139.5v288h126v-257q0 -106 89 -106q46 0 72.5 35t26.5 103v225h123z" />
    <glyph glyph-name="yacute" unicode="&#xfd;" horiz-adv-x="515" 
d="M441 707l1 -3l-142 -151h-85l-1 3l103 151h124zM510 462l-287 -663h-125l103 234l-195 429h135l92 -220q22 -50 24 -101h4q1 39 18 80l98 241h133z" />
    <glyph glyph-name="thorn" unicode="&#xfe;" horiz-adv-x="590" 
d="M59 -200v900h122v-238q0 -54 -11 -92l4 -2q55 109 172 109q94 0 155.5 -67.5t61.5 -179.5t-61.5 -178.5t-156.5 -66.5q-117 0 -169 106l-4 -2q8 -44 8 -106v-183h-121zM312 98q55 0 89.5 35.5t34.5 96.5q0 62 -34.5 98t-89.5 36q-58 0 -94.5 -37.5t-36.5 -96.5
q0 -57 36.5 -94.5t94.5 -37.5z" />
    <glyph glyph-name="ydieresis" unicode="&#xff;" horiz-adv-x="515" 
d="M219 700v-133h-102v133h102zM404 700v-133h-102v133h102zM510 462l-287 -663h-125l103 234l-195 429h135l92 -220q22 -50 24 -101h4q1 39 18 80l98 241h133z" />
    <glyph glyph-name="Amacron" unicode="&#x100;" horiz-adv-x="713" 
d="M203 833h308v-79h-308v79zM8 0l338 714h21l338 -714h-142l-74 166h-265l-74 -166h-142zM256 264q15 3 51 3h99q36 0 51 -3l1 1q-14 18 -30 52l-46 110q-22 52 -23 76h-4q-3 -25 -24 -76l-46 -110q-13 -31 -30 -52z" />
    <glyph glyph-name="amacron" unicode="&#x101;" horiz-adv-x="514" 
d="M407 674v-83h-299v83h299zM253 477q110 0 159 -44t49 -142v-291h-124q0 47 15 82l-4 2q-51 -99 -159 -99q-74 0 -119.5 44.5t-45.5 117.5t45.5 116.5t121.5 43.5q106 0 155 -80l4 2q-8 24 -8 68q-5 74 -102 74q-54 0 -137 -20l-24 103q90 23 174 23zM238 223
q-37 0 -60 -20t-23 -52t22.5 -51.5t59.5 -19.5q38 0 62 20t24 52q0 31 -23.5 51t-61.5 20z" />
    <glyph glyph-name="Abreve" unicode="&#x102;" horiz-adv-x="713" 
d="M508 857q-2 -55 -43.5 -86.5t-107.5 -31.5q-65 0 -106.5 31.5t-43.5 86.5h86q5 -43 64 -43q60 0 65 43h86zM8 0l338 714h21l338 -714h-142l-74 166h-265l-74 -166h-142zM256 264q15 3 51 3h99q36 0 51 -3l1 1q-14 18 -30 52l-46 110q-22 52 -23 76h-4q-3 -25 -24 -76
l-46 -110q-13 -31 -30 -52z" />
    <glyph glyph-name="abreve" unicode="&#x103;" horiz-adv-x="514" 
d="M408 710q0 -71 -42 -112.5t-109 -41.5q-66 0 -108 41.5t-42 112.5h80q3 -75 70 -75t70 75h81zM253 477q110 0 159 -44t49 -142v-291h-124q0 47 15 82l-4 2q-51 -99 -159 -99q-74 0 -119.5 44.5t-45.5 117.5t45.5 116.5t121.5 43.5q106 0 155 -80l4 2q-8 24 -8 68
q-5 74 -102 74q-54 0 -137 -20l-24 103q90 23 174 23zM238 223q-37 0 -60 -20t-23 -52t22.5 -51.5t59.5 -19.5q38 0 62 20t24 52q0 31 -23.5 51t-61.5 20z" />
    <glyph glyph-name="Aogonek" unicode="&#x104;" horiz-adv-x="713" 
d="M576 -122q16 0 39 5l15 -72q-48 -12 -71 -12q-45 0 -72 20.5t-27 58.5q0 33 24 63.5t74 70.5l-69 154h-265l-74 -166h-142l338 714h21l338 -714h-86q-75 -64 -75 -97q0 -25 32 -25zM457 264l1 1q-14 18 -30 52l-46 110q-22 52 -23 76h-4q-3 -25 -24 -76l-46 -110
q-13 -31 -30 -52l1 -1q15 3 51 3h99q36 0 51 -3z" />
    <glyph glyph-name="aogonek" unicode="&#x105;" horiz-adv-x="514" 
d="M392 0q-75 -64 -75 -97q0 -25 32 -25q16 0 39 5l15 -72q-48 -12 -71 -12q-45 0 -72 20.5t-27 58.5q0 34 25.5 66t78.5 73q3 37 15 65l-4 2q-51 -99 -159 -99q-74 0 -119.5 44.5t-45.5 117.5t45.5 116.5t121.5 43.5q106 0 155 -80l4 2q-8 24 -8 68q-5 74 -102 74
q-54 0 -137 -20l-24 103q90 23 174 23q110 0 159 -44t49 -142v-291h-69zM237 80q38 0 62 20t24 52q0 31 -23.5 51t-61.5 20q-37 0 -60 -20t-23 -52t22.5 -51.5t59.5 -19.5z" />
    <glyph glyph-name="Cacute" unicode="&#x106;" horiz-adv-x="681" 
d="M581 853l1 -3l-147 -107h-84l-1 3l99 107h132zM407 -15q-166 0 -271 102t-105 263t105 263t271 102q142 0 251 -77l-71 -108q-84 58 -180 58q-106 0 -172.5 -66t-66.5 -172t66.5 -172t172.5 -66q96 0 180 58l71 -108q-109 -77 -251 -77z" />
    <glyph glyph-name="cacute" unicode="&#x107;" horiz-adv-x="464" 
d="M449 707l1 -3l-142 -151h-85l-1 3l103 151h124zM283 -15q-113 0 -184 68.5t-71 177.5t71 177.5t184 68.5q88 0 162 -46l-53 -101q-48 32 -107 32q-58 0 -94.5 -36.5t-36.5 -94.5t36.5 -94.5t94.5 -36.5q59 0 107 32l53 -101q-74 -46 -162 -46z" />
    <glyph glyph-name="Ccircumflex" unicode="&#x108;" horiz-adv-x="681" 
d="M216 743v4l115 116h123l115 -116v-4h-108l-28 28q-34 34 -38 54h-4q-5 -20 -39 -54l-28 -28h-108zM407 -15q-166 0 -271 102t-105 263t105 263t271 102q142 0 251 -77l-71 -108q-84 58 -180 58q-106 0 -172.5 -66t-66.5 -172t66.5 -172t172.5 -66q96 0 180 58l71 -108
q-109 -77 -251 -77z" />
    <glyph glyph-name="ccircumflex" unicode="&#x109;" horiz-adv-x="464" 
d="M328 707l113 -151v-3h-100l-35 48q-32 43 -37 69h-2q-5 -26 -37 -69l-35 -48h-100v3l113 151h120zM283 -15q-113 0 -184 68.5t-71 177.5t71 177.5t184 68.5q88 0 162 -46l-53 -101q-48 32 -107 32q-58 0 -94.5 -36.5t-36.5 -94.5t36.5 -94.5t94.5 -36.5q59 0 107 32
l53 -101q-74 -46 -162 -46z" />
    <glyph glyph-name="Cdotaccent" unicode="&#x10a;" horiz-adv-x="681" 
d="M453 864v-121h-120v121h120zM407 -15q-166 0 -271 102t-105 263t105 263t271 102q142 0 251 -77l-71 -108q-84 58 -180 58q-106 0 -172.5 -66t-66.5 -172t66.5 -172t172.5 -66q96 0 180 58l71 -108q-109 -77 -251 -77z" />
    <glyph glyph-name="cdotaccent" unicode="&#x10b;" horiz-adv-x="464" 
d="M336 700v-149h-135v149h135zM283 -15q-113 0 -184 68.5t-71 177.5t71 177.5t184 68.5q88 0 162 -46l-53 -101q-48 32 -107 32q-58 0 -94.5 -36.5t-36.5 -94.5t36.5 -94.5t94.5 -36.5q59 0 107 32l53 -101q-74 -46 -162 -46z" />
    <glyph glyph-name="Ccaron" unicode="&#x10c;" horiz-adv-x="681" 
d="M569 863v-4l-115 -116h-123l-115 116v4h108l28 -28q34 -34 39 -54h4q4 20 38 54l28 28h108zM407 -15q-166 0 -271 102t-105 263t105 263t271 102q142 0 251 -77l-71 -108q-84 58 -180 58q-106 0 -172.5 -66t-66.5 -172t66.5 -172t172.5 -66q96 0 180 58l71 -108
q-109 -77 -251 -77z" />
    <glyph glyph-name="ccaron" unicode="&#x10d;" horiz-adv-x="464" 
d="M211 553l-116 151v3h103l36 -48q32 -44 35 -67h4q3 23 35 67l35 48h104v-3l-116 -151h-120zM283 -15q-113 0 -184 68.5t-71 177.5t71 177.5t184 68.5q88 0 162 -46l-53 -101q-48 32 -107 32q-58 0 -94.5 -36.5t-36.5 -94.5t36.5 -94.5t94.5 -36.5q59 0 107 32l53 -101
q-74 -46 -162 -46z" />
    <glyph glyph-name="Dcaron" unicode="&#x10e;" horiz-adv-x="691" 
d="M464 863v-4l-115 -116h-123l-115 116v4h108l28 -28q34 -34 39 -54h4q4 20 38 54l28 28h108zM294 700q168 0 267 -94.5t99 -255.5t-99 -255.5t-267 -94.5h-223v700h223zM197 588l-2 -2q4 -10 4 -28v-416q0 -18 -4 -28l2 -2q8 5 26 5h77q105 0 164.5 62t59.5 171t-60 171
t-164 62h-77q-18 0 -26 5z" />
    <glyph glyph-name="dcaron" unicode="&#x10f;" horiz-adv-x="731" 
d="M615 730h126l-90 -209h-73zM246 -15q-97 0 -157.5 68t-60.5 178q0 109 60.5 177.5t157.5 68.5q122 0 171 -112l4 1q-11 36 -11 115v234h122v-715h-119q0 60 7 96l-4 1q-22 -54 -66 -83t-104 -29zM282 97q59 0 96 37t37 97t-37 97t-96 37t-92.5 -36t-33.5 -98t33.5 -98
t92.5 -36z" />
    <glyph glyph-name="Dcroat" unicode="&#x110;" horiz-adv-x="703" 
d="M310 700q160 0 261 -94.5t101 -255.5t-101 -255.5t-261 -94.5h-223v277q0 18 4 28l-2 2q-10 -5 -26 -5h-67v104h67q18 0 26 -4l2 2q-4 10 -4 27v269h223zM316 117q99 0 159.5 60.5t60.5 172.5t-61 172.5t-159 60.5h-76q-17 0 -27 5l-2 -2q4 -7 4 -28v-127q0 -20 -4 -27
l2 -2q8 4 27 4h141v-104h-141q-17 0 -27 5l-2 -2q4 -7 4 -28v-135q0 -21 -4 -28l2 -2q10 5 27 5h76z" />
    <glyph glyph-name="dcroat" unicode="&#x111;" horiz-adv-x="591" 
d="M555 633h37v-73h-37q-20 0 -28 4l-1 -1q5 -10 5 -26v-537h-119q0 57 7 96l-4 1q-23 -55 -67.5 -83.5t-102.5 -28.5q-95 0 -156 66.5t-61 179.5q0 112 61.5 179t155.5 67q121 0 171 -112l4 1q-12 45 -12 115v56q0 16 5 26l-1 1q-8 -4 -28 -4h-125v73h125q20 0 28 -4l1 1
q-5 10 -5 26v59h123v-59q0 -16 -5 -26l1 -1q8 4 28 4zM280 98q57 0 93 37.5t36 95.5t-36 95.5t-93 37.5q-55 0 -89 -35.5t-34 -97.5t34 -97.5t89 -35.5z" />
    <glyph glyph-name="Emacron" unicode="&#x112;" horiz-adv-x="529" 
d="M136 833h308v-79h-308v79zM485 700v-117h-262q-16 0 -26 5l-2 -2q4 -10 4 -28v-99q0 -18 -4 -28l2 -2q8 4 26 4h232v-116h-232q-16 0 -26 5l-2 -2q4 -10 4 -28v-150q0 -18 -4 -28l2 -2q10 5 26 5h266v-117h-418v700h414z" />
    <glyph glyph-name="emacron" unicode="&#x113;" horiz-adv-x="518" 
d="M418 674v-83h-299v83h299zM267 477q105 0 165 -65t60 -180v-29h-286q-42 0 -58 10l-2 -3l4 -11q17 -106 130 -106q77 0 137 55l56 -88q-83 -75 -193 -75q-114 0 -183 66.5t-69 178.5t66 179.5t173 67.5zM263 377q-47 0 -78 -26.5t-37 -72.5l2 -2q14 9 50 9h109
q48 0 57 -8l2 2q-3 47 -31 72.5t-74 25.5z" />
    <glyph glyph-name="Ebreve" unicode="&#x114;" horiz-adv-x="529" 
d="M441 857q-2 -55 -43.5 -86.5t-107.5 -31.5q-65 0 -106.5 31.5t-43.5 86.5h86q5 -43 64 -43q60 0 65 43h86zM485 700v-117h-262q-16 0 -26 5l-2 -2q4 -10 4 -28v-99q0 -18 -4 -28l2 -2q8 4 26 4h232v-116h-232q-16 0 -26 5l-2 -2q4 -10 4 -28v-150q0 -18 -4 -28l2 -2
q10 5 26 5h266v-117h-418v700h414z" />
    <glyph glyph-name="ebreve" unicode="&#x115;" horiz-adv-x="518" 
d="M419 710q0 -71 -42 -112.5t-109 -41.5q-66 0 -108 41.5t-42 112.5h80q3 -75 70 -75t70 75h81zM267 477q105 0 165 -65t60 -180v-29h-286q-42 0 -58 10l-2 -3l4 -11q17 -106 130 -106q77 0 137 55l56 -88q-83 -75 -193 -75q-114 0 -183 66.5t-69 178.5t66 179.5t173 67.5z
M263 377q-47 0 -78 -26.5t-37 -72.5l2 -2q14 9 50 9h109q48 0 57 -8l2 2q-3 47 -31 72.5t-74 25.5z" />
    <glyph glyph-name="Edotaccent" unicode="&#x116;" horiz-adv-x="529" 
d="M350 864v-121h-120v121h120zM485 700v-117h-262q-16 0 -26 5l-2 -2q4 -10 4 -28v-99q0 -18 -4 -28l2 -2q8 4 26 4h232v-116h-232q-16 0 -26 5l-2 -2q4 -10 4 -28v-150q0 -18 -4 -28l2 -2q10 5 26 5h266v-117h-418v700h414z" />
    <glyph glyph-name="edotaccent" unicode="&#x117;" horiz-adv-x="518" 
d="M336 700v-149h-135v149h135zM267 477q105 0 165 -65t60 -180v-29h-286q-42 0 -58 10l-2 -3l4 -11q17 -106 130 -106q77 0 137 55l56 -88q-83 -75 -193 -75q-114 0 -183 66.5t-69 178.5t66 179.5t173 67.5zM263 377q-47 0 -78 -26.5t-37 -72.5l2 -2q14 9 50 9h109
q48 0 57 -8l2 2q-3 47 -31 72.5t-74 25.5z" />
    <glyph glyph-name="Eogonek" unicode="&#x118;" horiz-adv-x="529" 
d="M470 0q-75 -64 -75 -97q0 -25 32 -25q16 0 39 5l15 -72q-48 -12 -71 -12q-45 0 -72 20.5t-27 58.5q0 53 84 122h-324v700h414v-117h-262q-16 0 -26 5l-2 -2q4 -10 4 -28v-99q0 -18 -4 -28l2 -2q8 4 26 4h232v-116h-232q-16 0 -26 5l-2 -2q4 -10 4 -28v-150q0 -18 -4 -28
l2 -2q10 5 26 5h266v-117h-19z" />
    <glyph glyph-name="eogonek" unicode="&#x119;" horiz-adv-x="518" 
d="M206 203q-42 0 -58 10l-2 -3l4 -11q17 -106 130 -106q77 0 137 55l56 -88q-33 -30 -72 -49l6 -2q-85 -73 -85 -106q0 -25 32 -25q16 0 39 5l15 -72q-48 -12 -71 -12q-45 0 -72 20.5t-27 58.5q0 49 67 108q-8 -1 -25 -1q-114 0 -183 66.5t-69 178.5t66 179.5t173 67.5
q105 0 165 -65t60 -180v-29h-286zM263 377q-47 0 -78 -26.5t-37 -72.5l2 -2q14 9 50 9h109q48 0 57 -8l2 2q-3 47 -31 72.5t-74 25.5z" />
    <glyph glyph-name="Ecaron" unicode="&#x11a;" horiz-adv-x="529" 
d="M466 863v-4l-115 -116h-123l-115 116v4h108l28 -28q34 -34 39 -54h4q4 20 38 54l28 28h108zM485 700v-117h-262q-16 0 -26 5l-2 -2q4 -10 4 -28v-99q0 -18 -4 -28l2 -2q8 4 26 4h232v-116h-232q-16 0 -26 5l-2 -2q4 -10 4 -28v-150q0 -18 -4 -28l2 -2q10 5 26 5h266v-117
h-418v700h414z" />
    <glyph glyph-name="ecaron" unicode="&#x11b;" horiz-adv-x="518" 
d="M211 553l-116 151v3h103l36 -48q32 -44 35 -67h4q3 23 35 67l35 48h104v-3l-116 -151h-120zM267 477q105 0 165 -65t60 -180v-29h-286q-42 0 -58 10l-2 -3l4 -11q17 -106 130 -106q77 0 137 55l56 -88q-83 -75 -193 -75q-114 0 -183 66.5t-69 178.5t66 179.5t173 67.5z
M263 377q-47 0 -78 -26.5t-37 -72.5l2 -2q14 9 50 9h109q48 0 57 -8l2 2q-3 47 -31 72.5t-74 25.5z" />
    <glyph glyph-name="Gcircumflex" unicode="&#x11c;" horiz-adv-x="774" 
d="M215 743v4l115 116h123l115 -116v-4h-108l-28 28q-34 34 -38 54h-4q-5 -20 -39 -54l-28 -28h-108zM405 715q152 0 269 -91l-79 -105q-83 69 -195 69q-105 0 -169.5 -66.5t-64.5 -170.5q0 -106 65 -172.5t171 -66.5q101 0 156 53.5t59 123.5l-2 2q-14 -10 -65 -10h-149
v113h348v-35q0 -76 -21.5 -143t-63.5 -119t-109.5 -82t-152.5 -30q-163 0 -267 100t-104 264q0 163 103 264.5t271 101.5z" />
    <glyph glyph-name="gcircumflex" unicode="&#x11d;" horiz-adv-x="588" 
d="M344 707l113 -151v-3h-100l-35 48q-32 43 -37 69h-2q-5 -26 -37 -69l-35 -48h-100v3l113 151h120zM246 477q120 0 170 -112l4 1q-11 33 -11 96h123v-432q0 -245 -258 -245q-127 0 -219 56l55 105q77 -46 159 -46q65 0 104 30.5t39 83.5v14q0 36 8 68l-4 1
q-54 -107 -171 -107q-96 0 -156.5 66.5t-60.5 174.5q0 110 61 178t157 68zM279 364q-56 0 -89.5 -36t-33.5 -97t33.5 -97t89.5 -36q57 0 94 37t37 96t-37 96t-94 37z" />
    <glyph glyph-name="Gbreve" unicode="&#x11e;" horiz-adv-x="774" 
d="M543 857q-2 -55 -43.5 -86.5t-107.5 -31.5q-65 0 -106.5 31.5t-43.5 86.5h86q5 -43 64 -43q60 0 65 43h86zM405 715q152 0 269 -91l-79 -105q-83 69 -195 69q-105 0 -169.5 -66.5t-64.5 -170.5q0 -106 65 -172.5t171 -66.5q101 0 156 53.5t59 123.5l-2 2q-14 -10 -65 -10
h-149v113h348v-35q0 -76 -21.5 -143t-63.5 -119t-109.5 -82t-152.5 -30q-163 0 -267 100t-104 264q0 163 103 264.5t271 101.5z" />
    <glyph glyph-name="gbreve" unicode="&#x11f;" horiz-adv-x="588" 
d="M435 710q0 -71 -42 -112.5t-109 -41.5q-66 0 -108 41.5t-42 112.5h80q3 -75 70 -75t70 75h81zM246 477q120 0 170 -112l4 1q-11 33 -11 96h123v-432q0 -245 -258 -245q-127 0 -219 56l55 105q77 -46 159 -46q65 0 104 30.5t39 83.5v14q0 36 8 68l-4 1q-54 -107 -171 -107
q-96 0 -156.5 66.5t-60.5 174.5q0 110 61 178t157 68zM279 364q-56 0 -89.5 -36t-33.5 -97t33.5 -97t89.5 -36q57 0 94 37t37 96t-37 96t-94 37z" />
    <glyph glyph-name="Gdotaccent" unicode="&#x120;" horiz-adv-x="774" 
d="M452 864v-121h-120v121h120zM405 715q152 0 269 -91l-79 -105q-83 69 -195 69q-105 0 -169.5 -66.5t-64.5 -170.5q0 -106 65 -172.5t171 -66.5q101 0 156 53.5t59 123.5l-2 2q-14 -10 -65 -10h-149v113h348v-35q0 -76 -21.5 -143t-63.5 -119t-109.5 -82t-152.5 -30
q-163 0 -267 100t-104 264q0 163 103 264.5t271 101.5z" />
    <glyph glyph-name="gdotaccent" unicode="&#x121;" horiz-adv-x="588" 
d="M352 700v-149h-135v149h135zM246 477q120 0 170 -112l4 1q-11 33 -11 96h123v-432q0 -245 -258 -245q-127 0 -219 56l55 105q77 -46 159 -46q65 0 104 30.5t39 83.5v14q0 36 8 68l-4 1q-54 -107 -171 -107q-96 0 -156.5 66.5t-60.5 174.5q0 110 61 178t157 68zM279 364
q-56 0 -89.5 -36t-33.5 -97t33.5 -97t89.5 -36q57 0 94 37t37 96t-37 96t-94 37z" />
    <glyph glyph-name="Gcommaaccent" unicode="&#x122;" horiz-adv-x="774" 
d="M405 715q152 0 269 -91l-79 -105q-83 69 -195 69q-105 0 -169.5 -66.5t-64.5 -170.5q0 -106 65 -172.5t171 -66.5q101 0 156 53.5t59 123.5l-2 2q-14 -10 -65 -10h-149v113h348v-35q0 -76 -21.5 -143t-63.5 -119t-109.5 -82t-152.5 -30q-163 0 -267 100t-104 264
q0 163 103 264.5t271 101.5zM455 -51l-89 -164h-62l31 164h120z" />
    <glyph glyph-name="gcommaaccent" unicode="&#x123;" horiz-adv-x="588" 
d="M346 553h-131l102 171h64zM246 477q120 0 170 -112l4 1q-11 33 -11 96h123v-432q0 -245 -258 -245q-127 0 -219 56l55 105q77 -46 159 -46q65 0 104 30.5t39 83.5v14q0 36 8 68l-4 1q-54 -107 -171 -107q-96 0 -156.5 66.5t-60.5 174.5q0 110 61 178t157 68zM279 364
q-56 0 -89.5 -36t-33.5 -97t33.5 -97t89.5 -36q57 0 94 37t37 96t-37 96t-94 37z" />
    <glyph glyph-name="Hcircumflex" unicode="&#x124;" horiz-adv-x="724" 
d="M185 743v4l115 116h123l115 -116v-4h-108l-28 28q-34 34 -38 54h-4q-5 -20 -39 -54l-28 -28h-108zM653 700v-700h-128v285q0 21 4 28l-2 2q-10 -5 -27 -5h-277q-16 0 -26 5l-2 -2q4 -10 4 -28v-285h-128v700h128v-245q0 -18 -4 -28l2 -2q8 4 26 4h277q19 0 27 -4l2 2
q-4 7 -4 28v245h128z" />
    <glyph glyph-name="hcircumflex" unicode="&#x125;" horiz-adv-x="561" 
d="M-56 743v4l115 116h123l115 -116v-4h-108l-28 28q-34 34 -38 54h-4q-5 -20 -39 -54l-28 -28h-108zM181 715v-232q0 -67 -10 -121l4 -1q51 116 167 116q78 0 121.5 -47t43.5 -133v-297h-123v262q0 104 -89 104q-53 0 -83.5 -36.5t-30.5 -107.5v-222h-122v715h122z" />
    <glyph glyph-name="Hbar" unicode="&#x126;" horiz-adv-x="711" 
d="M66 0v489q0 18 2 24l-2 1q-8 -2 -20 -2h-50v101h50q14 0 20 -3l2 2q-2 5 -2 23v65h127v-65q0 -18 -2 -23l2 -2q6 3 19 3h287q13 0 19 -3l2 2q-2 5 -2 23v65h127v-65q0 -18 -2 -23l2 -2q6 3 19 3h51v-101h-51q-11 0 -19 2l-2 -1q2 -6 2 -24v-489h-127v284q0 20 4 27l-2 2
q-10 -4 -24 -4h-281q-14 0 -24 4l-2 -2q4 -7 4 -27v-284h-127zM191 425q10 4 24 4h281q14 0 24 -4l2 2q-4 5 -4 24v38q0 12 2 24l-2 1q-8 -2 -19 -2h-287q-11 0 -19 2l-2 -1q2 -12 2 -24v-38q0 -19 -4 -24z" />
    <glyph glyph-name="hbar" unicode="&#x127;" horiz-adv-x="561" 
d="M343 477q76 0 120.5 -45.5t44.5 -134.5v-297h-123v262q0 104 -90 104q-51 0 -82 -35t-31 -109v-222h-123v537q0 16 5 26l-1 1q-8 -4 -28 -4h-36v73h36q20 0 28 -4l1 1q-5 10 -5 26v59h123v-59q0 -16 -5 -26l1 -1q8 4 28 4h126v-73h-126q-20 0 -28 4l-1 -1q5 -10 5 -26
v-54q0 -72 -10 -121l4 -1q50 116 167 116z" />
    <glyph glyph-name="Itilde" unicode="&#x128;" horiz-adv-x="269" 
d="M0 739l-43 15q30 107 111 107q28 0 89.5 -16.5t81.5 -16.5q32 0 52 35l43 -15q-30 -107 -110 -107q-29 0 -90.5 16.5t-81.5 16.5q-31 0 -52 -35zM199 700v-700h-128v700h128z" />
    <glyph glyph-name="itilde" unicode="&#x129;" horiz-adv-x="240" 
d="M72 702q29 0 68 -23t52 -23q26 0 43 48l49 -17q-25 -119 -98 -119q-29 0 -67.5 23.5t-51.5 23.5q-25 0 -44 -49l-49 17q25 119 98 119zM181 462v-462h-122v462h122z" />
    <glyph glyph-name="Imacron" unicode="&#x12a;" horiz-adv-x="269" 
d="M-19 833h308v-79h-308v79zM199 700v-700h-128v700h128z" />
    <glyph glyph-name="imacron" unicode="&#x12b;" horiz-adv-x="240" 
d="M230 674v-83h-219v83h219zM181 462v-462h-122v462h122z" />
    <glyph glyph-name="Ibreve" unicode="&#x12c;" horiz-adv-x="269" 
d="M286 857q-2 -55 -43.5 -86.5t-107.5 -31.5q-65 0 -106.5 31.5t-43.5 86.5h86q5 -43 64 -43q60 0 65 43h86zM199 700v-700h-128v700h128z" />
    <glyph glyph-name="ibreve" unicode="&#x12d;" horiz-adv-x="240" 
d="M249 710q0 -73 -35 -113.5t-94 -40.5t-93.5 40.5t-34.5 113.5h80q1 -77 48 -77q26 0 36.5 18.5t11.5 58.5h81zM181 462v-462h-122v462h122z" />
    <glyph glyph-name="Iogonek" unicode="&#x12e;" horiz-adv-x="269" 
d="M139 0q-75 -64 -75 -97q0 -25 32 -25q16 0 39 5l15 -72q-48 -12 -71 -12q-45 0 -72 20.5t-27 58.5q0 32 22.5 61.5t68.5 66.5v694h128v-700h-60z" />
    <glyph glyph-name="iogonek" unicode="&#x12f;" horiz-adv-x="240" 
d="M53 700h135v-149h-135v149zM59 9v453h122v-462h-57q-75 -64 -75 -97q0 -25 32 -25q16 0 39 5l15 -72q-48 -12 -71 -12q-45 0 -72 20.5t-27 58.5q0 32 23 62t71 69z" />
    <glyph glyph-name="Idotaccent" unicode="&#x130;" horiz-adv-x="269" 
d="M195 864v-121h-120v121h120zM199 700v-700h-128v700h128z" />
    <glyph glyph-name="dotlessi" unicode="&#x131;" horiz-adv-x="240" 
d="M181 462v-462h-122v462h122z" />
    <glyph glyph-name="IJ" unicode="&#x132;" horiz-adv-x="589" 
d="M199 700v-700h-128v700h128zM519 700v-517q0 -97 -41.5 -142.5t-127.5 -45.5q-27 0 -60 4v118q16 -1 45 -1q28 0 42 16.5t14 54.5v513h128z" />
    <glyph glyph-name="ij" unicode="&#x133;" horiz-adv-x="480" 
d="M188 700v-149h-135v149h135zM428 700v-149h-135v149h135zM181 462v-462h-122v462h122zM421 462v-479q0 -198 -195 -198h-11v116h9q75 0 75 86v475h122z" />
    <glyph glyph-name="Jcircumflex" unicode="&#x134;" horiz-adv-x="320" 
d="M9 743v4l115 116h123l115 -116v-4h-108l-28 28q-34 34 -38 54h-4q-5 -20 -39 -54l-28 -28h-108zM250 700v-517q0 -97 -41.5 -142.5t-127.5 -45.5q-27 0 -60 4v118q16 -1 45 -1q28 0 42 16.5t14 54.5v513h128z" />
    <glyph glyph-name="jcircumflex" unicode="&#x135;" horiz-adv-x="240" 
d="M177 707l72 -151v-3h-86l-21 48q-17 36 -21 67h-2q-3 -27 -21 -67l-21 -48h-86v3l72 151h114zM181 462v-479q0 -198 -195 -198h-11v116h9q75 0 75 86v475h122z" />
    <glyph glyph-name="Kcommaaccent" unicode="&#x136;" horiz-adv-x="661" 
d="M618 700l-233 -271q-37 -41 -59 -54v-4q21 -13 53 -51l279 -320h-173l-293 351l-3 -1q10 -43 10 -105v-245h-128v700h128v-206q0 -64 -10 -104l3 -2l256 312h170zM397 -51l-89 -164h-62l31 164h120z" />
    <glyph glyph-name="kcommaaccent" unicode="&#x137;" horiz-adv-x="520" 
d="M181 715v-355q0 -65 -12 -101l3 -1l176 204h153l-161 -172q-29 -31 -48 -38v-4q14 -5 42 -33l186 -215h-159l-189 232l-3 -2q12 -34 12 -96v-134h-122v715h122zM320 -51l-89 -164h-62l31 164h120z" />
    <glyph glyph-name="kgreenlandic" unicode="&#x138;" horiz-adv-x="518" 
d="M59 0v462h122v-102q0 -64 -12 -101l3 -1l168 204h152l-153 -171q-28 -31 -45 -39v-3q17 -8 39 -33l185 -216h-160l-186 232l-3 -2q12 -34 12 -96v-134h-122z" />
    <glyph glyph-name="Lacute" unicode="&#x139;" horiz-adv-x="498" 
d="M323 853l1 -3l-147 -107h-84l-1 3l99 107h132zM199 700v-556q0 -17 -4 -27l2 -2q8 4 26 4h267v-119h-419v700h128z" />
    <glyph glyph-name="lacute" unicode="&#x13a;" horiz-adv-x="240" 
d="M308 854l1 -3l-147 -107h-84l-1 3l99 107h132zM181 715v-715h-122v715h122z" />
    <glyph glyph-name="Lcommaaccent" unicode="&#x13b;" horiz-adv-x="498" 
d="M199 700v-556q0 -17 -4 -27l2 -2q8 4 26 4h267v-119h-419v700h128zM350 -51l-89 -164h-62l31 164h120z" />
    <glyph glyph-name="lcommaaccent" unicode="&#x13c;" horiz-adv-x="240" 
d="M181 715v-715h-122v715h122zM180 -51l-89 -164h-62l31 164h120z" />
    <glyph glyph-name="Lcaron" unicode="&#x13d;" horiz-adv-x="498" 
d="M318 730h126l-90 -262h-72zM199 700v-556q0 -17 -4 -27l2 -2q8 4 26 4h267v-119h-419v700h128z" />
    <glyph glyph-name="lcaron" unicode="&#x13e;" horiz-adv-x="382" 
d="M266 730h125l-89 -209h-73zM181 715v-715h-122v715h122z" />
    <glyph glyph-name="Ldot" unicode="&#x13f;" horiz-adv-x="498" 
d="M199 700v-556q0 -17 -4 -27l2 -2q8 4 26 4h267v-119h-419v700h128zM304 323v149h139v-149h-139z" />
    <glyph glyph-name="ldot" unicode="&#x140;" horiz-adv-x="369" 
d="M181 715v-715h-122v715h122zM227 313v149h139v-149h-139z" />
    <glyph glyph-name="Lslash" unicode="&#x141;" horiz-adv-x="498" 
d="M71 0v240q0 38 7 56l-2 1q-11 -15 -44 -32l-42 -22v83l81 42v332h128v-227q0 -30 -10 -50l2 -1q14 15 44 31l131 68v-83l-167 -86v-208q0 -20 -4 -27l2 -2q8 4 27 4h266v-119h-419z" />
    <glyph glyph-name="lslash" unicode="&#x142;" horiz-adv-x="294" 
d="M83 0v266q0 30 11 50l-2 1q-14 -16 -33 -25l-49 -26v89l73 38v322h123v-209q0 -42 -13 -62l2 -2q15 17 39 30l50 26v-89l-78 -41v-368h-123z" />
    <glyph glyph-name="Nacute" unicode="&#x143;" horiz-adv-x="730" 
d="M556 853l1 -3l-147 -107h-84l-1 3l99 107h132zM91 710l398 -397q34 -35 50 -71l4 1q-11 36 -11 124v333h128v-710h-21l-397 397q-34 34 -51 71l-4 -1q11 -36 11 -124v-333h-127v710h20z" />
    <glyph glyph-name="nacute" unicode="&#x144;" horiz-adv-x="561" 
d="M473 707l1 -3l-142 -151h-85l-1 3l103 151h124zM343 477q79 0 121.5 -46.5t42.5 -133.5v-297h-123v262q0 104 -89 104q-54 0 -84 -36.5t-30 -107.5v-222h-122v462h122q0 -61 -10 -105l4 -2q49 122 168 122z" />
    <glyph glyph-name="Ncommaaccent" unicode="&#x145;" horiz-adv-x="730" 
d="M91 710l398 -397q34 -35 50 -71l4 1q-11 36 -11 124v333h128v-710h-21l-397 397q-34 34 -51 71l-4 -1q11 -36 11 -124v-333h-127v710h20zM457 -51l-89 -164h-62l31 164h120z" />
    <glyph glyph-name="ncommaaccent" unicode="&#x146;" horiz-adv-x="561" 
d="M343 477q79 0 121.5 -46.5t42.5 -133.5v-297h-123v262q0 104 -89 104q-54 0 -84 -36.5t-30 -107.5v-222h-122v462h122q0 -61 -10 -105l4 -2q49 122 168 122zM343 -51l-89 -164h-62l31 164h120z" />
    <glyph glyph-name="Ncaron" unicode="&#x147;" horiz-adv-x="730" 
d="M544 863v-4l-115 -116h-123l-115 116v4h108l28 -28q34 -34 39 -54h4q4 20 38 54l28 28h108zM91 710l398 -397q34 -35 50 -71l4 1q-11 36 -11 124v333h128v-710h-21l-397 397q-34 34 -51 71l-4 -1q11 -36 11 -124v-333h-127v710h20z" />
    <glyph glyph-name="ncaron" unicode="&#x148;" horiz-adv-x="561" 
d="M235 553l-116 151v3h103l36 -48q32 -44 35 -67h4q3 23 35 67l35 48h104v-3l-116 -151h-120zM343 477q79 0 121.5 -46.5t42.5 -133.5v-297h-123v262q0 104 -89 104q-54 0 -84 -36.5t-30 -107.5v-222h-122v462h122q0 -61 -10 -105l4 -2q49 122 168 122z" />
    <glyph glyph-name="napostrophe" unicode="&#x149;" horiz-adv-x="561" 
d="M-18 730h126l-90 -262h-72zM343 477q79 0 121.5 -46.5t42.5 -133.5v-297h-123v262q0 104 -89 104q-54 0 -84 -36.5t-30 -107.5v-222h-122v462h122q0 -61 -10 -105l4 -2q49 122 168 122z" />
    <glyph glyph-name="Eng" unicode="&#x14a;" horiz-adv-x="730" 
d="M532 700h128v-714q0 -186 -191 -186h-52v121h49q35 0 50.5 18t15.5 57v101l-290 290q-34 34 -51 71l-4 -1q11 -36 11 -124v-333h-127v710h20l398 -397q34 -35 50 -71l4 1q-11 36 -11 124v333z" />
    <glyph glyph-name="eng" unicode="&#x14b;" horiz-adv-x="561" 
d="M507 9h1v-29q0 -91 -48 -135.5t-136 -44.5h-50v116h47q64 0 64 72v12h-1v262q0 104 -89 104q-54 0 -84 -36.5t-30 -107.5v-222h-122v462h122q0 -61 -10 -105l4 -2q49 122 168 122q79 0 121.5 -46.5t42.5 -133.5v-288z" />
    <glyph glyph-name="Omacron" unicode="&#x14c;" horiz-adv-x="795" 
d="M243 833h308v-79h-308v79zM397 715q160 0 263.5 -103t103.5 -262t-103.5 -262t-263.5 -103t-263 103t-103 262t103 262t263 103zM397 588q-102 0 -166.5 -66.5t-64.5 -171.5t64.5 -171.5t166.5 -66.5q103 0 167.5 66.5t64.5 171.5t-64.5 171.5t-167.5 66.5z" />
    <glyph glyph-name="omacron" unicode="&#x14d;" horiz-adv-x="568" 
d="M434 674v-83h-299v83h299zM284 477q111 0 183.5 -69t72.5 -177t-72.5 -177t-183.5 -69t-183.5 69t-72.5 177t72.5 177t183.5 69zM284 361q-58 0 -94 -35.5t-36 -94.5t36 -94.5t94 -35.5t94 35.5t36 94.5t-36 94.5t-94 35.5z" />
    <glyph glyph-name="Obreve" unicode="&#x14e;" horiz-adv-x="795" 
d="M548 857q-2 -55 -43.5 -86.5t-107.5 -31.5q-65 0 -106.5 31.5t-43.5 86.5h86q5 -43 64 -43q60 0 65 43h86zM397 715q160 0 263.5 -103t103.5 -262t-103.5 -262t-263.5 -103t-263 103t-103 262t103 262t263 103zM397 588q-102 0 -166.5 -66.5t-64.5 -171.5t64.5 -171.5
t166.5 -66.5q103 0 167.5 66.5t64.5 171.5t-64.5 171.5t-167.5 66.5z" />
    <glyph glyph-name="obreve" unicode="&#x14f;" horiz-adv-x="568" 
d="M435 710q0 -71 -42 -112.5t-109 -41.5q-66 0 -108 41.5t-42 112.5h80q3 -75 70 -75t70 75h81zM284 477q111 0 183.5 -69t72.5 -177t-72.5 -177t-183.5 -69t-183.5 69t-72.5 177t72.5 177t183.5 69zM284 361q-58 0 -94 -35.5t-36 -94.5t36 -94.5t94 -35.5t94 35.5t36 94.5
t-36 94.5t-94 35.5z" />
    <glyph glyph-name="Ohungarumlaut" unicode="&#x150;" horiz-adv-x="795" 
d="M480 853l1 -3l-113 -107h-83v2l104 108h91zM418 745l105 108h90l1 -3l-113 -107h-82zM397 715q160 0 263.5 -103t103.5 -262t-103.5 -262t-263.5 -103t-263 103t-103 262t103 262t263 103zM397 588q-102 0 -166.5 -66.5t-64.5 -171.5t64.5 -171.5t166.5 -66.5
q103 0 167.5 66.5t64.5 171.5t-64.5 171.5t-167.5 66.5z" />
    <glyph glyph-name="ohungarumlaut" unicode="&#x151;" horiz-adv-x="568" 
d="M153 553l-1 2l116 152h97l1 -2l-125 -152h-88zM314 553l-1 2l116 152h96l1 -2l-124 -152h-88zM284 477q111 0 183.5 -69t72.5 -177t-72.5 -177t-183.5 -69t-183.5 69t-72.5 177t72.5 177t183.5 69zM284 361q-58 0 -94 -35.5t-36 -94.5t36 -94.5t94 -35.5t94 35.5t36 94.5
t-36 94.5t-94 35.5z" />
    <glyph glyph-name="OE" unicode="&#x152;" horiz-adv-x="1082" 
d="M390 -15q-155 0 -257 102.5t-102 262.5t102 262.5t257 102.5q156 0 236 -95l2 1q-4 15 -4 47v32h414v-117h-262q-16 0 -26 5l-2 -2q4 -10 4 -29v-98q0 -18 -4 -28l2 -2q8 4 26 4h232v-116h-232q-16 0 -26 5l-2 -2q4 -10 4 -28v-149q0 -19 -4 -29l2 -2q10 5 26 5h266v-117
h-418v36q0 26 4 44l-2 1q-37 -42 -97.5 -69t-138.5 -27zM396 112q102 0 167 65.5t65 172.5t-65 172.5t-167 65.5q-101 0 -165 -65.5t-64 -172.5t64 -172.5t165 -65.5z" />
    <glyph glyph-name="oe" unicode="&#x153;" horiz-adv-x="903" 
d="M281 -15q-109 0 -181 68.5t-72 177.5t72 177.5t182 68.5q127 0 187 -97h4q60 97 183 97q103 0 162.5 -66t59.5 -179v-29h-286q-42 0 -58 8l-2 -2l4 -10q17 -104 132 -104q75 0 134 54l57 -90q-85 -74 -194 -74q-134 0 -193 101h-4q-61 -101 -187 -101zM535 275q15 9 51 9
h109q46 0 58 -8l2 2q-12 101 -109 101q-43 0 -74.5 -25t-38.5 -77zM283 102q54 0 90.5 35.5t36.5 93.5t-36.5 93.5t-90.5 35.5q-55 0 -91 -35t-36 -94t36 -94t91 -35z" />
    <glyph glyph-name="Racute" unicode="&#x154;" horiz-adv-x="626" 
d="M464 853l1 -3l-147 -107h-84l-1 3l99 107h132zM317 700q105 0 165 -52.5t60 -145.5q0 -80 -52 -134.5t-118 -54.5q-17 0 -29 4v-4q37 -11 75 -57l205 -256h-161l-232 302q-10 0 -15 1q-14 1 -20 5l-2 -2q6 -15 6 -39v-267h-128v700h246zM197 590l-2 -2q4 -10 4 -28v-123
q0 -17 -4 -27l2 -2q8 4 26 4h94q44 0 68.5 22.5t24.5 63.5q0 40 -24 64t-69 24h-94q-18 0 -26 4z" />
    <glyph glyph-name="racute" unicode="&#x155;" horiz-adv-x="361" 
d="M380 707l1 -3l-142 -151h-85l-1 3l103 151h124zM324 476q18 0 26 -1v-130q-20 2 -38 2q-131 0 -131 -151v-196h-122v462h119q0 -58 -13 -136l4 -1q35 151 155 151z" />
    <glyph glyph-name="Rcommaaccent" unicode="&#x156;" horiz-adv-x="626" 
d="M317 700q105 0 165 -52.5t60 -145.5q0 -80 -52 -134.5t-118 -54.5q-17 0 -29 4v-4q37 -11 75 -57l205 -256h-161l-232 302q-10 0 -15 1q-14 1 -20 5l-2 -2q6 -15 6 -39v-267h-128v700h246zM197 590l-2 -2q4 -10 4 -28v-123q0 -17 -4 -27l2 -2q8 4 26 4h94q44 0 68.5 22.5
t24.5 63.5q0 40 -24 64t-69 24h-94q-18 0 -26 4zM391 -51l-89 -164h-62l31 164h120z" />
    <glyph glyph-name="rcommaaccent" unicode="&#x157;" horiz-adv-x="361" 
d="M324 476q18 0 26 -1v-130q-20 2 -38 2q-131 0 -131 -151v-196h-122v462h119q0 -58 -13 -136l4 -1q35 151 155 151zM180 -51l-89 -164h-62l31 164h120z" />
    <glyph glyph-name="Rcaron" unicode="&#x158;" horiz-adv-x="626" 
d="M452 863v-4l-115 -116h-123l-115 116v4h108l28 -28q34 -34 39 -54h4q4 20 38 54l28 28h108zM317 700q105 0 165 -52.5t60 -145.5q0 -80 -52 -134.5t-118 -54.5q-17 0 -29 4v-4q37 -11 75 -57l205 -256h-161l-232 302q-10 0 -15 1q-14 1 -20 5l-2 -2q6 -15 6 -39v-267
h-128v700h246zM197 590l-2 -2q4 -10 4 -28v-123q0 -17 -4 -27l2 -2q8 4 26 4h94q44 0 68.5 22.5t24.5 63.5q0 40 -24 64t-69 24h-94q-18 0 -26 4z" />
    <glyph glyph-name="rcaron" unicode="&#x159;" horiz-adv-x="361" 
d="M142 553l-116 151v3h103l36 -48q32 -44 35 -67h4q3 23 35 67l35 48h104v-3l-116 -151h-120zM324 476q18 0 26 -1v-130q-20 2 -38 2q-131 0 -131 -151v-196h-122v462h119q0 -58 -13 -136l4 -1q35 151 155 151z" />
    <glyph glyph-name="Sacute" unicode="&#x15a;" horiz-adv-x="519" 
d="M463 853l1 -3l-147 -107h-84l-1 3l99 107h132zM272 715q100 0 202 -50l-57 -116q-76 43 -146 43q-74 0 -74 -51q0 -20 12 -35.5t42 -37.5l121 -86q63 -44 91 -89t28 -106q0 -97 -63 -149.5t-175 -52.5q-131 0 -240 67l58 117q98 -60 186 -60q48 0 74 19.5t26 51.5
q0 24 -16 45.5t-54 48.5l-114 82q-110 77 -110 182q0 82 55.5 129.5t153.5 47.5z" />
    <glyph glyph-name="sacute" unicode="&#x15b;" horiz-adv-x="420" 
d="M402 707l1 -3l-142 -151h-85l-1 3l103 151h124zM210 -15q-107 0 -196 49l49 102q76 -47 153 -47q59 0 59 34q0 12 -8.5 20.5t-31.5 19.5l-84 38q-103 44 -103 138q0 65 46.5 101.5t130.5 36.5q76 0 164 -33l-41 -100q-71 31 -128 31q-48 0 -48 -29q0 -13 10 -22.5
t36 -21.5l81 -36q53 -23 76.5 -54.5t23.5 -78.5q0 -70 -49.5 -109t-139.5 -39z" />
    <glyph glyph-name="Scircumflex" unicode="&#x15c;" horiz-adv-x="519" 
d="M98 743v4l115 116h123l115 -116v-4h-108l-28 28q-34 34 -38 54h-4q-5 -20 -39 -54l-28 -28h-108zM272 715q100 0 202 -50l-57 -116q-76 43 -146 43q-74 0 -74 -51q0 -20 12 -35.5t42 -37.5l121 -86q63 -44 91 -89t28 -106q0 -97 -63 -149.5t-175 -52.5q-131 0 -240 67
l58 117q98 -60 186 -60q48 0 74 19.5t26 51.5q0 24 -16 45.5t-54 48.5l-114 82q-110 77 -110 182q0 82 55.5 129.5t153.5 47.5z" />
    <glyph glyph-name="scircumflex" unicode="&#x15d;" horiz-adv-x="420" 
d="M281 707l113 -151v-3h-100l-35 48q-32 43 -37 69h-2q-5 -26 -37 -69l-35 -48h-100v3l113 151h120zM210 -15q-107 0 -196 49l49 102q76 -47 153 -47q59 0 59 34q0 12 -8.5 20.5t-31.5 19.5l-84 38q-103 44 -103 138q0 65 46.5 101.5t130.5 36.5q76 0 164 -33l-41 -100
q-71 31 -128 31q-48 0 -48 -29q0 -13 10 -22.5t36 -21.5l81 -36q53 -23 76.5 -54.5t23.5 -78.5q0 -70 -49.5 -109t-139.5 -39z" />
    <glyph glyph-name="Scedilla" unicode="&#x15e;" horiz-adv-x="519" 
d="M491 187q0 -92 -56.5 -144t-157.5 -57l-7 -20q91 -21 91 -73q0 -20 -12 -37t-37 -32.5t-44.5 -25t-53.5 -23.5q-8 -3 -12 -5l-18 39q24 13 33 18.5t22 14t17.5 15t4.5 13.5q0 23 -60 37l28 79q-117 6 -216 66l58 117q98 -60 186 -60q48 0 74 19.5t26 51.5q0 24 -16 45.5
t-54 48.5l-114 82q-110 77 -110 182q0 82 55.5 129.5t153.5 47.5q100 0 202 -50l-57 -116q-76 43 -146 43q-74 0 -74 -51q0 -20 12 -35.5t42 -37.5l121 -86q63 -44 91 -89t28 -106z" />
    <glyph glyph-name="scedilla" unicode="&#x15f;" horiz-adv-x="420" 
d="M399 133q0 -65 -42.5 -103.5t-120.5 -43.5l-7 -20q91 -21 91 -73q0 -20 -12 -37t-37 -32.5t-44.5 -25t-53.5 -23.5q-8 -3 -12 -5l-18 39q24 13 33 18.5t22 14t17.5 15t4.5 13.5q0 23 -60 37l28 79q-97 5 -174 48l49 102q76 -47 153 -47q59 0 59 34q0 12 -8.5 20.5
t-31.5 19.5l-84 38q-103 44 -103 138q0 65 46.5 101.5t130.5 36.5q76 0 164 -33l-41 -100q-71 31 -128 31q-48 0 -48 -29q0 -13 10 -22.5t36 -21.5l81 -36q53 -23 76.5 -54.5t23.5 -78.5z" />
    <glyph glyph-name="Scaron" unicode="&#x160;" horiz-adv-x="519" 
d="M451 863v-4l-115 -116h-123l-115 116v4h108l28 -28q34 -34 39 -54h4q4 20 38 54l28 28h108zM272 715q100 0 202 -50l-57 -116q-76 43 -146 43q-74 0 -74 -51q0 -20 12 -35.5t42 -37.5l121 -86q63 -44 91 -89t28 -106q0 -97 -63 -149.5t-175 -52.5q-131 0 -240 67l58 117
q98 -60 186 -60q48 0 74 19.5t26 51.5q0 24 -16 45.5t-54 48.5l-114 82q-110 77 -110 182q0 82 55.5 129.5t153.5 47.5z" />
    <glyph glyph-name="scaron" unicode="&#x161;" horiz-adv-x="420" 
d="M164 553l-116 151v3h103l36 -48q32 -44 35 -67h4q3 23 35 67l35 48h104v-3l-116 -151h-120zM210 -15q-107 0 -196 49l49 102q76 -47 153 -47q59 0 59 34q0 12 -8.5 20.5t-31.5 19.5l-84 38q-103 44 -103 138q0 65 46.5 101.5t130.5 36.5q76 0 164 -33l-41 -100
q-71 31 -128 31q-48 0 -48 -29q0 -13 10 -22.5t36 -21.5l81 -36q53 -23 76.5 -54.5t23.5 -78.5q0 -70 -49.5 -109t-139.5 -39z" />
    <glyph glyph-name="uni0162" unicode="&#x162;" horiz-adv-x="530" 
d="M354 581q-18 0 -26 4l-2 -2q3 -7 3 -27v-556h-40l-12 -34q91 -21 91 -73q0 -20 -12 -37t-37 -32.5t-44.5 -25t-53.5 -23.5q-8 -3 -12 -5l-18 39q24 13 33 18.5t22 14t17.5 15t4.5 13.5q0 23 -60 37l33 93h-40v556q0 17 4 27l-2 2q-9 -4 -26 -4h-169v119h514v-119h-168z
" />
    <glyph glyph-name="uni0163" unicode="&#x163;" horiz-adv-x="329" 
d="M262 353q-32 0 -42 7l-3 -2q5 -15 5 -56v-302h-37l-12 -34q91 -21 91 -73q0 -20 -12 -37t-37 -32.5t-44.5 -25t-53.5 -23.5q-8 -3 -12 -5l-18 39q24 13 33 18.5t22 14t17.5 15t4.5 13.5q0 23 -60 37l33 93h-38v302q0 41 6 56l-3 2q-10 -7 -43 -7h-40v109h40q33 0 43 -8
l3 2q-6 16 -6 47v127l113 79h10v-206q0 -31 -5 -47l3 -2q10 8 42 8h49v-109h-49z" />
    <glyph glyph-name="Tcaron" unicode="&#x164;" horiz-adv-x="530" 
d="M442 863v-4l-115 -116h-123l-115 116v4h108l28 -28q34 -34 39 -54h4q4 20 38 54l28 28h108zM522 700v-119h-168q-18 0 -26 4l-2 -2q3 -7 3 -27v-556h-128v556q0 17 4 27l-2 2q-9 -4 -26 -4h-169v119h514z" />
    <glyph glyph-name="tcaron" unicode="&#x165;" horiz-adv-x="451" 
d="M324 730h126l-90 -209h-72zM222 709v-206q0 -31 -5 -47l3 -2q10 8 42 8h49v-109h-49q-32 0 -42 7l-3 -2q5 -15 5 -56v-302h-123v302q0 41 6 56l-3 2q-10 -7 -43 -7h-40v109h40q33 0 43 -8l3 2q-6 16 -6 47v127l113 79h10z" />
    <glyph glyph-name="Tbar" unicode="&#x166;" horiz-adv-x="531" 
d="M353 580q-18 0 -26 4l-2 -2q4 -7 4 -27v-70q0 -19 -2 -24l2 -2q6 3 19 3h109v-101h-109q-13 0 -19 3l-2 -2q2 -5 2 -24v-338h-127v338q0 19 2 24l-2 2q-6 -3 -19 -3h-109v101h109q13 0 19 -3l2 2q-2 5 -2 24v70q0 17 4 27l-2 2q-8 -4 -26 -4h-170v120h515v-120h-170z" />
    <glyph glyph-name="tbar" unicode="&#x167;" horiz-adv-x="329" 
d="M99 0v185q0 26 4 33l-2 2q-6 -4 -30 -4h-49v73h49q21 0 30 -4l2 2q-4 8 -4 27v13q0 17 7 32l-3 2q-11 -8 -44 -8h-40v109h40q33 0 44 -8l3 2q-7 16 -7 48v126l113 79h10v-205q0 -32 -6 -48l3 -2q11 8 43 8h49v-109h-49q-32 0 -43 8l-3 -2q6 -13 6 -32v-13q0 -21 -3 -27
l2 -2q9 4 30 4h54v-73h-54q-24 0 -30 4l-2 -2q3 -7 3 -33v-185h-123z" />
    <glyph glyph-name="Utilde" unicode="&#x168;" horiz-adv-x="696" 
d="M213 739l-43 15q30 107 111 107q28 0 89.5 -16.5t81.5 -16.5q32 0 52 35l43 -15q-30 -107 -110 -107q-29 0 -90.5 16.5t-81.5 16.5q-31 0 -52 -35zM633 700v-429q0 -133 -76.5 -209t-208.5 -76q-133 0 -209 76t-76 209v429h131v-424q0 -76 42 -119.5t112 -43.5t112 43.5
t42 119.5v424h131z" />
    <glyph glyph-name="utilde" unicode="&#x169;" horiz-adv-x="544" 
d="M202 702q32 0 88 -23t73 -23q32 0 53 48l49 -17q-27 -119 -108 -119q-32 0 -88 23.5t-72 23.5q-33 0 -54 -49l-49 17q27 119 108 119zM488 462v-462h-121q0 55 14 105l-5 1q-47 -121 -161 -121q-75 0 -119.5 49.5t-44.5 139.5v288h126v-257q0 -106 89 -106q46 0 72.5 35
t26.5 103v225h123z" />
    <glyph glyph-name="Umacron" unicode="&#x16a;" horiz-adv-x="696" 
d="M194 833h308v-79h-308v79zM633 700v-429q0 -133 -76.5 -209t-208.5 -76q-133 0 -209 76t-76 209v429h131v-424q0 -76 42 -119.5t112 -43.5t112 43.5t42 119.5v424h131z" />
    <glyph glyph-name="umacron" unicode="&#x16b;" horiz-adv-x="544" 
d="M421 674v-83h-299v83h299zM488 462v-462h-121q0 55 14 105l-5 1q-47 -121 -161 -121q-75 0 -119.5 49.5t-44.5 139.5v288h126v-257q0 -106 89 -106q46 0 72.5 35t26.5 103v225h123z" />
    <glyph glyph-name="Ubreve" unicode="&#x16c;" horiz-adv-x="696" 
d="M499 857q-2 -55 -43.5 -86.5t-107.5 -31.5q-65 0 -106.5 31.5t-43.5 86.5h86q5 -43 64 -43q60 0 65 43h86zM633 700v-429q0 -133 -76.5 -209t-208.5 -76q-133 0 -209 76t-76 209v429h131v-424q0 -76 42 -119.5t112 -43.5t112 43.5t42 119.5v424h131z" />
    <glyph glyph-name="ubreve" unicode="&#x16d;" horiz-adv-x="544" 
d="M422 710q0 -71 -42 -112.5t-109 -41.5q-66 0 -108 41.5t-42 112.5h80q3 -75 70 -75t70 75h81zM488 462v-462h-121q0 55 14 105l-5 1q-47 -121 -161 -121q-75 0 -119.5 49.5t-44.5 139.5v288h126v-257q0 -106 89 -106q46 0 72.5 35t26.5 103v225h123z" />
    <glyph glyph-name="Uring" unicode="&#x16e;" horiz-adv-x="696" 
d="M348 662q-52 0 -85.5 33t-33.5 83q0 51 33.5 83.5t85.5 32.5t85.5 -32.5t33.5 -83.5q0 -50 -33.5 -83t-85.5 -33zM348 717q28 0 45 17.5t17 43.5t-17 43.5t-45 17.5t-45 -17.5t-17 -43.5t17 -43.5t45 -17.5zM633 700v-429q0 -133 -76.5 -209t-208.5 -76q-133 0 -209 76
t-76 209v429h131v-424q0 -76 42 -119.5t112 -43.5t112 43.5t42 119.5v424h131z" />
    <glyph glyph-name="uring" unicode="&#x16f;" horiz-adv-x="544" 
d="M271 747q52 0 86 -33t34 -84t-34 -84t-86 -33t-85.5 33t-33.5 84t33.5 84t85.5 33zM271 693q-28 0 -45.5 -18t-17.5 -45t17.5 -45t45.5 -18q29 0 46.5 18t17.5 45t-17.5 45t-46.5 18zM488 462v-462h-121q0 55 14 105l-5 1q-47 -121 -161 -121q-75 0 -119.5 49.5
t-44.5 139.5v288h126v-257q0 -106 89 -106q46 0 72.5 35t26.5 103v225h123z" />
    <glyph glyph-name="Uhungarumlaut" unicode="&#x170;" horiz-adv-x="696" 
d="M431 853l1 -3l-113 -107h-83v2l104 108h91zM369 745l105 108h90l1 -3l-113 -107h-82zM633 700v-429q0 -133 -76.5 -209t-208.5 -76q-133 0 -209 76t-76 209v429h131v-424q0 -76 42 -119.5t112 -43.5t112 43.5t42 119.5v424h131z" />
    <glyph glyph-name="uhungarumlaut" unicode="&#x171;" horiz-adv-x="544" 
d="M140 553l-1 2l116 152h97l1 -2l-125 -152h-88zM301 553l-1 2l116 152h96l1 -2l-124 -152h-88zM488 462v-462h-121q0 55 14 105l-5 1q-47 -121 -161 -121q-75 0 -119.5 49.5t-44.5 139.5v288h126v-257q0 -106 89 -106q46 0 72.5 35t26.5 103v225h123z" />
    <glyph glyph-name="Uogonek" unicode="&#x172;" horiz-adv-x="696" 
d="M502 700h131v-429q0 -99 -43 -167t-121 -98q-82 -70 -82 -103q0 -25 32 -25q16 0 39 5l15 -72q-48 -12 -71 -12q-45 0 -72 20.5t-27 58.5q0 50 68 109q-8 -1 -23 -1q-133 0 -209 76t-76 209v429h131v-424q0 -76 42 -119.5t112 -43.5t112 43.5t42 119.5v424z" />
    <glyph glyph-name="uogonek" unicode="&#x173;" horiz-adv-x="544" 
d="M422 0q-75 -64 -75 -97q0 -25 32 -25q16 0 39 5l15 -72q-48 -12 -71 -12q-45 0 -72 20.5t-27 58.5q0 34 25.5 66t78.5 73q3 52 14 88l-5 1q-47 -121 -161 -121q-75 0 -119.5 49.5t-44.5 139.5v288h126v-257q0 -106 89 -106q46 0 72.5 35t26.5 103v225h123v-462h-66z" />
    <glyph glyph-name="Wcircumflex" unicode="&#x174;" horiz-adv-x="974" 
d="M310 743v4l115 116h123l115 -116v-4h-108l-28 28q-34 34 -38 54h-4q-5 -20 -39 -54l-28 -28h-108zM496 710l142 -351q27 -67 32 -111h4q4 44 28 112l118 340h146l-280 -709h-22l-154 374q-17 39 -21 82h-4q-4 -42 -20 -82l-155 -374h-22l-280 709h146l119 -340
q23 -70 28 -112h4q4 43 31 111l142 351h18z" />
    <glyph glyph-name="wcircumflex" unicode="&#x175;" horiz-adv-x="738" 
d="M429 707l113 -151v-3h-100l-35 48q-32 43 -37 69h-2q-5 -26 -37 -69l-35 -48h-100v3l113 151h120zM210 -7l-204 469h135l67 -176q21 -56 25 -87h4q4 28 32 88l84 183h31l85 -183q28 -60 32 -88h4q3 27 25 87l66 176h136l-204 -469h-33l-94 199q-26 55 -30 81h-4
q-4 -26 -30 -81l-94 -199h-33z" />
    <glyph glyph-name="Ycircumflex" unicode="&#x176;" horiz-adv-x="612" 
d="M129 743v4l115 116h123l115 -116v-4h-108l-28 28q-34 34 -38 54h-4q-5 -20 -39 -54l-28 -28h-108zM607 700l-237 -435v-265h-128v265l-237 435h152l105 -221q4 -8 11 -23t9 -19l7 -14t6 -14t3.5 -11.5t4 -13t2.5 -13.5h2q6 32 43 108l106 221h151z" />
    <glyph glyph-name="ycircumflex" unicode="&#x177;" horiz-adv-x="515" 
d="M320 707l113 -151v-3h-100l-35 48q-32 43 -37 69h-2q-5 -26 -37 -69l-35 -48h-100v3l113 151h120zM510 462l-287 -663h-125l103 234l-195 429h135l92 -220q22 -50 24 -101h4q1 39 18 80l98 241h133z" />
    <glyph glyph-name="Ydieresis" unicode="&#x178;" horiz-adv-x="612" 
d="M162 859h102v-116h-102v116zM348 859h102v-116h-102v116zM607 700l-237 -435v-265h-128v265l-237 435h152l105 -221q4 -8 11 -23t9 -19l7 -14t6 -14t3.5 -11.5t4 -13t2.5 -13.5h2q6 32 43 108l106 221h151z" />
    <glyph glyph-name="Zacute" unicode="&#x179;" horiz-adv-x="619" 
d="M524 853l1 -3l-147 -107h-84l-1 3l99 107h132zM604 700l2 -5l-387 -589l3 -2q26 18 81 18h304l-64 -122h-533l-2 5l389 589l-2 2q-28 -18 -89 -18h-255l62 122h491z" />
    <glyph glyph-name="zacute" unicode="&#x17a;" horiz-adv-x="476" 
d="M449 707l1 -3l-142 -151h-85l-1 3l103 151h124zM3 0l-2 5l278 365l-3 3q-33 -19 -90 -19h-150l64 108h371l2 -4l-272 -365l2 -3q29 18 102 18h165l-66 -108h-401z" />
    <glyph glyph-name="Zdotaccent" unicode="&#x17b;" horiz-adv-x="619" 
d="M396 864v-121h-120v121h120zM604 700l2 -5l-387 -589l3 -2q26 18 81 18h304l-64 -122h-533l-2 5l389 589l-2 2q-28 -18 -89 -18h-255l62 122h491z" />
    <glyph glyph-name="zdotaccent" unicode="&#x17c;" horiz-adv-x="476" 
d="M336 700v-149h-135v149h135zM3 0l-2 5l278 365l-3 3q-33 -19 -90 -19h-150l64 108h371l2 -4l-272 -365l2 -3q29 18 102 18h165l-66 -108h-401z" />
    <glyph glyph-name="Zcaron" unicode="&#x17d;" horiz-adv-x="619" 
d="M512 863v-4l-115 -116h-123l-115 116v4h108l28 -28q34 -34 39 -54h4q4 20 38 54l28 28h108zM604 700l2 -5l-387 -589l3 -2q26 18 81 18h304l-64 -122h-533l-2 5l389 589l-2 2q-28 -18 -89 -18h-255l62 122h491z" />
    <glyph glyph-name="zcaron" unicode="&#x17e;" horiz-adv-x="476" 
d="M211 553l-116 151v3h103l36 -48q32 -44 35 -67h4q3 23 35 67l35 48h104v-3l-116 -151h-120zM3 0l-2 5l278 365l-3 3q-33 -19 -90 -19h-150l64 108h371l2 -4l-272 -365l2 -3q29 18 102 18h165l-66 -108h-401z" />
    <glyph glyph-name="uni018F" unicode="&#x18f;" horiz-adv-x="763" 
d="M368 715q166 0 265 -95.5t99 -267.5q0 -168 -95.5 -267.5t-261.5 -99.5q-164 0 -254 97.5t-90 267.5v60h521q26 0 46 -8l2 3q-6 10 -14 37q-42 146 -224 146q-116 0 -218 -72l-65 110q125 89 289 89zM596 301q-14 -5 -47 -5h-335q-38 0 -50 5l-3 -2q8 -11 11 -32
q10 -67 62 -112.5t145 -45.5q170 0 208 156q8 26 11 34z" />
    <glyph glyph-name="florin" unicode="&#x192;" horiz-adv-x="382" 
d="M321 684q19 0 46 -3v-109q-30 2 -39 2q-83 0 -83 -79v-8q0 -19 -2 -27l1 -1q11 3 29 3h92v-30h-92q-11 0 -29 3l-1 -1q2 -34 2 -50v-386q0 -104 -48.5 -151.5t-124.5 -47.5q-20 0 -55 3v109q16 -2 45 -2q64 0 64 80v395q0 16 2 50l-1 1q-15 -3 -30 -3h-77v30h77
q23 0 30 -3l1 1q-2 16 -2 24v5q0 102 54.5 148.5t140.5 46.5z" />
    <glyph glyph-name="uni01E5" unicode="&#x1e5;" horiz-adv-x="588" 
d="M578 -35v-25h-57q-42 -155 -247 -155q-127 0 -219 56l55 105q77 -46 159 -46q77 0 115 40h-149v25h166q11 22 11 49v14q0 36 8 68l-4 1q-54 -107 -171 -107q-96 0 -156.5 66.5t-60.5 174.5q0 110 61 178t157 68q120 0 170 -112l4 1q-11 33 -11 96h123v-432q0 -32 -5 -65
h51zM279 98q57 0 94 37t37 96t-37 96t-94 37q-56 0 -89.5 -36t-33.5 -97t33.5 -97t89.5 -36z" />
    <glyph glyph-name="uni01E9" unicode="&#x1e9;" horiz-adv-x="520" 
d="M415 863v-4l-115 -116h-123l-115 116v4h108l28 -28q34 -34 39 -54h4q4 20 38 54l28 28h108zM181 715v-355q0 -65 -12 -101l3 -1l176 204h153l-161 -172q-29 -31 -48 -38v-4q14 -5 42 -33l186 -215h-159l-189 232l-3 -2q12 -34 12 -96v-134h-122v715h122z" />
    <glyph glyph-name="AEacute" unicode="&#x1fc;" horiz-adv-x="941" 
d="M729 743h-84l-1 3l99 107h132l1 -3zM663 117h238v-117h-382v140q0 18 4 28l-2 2q-8 -4 -26 -4h-228l-105 -166h-154l465 700h424v-117h-234q-18 0 -26 4l-2 -2q4 -10 4 -28v-98q0 -18 -4 -28l2 -2q8 4 26 4h209v-116h-209q-18 0 -26 4l-2 -2q4 -10 4 -28v-148
q0 -18 -4 -28l2 -2q8 4 26 4zM523 265q-4 10 -4 28v223q0 39 7 78h-2q-16 -44 -36 -77l-133 -211q-18 -30 -39 -43l1 -2q19 6 54 6h124q19 0 26 -4z" />
    <glyph glyph-name="aeacute" unicode="&#x1fd;" horiz-adv-x="825" 
d="M602 707l1 -3l-142 -151h-85l-1 3l103 151h124zM197 -15q-80 0 -126.5 46t-46.5 119q0 72 46.5 114.5t122.5 42.5q103 0 153 -80l3 2q-6 21 -8 69q-3 73 -104 73q-52 0 -135 -20l-24 103q96 23 174 23q65 0 100 -18.5t54 -62.5h1q58 81 169 81q103 0 163 -65t60 -180v-29
h-286q-40 0 -57 9l-2 -3l3 -8q17 -108 130 -108q77 0 137 55l56 -88q-81 -75 -190 -75q-72 0 -125 31.5t-77 86.5h-3q-22 -54 -72 -86t-116 -32zM457 276q14 9 50 9h110q44 0 57 -8l2 2q-4 47 -31.5 72.5t-74.5 25.5t-77.5 -26.5t-37.5 -72.5zM237 80q38 0 62 20t24 52
q0 31 -24 51t-62 20q-37 0 -60 -19.5t-23 -51.5t23 -52t60 -20z" />
    <glyph glyph-name="Oslashacute" unicode="&#x1fe;" horiz-adv-x="795" 
d="M437 743h-84l-1 3l99 107h132l1 -3zM625 643q66 -49 102.5 -125t36.5 -168q0 -159 -103.5 -262t-263.5 -103q-112 0 -200 54l-37 -53l-31 20l38 53q-65 49 -100.5 124.5t-35.5 166.5q0 159 103 262t263 103q111 0 197 -52l36 51l31 -21zM166 350q0 -116 77 -183l276 390
q-54 31 -122 31q-102 0 -166.5 -66.5t-64.5 -171.5zM397 112q103 0 167.5 66.5t64.5 171.5q0 118 -80 185l-276 -390q55 -33 124 -33z" />
    <glyph glyph-name="oslashacute" unicode="&#x1ff;" horiz-adv-x="568" 
d="M323 553h-85l-1 3l103 151h124l1 -3zM465 410q75 -69 75 -179q0 -108 -72.5 -177t-183.5 -69q-89 0 -154 45l-39 -44l-29 23l39 44q-73 70 -73 178t72.5 177t183.5 69q86 0 152 -44l38 44l29 -24zM154 231q0 -52 28 -85l174 197q-33 18 -72 18q-58 0 -94 -35.5t-36 -94.5
zM284 101q58 0 94 35.5t36 94.5q0 52 -30 87l-174 -197q32 -20 74 -20z" />
    <glyph glyph-name="Scommaaccent" unicode="&#x218;" horiz-adv-x="519" 
d="M272 715q100 0 202 -50l-57 -116q-76 43 -146 43q-74 0 -74 -51q0 -20 12 -35.5t42 -37.5l121 -86q63 -44 91 -89t28 -106q0 -97 -63 -149.5t-175 -52.5q-131 0 -240 67l58 117q98 -60 186 -60q48 0 74 19.5t26 51.5q0 24 -16 45.5t-54 48.5l-114 82q-110 77 -110 182
q0 82 55.5 129.5t153.5 47.5zM318 -51l-89 -164h-62l31 164h120z" />
    <glyph glyph-name="scommaaccent" unicode="&#x219;" horiz-adv-x="420" 
d="M210 -15q-107 0 -196 49l49 102q76 -47 153 -47q59 0 59 34q0 12 -8.5 20.5t-31.5 19.5l-84 38q-103 44 -103 138q0 65 46.5 101.5t130.5 36.5q76 0 164 -33l-41 -100q-71 31 -128 31q-48 0 -48 -29q0 -13 10 -22.5t36 -21.5l81 -36q53 -23 76.5 -54.5t23.5 -78.5
q0 -70 -49.5 -109t-139.5 -39zM277 -51l-89 -164h-62l31 164h120z" />
    <glyph glyph-name="uni021A" unicode="&#x21a;" horiz-adv-x="530" 
d="M522 700v-119h-168q-18 0 -26 4l-2 -2q3 -7 3 -27v-556h-128v556q0 17 4 27l-2 2q-9 -4 -26 -4h-169v119h514zM325 -51l-89 -164h-62l31 164h120z" />
    <glyph glyph-name="uni021B" unicode="&#x21b;" horiz-adv-x="329" 
d="M222 709v-206q0 -31 -5 -47l3 -2q10 8 42 8h49v-109h-49q-32 0 -42 7l-3 -2q5 -15 5 -56v-302h-123v302q0 41 6 56l-3 2q-10 -7 -43 -7h-40v109h40q33 0 43 -8l3 2q-6 16 -6 47v127l113 79h10zM221 -51l-89 -164h-62l31 164h120z" />
    <glyph glyph-name="uni0232" unicode="&#x232;" horiz-adv-x="612" 
d="M152 833h308v-79h-308v79zM607 700l-237 -435v-265h-128v265l-237 435h152l105 -221q4 -8 11 -23t9 -19l7 -14t6 -14t3.5 -11.5t4 -13t2.5 -13.5h2q6 32 43 108l106 221h151z" />
    <glyph glyph-name="uni0233" unicode="&#x233;" horiz-adv-x="515" 
d="M410 674v-83h-299v83h299zM510 462l-287 -663h-125l103 234l-195 429h135l92 -220q22 -50 24 -101h4q1 39 18 80l98 241h133z" />
    <glyph glyph-name="uni0237" unicode="&#x237;" horiz-adv-x="240" 
d="M181 462v-479q0 -198 -195 -198h-11v116h9q75 0 75 86v475h122z" />
    <glyph glyph-name="uni0259" unicode="&#x259;" horiz-adv-x="518" 
d="M251 -15q-105 0 -165 65t-60 180v29h286q42 0 58 -10l2 3l-4 11q-17 106 -130 106q-77 0 -137 -55l-56 88q82 75 193 75q114 0 183 -66.5t69 -178.5t-66 -179.5t-173 -67.5zM255 85q47 0 78 26.5t37 72.5l-2 2q-14 -9 -50 -9h-109q-48 0 -57 8l-2 -2q3 -47 31 -72.5
t74 -25.5z" />
    <glyph glyph-name="uni0292" unicode="&#x292;" horiz-adv-x="452" 
d="M198 -215q-122 0 -224 52l44 108q98 -48 179 -48q123 0 123 102t-133 102h-100v95l185 166l-2 3q-28 -13 -77 -13h-176v110h399v-111l-207 -173l2 -3q29 12 53 12q79 0 131 -52.5t52 -138.5q0 -96 -64 -153.5t-185 -57.5z" />
    <glyph glyph-name="uni02BC" unicode="&#x2bc;" horiz-adv-x="212" 
d="M67 730h126l-90 -262h-72z" />
    <glyph glyph-name="circumflex" unicode="&#x2c6;" horiz-adv-x="446" 
d="M283 707l113 -151v-3h-100l-35 48q-32 43 -37 69h-2q-5 -26 -37 -69l-35 -48h-100v3l113 151h120z" />
    <glyph glyph-name="caron" unicode="&#x2c7;" horiz-adv-x="452" 
d="M166 553l-116 151v3h103l36 -48q32 -44 35 -67h4q3 23 35 67l35 48h104v-3l-116 -151h-120z" />
    <glyph glyph-name="breve" unicode="&#x2d8;" horiz-adv-x="401" 
d="M351 710q0 -71 -42 -112.5t-109 -41.5q-66 0 -108 41.5t-42 112.5h80q3 -75 70 -75t70 75h81z" />
    <glyph glyph-name="dotaccent" unicode="&#x2d9;" horiz-adv-x="235" 
d="M185 700v-149h-135v149h135z" />
    <glyph glyph-name="ring" unicode="&#x2da;" horiz-adv-x="339" 
d="M169 747q52 0 86 -33t34 -84t-34 -84t-86 -33t-85.5 33t-33.5 84t33.5 84t85.5 33zM169 693q-28 0 -45.5 -18t-17.5 -45t17.5 -45t45.5 -18q29 0 46.5 18t17.5 45t-17.5 45t-46.5 18z" />
    <glyph glyph-name="ogonek" unicode="&#x2db;" horiz-adv-x="272" 
d="M165 26l54 -16q-85 -73 -85 -106q0 -25 32 -25q16 0 39 5l15 -72q-48 -12 -71 -12q-45 0 -72 20.5t-27 58.5q0 35 28 68t87 79z" />
    <glyph glyph-name="tilde" unicode="&#x2dc;" horiz-adv-x="471" 
d="M158 702q32 0 88 -23t73 -23q32 0 53 48l49 -17q-27 -119 -108 -119q-32 0 -88 23.5t-72 23.5q-33 0 -54 -49l-49 17q27 119 108 119z" />
    <glyph glyph-name="hungarumlaut" unicode="&#x2dd;" horiz-adv-x="474" 
d="M51 553l-1 2l116 152h97l1 -2l-125 -152h-88zM212 553l-1 2l116 152h96l1 -2l-124 -152h-88z" />
    <glyph glyph-name="gravecomb" unicode="&#x300;" horiz-adv-x="0" 
d="M-135 553l-143 151l1 3h123l104 -151l-1 -3h-84z" />
    <glyph glyph-name="acutecomb" unicode="&#x301;" horiz-adv-x="0" 
d="M-51 707l1 -3l-142 -151h-85l-1 3l103 151h124z" />
    <glyph glyph-name="uni0302" unicode="&#x302;" horiz-adv-x="0" 
d="M-163 707l113 -151v-3h-100l-35 48q-32 43 -37 69h-2q-5 -26 -37 -69l-35 -48h-100v3l113 151h120z" />
    <glyph glyph-name="tildecomb" unicode="&#x303;" horiz-adv-x="0" 
d="M-313 702q32 0 88 -23t73 -23q32 0 53 48l49 -17q-27 -119 -108 -119q-32 0 -88 23.5t-72 23.5q-33 0 -54 -49l-49 17q27 119 108 119z" />
    <glyph glyph-name="uni0304" unicode="&#x304;" horiz-adv-x="0" 
d="M-50 674v-83h-299v83h299z" />
    <glyph glyph-name="uni0306" unicode="&#x306;" horiz-adv-x="0" 
d="M-50 710q0 -71 -42 -112.5t-109 -41.5q-66 0 -108 41.5t-42 112.5h80q3 -75 70 -75t70 75h81z" />
    <glyph glyph-name="uni0307" unicode="&#x307;" horiz-adv-x="0" 
d="M-50 700v-149h-135v149h135z" />
    <glyph glyph-name="uni0308" unicode="&#x308;" horiz-adv-x="0" 
d="M-235 700v-133h-102v133h102zM-50 700v-133h-102v133h102z" />
    <glyph glyph-name="uni030A" unicode="&#x30a;" horiz-adv-x="0" 
d="M-170 747q52 0 86 -33t34 -84t-34 -84t-86 -33t-85.5 33t-33.5 84t33.5 84t85.5 33zM-170 693q-28 0 -45.5 -18t-17.5 -45t17.5 -45t45.5 -18q29 0 46.5 18t17.5 45t-17.5 45t-46.5 18z" />
    <glyph glyph-name="uni030B" unicode="&#x30b;" horiz-adv-x="0" 
d="M-423 553l-1 2l116 152h97l1 -2l-125 -152h-88zM-262 553l-1 2l116 152h96l1 -2l-124 -152h-88z" />
    <glyph glyph-name="uni030C" unicode="&#x30c;" horiz-adv-x="0" 
d="M-286 553l-116 151v3h103l36 -48q32 -44 35 -67h4q3 23 35 67l35 48h104v-3l-116 -151h-120z" />
    <glyph glyph-name="uni0312" unicode="&#x312;" horiz-adv-x="0" 
d="M-85 553h-131l102 171h64z" />
    <glyph glyph-name="uni0326" unicode="&#x326;" horiz-adv-x="0" 
d="M-50 -51l-89 -164h-62l31 164h120z" />
    <glyph glyph-name="uni0327" unicode="&#x327;" horiz-adv-x="0" 
d="M-117 32l-24 -66q91 -21 91 -73q0 -20 -12 -37t-37 -32.5t-44.5 -25t-53.5 -23.5q-8 -3 -12 -5l-18 39q24 13 33 18.5t22 14t17.5 15t4.5 13.5q0 23 -60 37l45 125h48z" />
    <glyph glyph-name="uni0328" unicode="&#x328;" horiz-adv-x="0" 
d="M-107 26l54 -16q-85 -73 -85 -106q0 -25 32 -25q16 0 39 5l15 -72q-48 -12 -71 -12q-45 0 -72 20.5t-27 58.5q0 35 28 68t87 79z" />
    <glyph glyph-name="uni0394" unicode="&#x394;" horiz-adv-x="628" 
d="M359 700l249 -700h-588l249 700h90zM314 523l-148 -450h295z" />
    <glyph glyph-name="uni03A9" unicode="&#x3a9;" horiz-adv-x="748" 
d="M374 715q153 0 247 -89t94 -230q0 -112 -67.5 -189.5t-173.5 -104.5v-3q41 8 87 8h141v-107h-288v181q80 15 128.5 72t48.5 137q0 94 -58.5 150.5t-158.5 56.5q-99 0 -158 -56.5t-59 -150.5q0 -80 48.5 -137t128.5 -72v-181h-288v107h141q46 0 87 -8v3
q-106 27 -173.5 104.5t-67.5 189.5q0 141 94 230t247 89z" />
    <glyph glyph-name="uni03BC" unicode="&#x3bc;" horiz-adv-x="544" 
d="M365 462h123v-462h-121q0 55 14 105l-5 1q-47 -121 -161 -121q-31 0 -53 7v-192h-111v662h126v-257q0 -106 89 -106q46 0 72.5 35t26.5 103v225z" />
    <glyph glyph-name="pi" unicode="&#x3c0;" horiz-adv-x="622" 
d="M592 477v-109h-99v-368h-114v368h-114l-86 -368h-115l86 367q-67 -3 -120 -19v109q58 20 147 20h415z" />
    <glyph glyph-name="uni0401" unicode="&#x401;" horiz-adv-x="529" 
d="M146 859h102v-116h-102v116zM332 859h102v-116h-102v116zM485 700v-117h-262q-16 0 -26 5l-2 -2q4 -10 4 -28v-99q0 -18 -4 -28l2 -2q8 4 26 4h232v-116h-232q-16 0 -26 5l-2 -2q4 -10 4 -28v-150q0 -18 -4 -28l2 -2q10 5 26 5h266v-117h-418v700h414z" />
    <glyph glyph-name="uni0402" unicode="&#x402;" horiz-adv-x="730" 
d="M510 431q101 0 155 -51t54 -147v-42q0 -191 -196 -191h-76v120h52q49 0 70.5 18.5t21.5 61.5v22q0 88 -103 88q-79 0 -185 -30v-280h-128v556q0 17 4 27l-2 2q-8 -4 -26 -4h-143v119h536v-119h-216q-17 0 -26 4l-2 -2q3 -7 3 -27v-106q0 -39 -7 -53l2 -2q99 36 212 36z
" />
    <glyph glyph-name="uni0403" unicode="&#x403;" horiz-adv-x="489" 
d="M456 853l1 -3l-147 -107h-84l-1 3l99 107h132zM481 700v-118h-258q-18 0 -26 4l-2 -2q4 -10 4 -27v-557h-128v700h410z" />
    <glyph glyph-name="uni0404" unicode="&#x404;" horiz-adv-x="675" 
d="M397 -15q-166 0 -266 100t-100 265t100 265t266 100q146 0 255 -74l-63 -110q-87 58 -196 58q-82 0 -138 -41.5t-76 -116.5q-4 -14 -11 -23l2 -2q12 4 36 4h262v-120h-262q-24 0 -36 4l-2 -2q7 -9 11 -23q20 -75 76 -116.5t138 -41.5q109 0 196 58l63 -110
q-109 -74 -255 -74z" />
    <glyph glyph-name="uni0405" unicode="&#x405;" horiz-adv-x="519" 
d="M272 715q100 0 202 -50l-57 -116q-76 43 -146 43q-74 0 -74 -51q0 -20 12 -35.5t42 -37.5l121 -86q63 -44 91 -89t28 -106q0 -97 -63 -149.5t-175 -52.5q-131 0 -240 67l58 117q98 -60 186 -60q48 0 74 19.5t26 51.5q0 24 -16 45.5t-54 48.5l-114 82q-110 77 -110 182
q0 82 55.5 129.5t153.5 47.5z" />
    <glyph glyph-name="uni0406" unicode="&#x406;" horiz-adv-x="269" 
d="M199 700v-700h-128v700h128z" />
    <glyph glyph-name="uni0407" unicode="&#x407;" horiz-adv-x="269" 
d="M-9 859h102v-116h-102v116zM177 859h102v-116h-102v116zM199 700v-700h-128v700h128z" />
    <glyph glyph-name="uni0408" unicode="&#x408;" horiz-adv-x="320" 
d="M250 700v-517q0 -97 -41.5 -142.5t-127.5 -45.5q-27 0 -60 4v118q16 -1 45 -1q28 0 42 16.5t14 54.5v513h128z" />
    <glyph glyph-name="uni0409" unicode="&#x409;" horiz-adv-x="1051" 
d="M800 435q109 0 172 -58.5t63 -158.5q0 -101 -63 -159.5t-172 -58.5h-266v557q0 20 4 27l-2 2q-9 -4 -26 -4h-226q-18 0 -26 4l-2 -2q4 -10 4 -27v-373q0 -97 -41 -143t-127 -46q-31 0 -71 4v119q20 -2 55 -2q29 0 42.5 17t13.5 54v513h530v-240q0 -20 -4 -27l2 -2
q9 4 26 4h114zM783 116q58 0 88.5 26.5t30.5 75.5q0 48 -31 74.5t-88 26.5h-97q-17 0 -26 5l-2 -2q4 -7 4 -28v-152q0 -21 -4 -28l2 -2q9 4 26 4h97z" />
    <glyph glyph-name="uni040A" unicode="&#x40a;" horiz-adv-x="1021" 
d="M71 0v700h128v-240q0 -17 -4 -27l2 -2q8 4 26 4h257q18 0 27 -4l2 2q-4 7 -4 27v240h128v-240q0 -17 -4 -27l2 -2q9 4 26 4h113q109 0 172.5 -58t63.5 -159t-63 -159.5t-173 -58.5h-265v294q0 21 4 28l-2 2q-9 -5 -27 -5h-257q-18 0 -26 5l-2 -2q4 -10 4 -28v-294h-128z
M631 112q9 4 26 4h97q58 0 88.5 26.5t30.5 75.5q0 48 -31.5 74.5t-87.5 26.5h-97q-17 0 -26 5l-2 -2q4 -10 4 -28v-152q0 -18 -4 -28z" />
    <glyph glyph-name="uni040B" unicode="&#x40b;" horiz-adv-x="716" 
d="M487 431q104 0 161 -60t57 -173v-198h-128v187q0 61 -29.5 92t-82.5 31q-75 0 -176 -30v-280h-128v556q0 17 4 27l-2 2q-8 -4 -26 -4h-129v119h514v-119h-208q-18 0 -26 4l-2 -2q3 -7 3 -27v-106q0 -36 -7 -53l2 -2q97 36 203 36z" />
    <glyph glyph-name="uni040C" unicode="&#x40c;" horiz-adv-x="639" 
d="M504 853l1 -3l-147 -107h-84l-1 3l99 107h132zM548 -6q-122 0 -144 110l-24 117q-9 49 -31.5 70t-66.5 21h-57q-23 0 -30 4l-1 -2q5 -13 5 -36v-278h-128v700h128v-251q0 -22 -5 -35l1 -2q8 4 30 4h57q41 0 63.5 21.5t33.5 71.5l24 100q23 97 145 97q37 0 64 -4v-117
q-14 2 -35 2q-49 0 -59 -41l-22 -84q-13 -54 -45.5 -73.5t-114.5 -21.5v-4q84 -2 120 -24t46 -78l18 -84q7 -34 20 -47.5t41 -13.5q9 0 42 3v-121q-40 -4 -75 -4z" />
    <glyph glyph-name="uni040E" unicode="&#x40e;" horiz-adv-x="661" 
d="M483 863q-3 -66 -42 -103t-108 -37t-107.5 37t-41.5 103h84q0 -34 16.5 -53t48.5 -19t49 19t16 53h85zM181 -8q-43 0 -95 6l1 120q39 -7 84 -7q58 0 96 68l-262 521h155l138 -302q38 -78 43 -113h4q5 50 33 116l130 299h148l-241 -523q-41 -96 -96.5 -140.5t-137.5 -44.5
z" />
    <glyph glyph-name="uni040F" unicode="&#x40f;" horiz-adv-x="721" 
d="M301 -140v115q0 19 3 27l-2 2q-8 -4 -26 -4h-205v700h128v-557q0 -17 -4 -27l2 -2q8 4 26 4h275q18 0 27 -4l2 2q-4 7 -4 27v557h128v-700h-206q-17 0 -26 4l-2 -2q4 -10 4 -27v-115h-120z" />
    <glyph glyph-name="uni0410" unicode="&#x410;" horiz-adv-x="713" 
d="M8 0l338 714h21l338 -714h-142l-74 166h-265l-74 -166h-142zM256 264q15 3 51 3h99q36 0 51 -3l1 1q-14 18 -30 52l-46 110q-22 52 -23 76h-4q-3 -25 -24 -76l-46 -110q-13 -31 -30 -52z" />
    <glyph glyph-name="uni0411" unicode="&#x411;" horiz-adv-x="621" 
d="M346 435q108 0 172.5 -57t64.5 -160q0 -104 -65 -161t-172 -57h-275v700h473v-118h-321q-18 0 -26 4l-2 -2q4 -10 4 -28v-96q0 -17 -4 -27l2 -2q8 4 26 4h123zM330 116q119 0 119 102q0 48 -31 74.5t-88 26.5h-107q-18 0 -26 5l-2 -2q4 -10 4 -28v-152q0 -18 -4 -28l2 -2
q8 4 26 4h107z" />
    <glyph glyph-name="uni0412" unicode="&#x412;" horiz-adv-x="624" 
d="M71 0v700h274q91 0 145 -47.5t54 -126.5q0 -53 -25 -90t-70 -52q-26 -10 -54 -11v-4q27 0 56 -7q65 -14 99.5 -57.5t34.5 -110.5q0 -89 -60 -141.5t-161 -52.5h-293zM197 412q8 4 26 4h90q49 0 75.5 23.5t26.5 65.5q0 82 -97 82h-95q-18 0 -26 5l-2 -2q4 -10 4 -27v-122
q0 -17 -4 -27zM197 108q15 5 27 5h115q113 0 113 95q0 97 -121 97h-108q-18 0 -26 4l-2 -2q4 -10 4 -27v-142q0 -18 -4 -28z" />
    <glyph glyph-name="uni0413" unicode="&#x413;" horiz-adv-x="489" 
d="M481 700v-118h-258q-18 0 -26 4l-2 -2q4 -10 4 -27v-557h-128v700h410z" />
    <glyph glyph-name="uni0414" unicode="&#x414;" horiz-adv-x="705" 
d="M5 -140v246h55q18 0 28 -5l2 2q0 19 7 29q77 162 77 394v174h425v-568q0 -22 -4 -29l2 -2q12 5 27 5h57v-246h-120v103q0 21 4 28l-2 2q-8 -4 -26 -4h-387q-19 0 -27 4l-2 -2q4 -7 4 -28v-103h-120zM219 101q12 5 27 5h202q16 0 26 -5l2 2q-3 8 -3 29v426q0 20 3 28l-2 2
q-8 -4 -26 -4h-123q-18 0 -26 4l-2 -2q4 -10 4 -28v-53q0 -121 -23.5 -231.5t-60.5 -170.5z" />
    <glyph glyph-name="uni0415" unicode="&#x415;" horiz-adv-x="529" 
d="M485 700v-117h-262q-16 0 -26 5l-2 -2q4 -10 4 -28v-99q0 -18 -4 -28l2 -2q8 4 26 4h232v-116h-232q-16 0 -26 5l-2 -2q4 -10 4 -28v-150q0 -18 -4 -28l2 -2q10 5 26 5h266v-117h-418v700h414z" />
    <glyph glyph-name="uni0416" unicode="&#x416;" horiz-adv-x="953" 
d="M79 -5q-31 0 -60 4v124q24 -2 35 -2q27 0 42 12.5t22 44.5l21 95q13 55 43.5 73t107.5 20v4q-80 3 -112 21.5t-45 71.5l-20 84q-10 40 -58 40q-3 0 -35 -2v116q41 3 59 3q63 0 96 -21.5t47 -73.5l30 -110q10 -41 33 -60t64 -19h40q22 0 30 -4l1 2q-5 11 -5 36v246h123
v-246q0 -25 -5 -36l2 -2q7 4 30 4h39q42 0 64 18.5t33 60.5l30 110q14 52 47.5 73.5t96.5 21.5q19 0 58 -3v-116q-30 2 -34 2q-49 0 -58 -40l-21 -84q-13 -53 -44.5 -71.5t-112.5 -21.5v-4q77 -2 108 -20t43 -73l22 -95q7 -32 22 -44.5t41 -12.5q13 0 35 2v-124
q-29 -4 -59 -4q-67 0 -102.5 26t-49.5 85l-29 129q-9 44 -29.5 62t-60.5 18h-39q-20 0 -30 4l-2 -2q5 -11 5 -37v-280h-123v280q0 26 5 37l-1 2q-12 -4 -30 -4h-40q-39 0 -59.5 -18t-30.5 -62l-28 -129q-13 -58 -49.5 -84.5t-102.5 -26.5z" />
    <glyph glyph-name="uni0417" unicode="&#x417;" horiz-adv-x="574" 
d="M270 -15q-143 0 -247 56l52 112q96 -46 197 -46q132 0 132 95q0 100 -161 100h-96v122h96q133 0 133 90q0 79 -111 79q-85 0 -180 -39l-42 118q125 43 234 43q233 0 233 -177q0 -117 -116 -154q-32 -11 -69 -12v-4q35 0 69 -6q141 -31 141 -173q0 -204 -265 -204z" />
    <glyph glyph-name="uni0418" unicode="&#x418;" horiz-adv-x="730" 
d="M639 710h21v-710h-128v342q0 87 11 123l-4 1q-17 -37 -50 -70l-398 -406h-20v710h127v-341q0 -88 -11 -124l4 -1q17 37 51 70z" />
    <glyph glyph-name="uni0419" unicode="&#x419;" horiz-adv-x="730" 
d="M542 863q-3 -66 -42 -103t-108 -37t-107.5 37t-41.5 103h84q0 -34 16.5 -53t48.5 -19t49 19t16 53h85zM639 710h21v-710h-128v342q0 87 11 123l-4 1q-17 -37 -50 -70l-398 -406h-20v710h127v-341q0 -88 -11 -124l4 -1q17 37 51 70z" />
    <glyph glyph-name="uni041A" unicode="&#x41a;" horiz-adv-x="639" 
d="M548 -6q-122 0 -144 110l-24 117q-9 49 -31.5 70t-66.5 21h-57q-23 0 -30 4l-1 -2q5 -13 5 -36v-278h-128v700h128v-251q0 -22 -5 -35l1 -2q8 4 30 4h57q41 0 63.5 21.5t33.5 71.5l24 100q23 97 145 97q37 0 64 -4v-117q-14 2 -35 2q-49 0 -59 -41l-22 -84
q-13 -54 -45.5 -73.5t-114.5 -21.5v-4q84 -2 120 -24t46 -78l18 -84q7 -34 20 -47.5t41 -13.5q9 0 42 3v-121q-40 -4 -75 -4z" />
    <glyph glyph-name="uni041B" unicode="&#x41b;" horiz-adv-x="751" 
d="M680 700v-700h-128v557q0 20 4 27l-2 2q-9 -4 -27 -4h-243q-18 0 -26 4l-2 -2q4 -10 4 -27v-373q0 -97 -41 -143t-127 -46q-31 0 -71 4v119q20 -2 55 -2q29 0 42.5 17t13.5 54v513h548z" />
    <glyph glyph-name="uni041C" unicode="&#x41c;" horiz-adv-x="919" 
d="M452 -7l-157 342q-26 57 -29 99h-4q-2 -56 -16 -101l-102 -333h-136l232 710h21l179 -410q14 -33 18 -76h4q5 46 17 76l179 410h21l233 -710h-137l-101 333q-14 45 -16 101h-4q-4 -43 -29 -99l-157 -342h-16z" />
    <glyph glyph-name="uni041D" unicode="&#x41d;" horiz-adv-x="724" 
d="M653 700v-700h-128v285q0 21 4 28l-2 2q-10 -5 -27 -5h-277q-16 0 -26 5l-2 -2q4 -10 4 -28v-285h-128v700h128v-245q0 -18 -4 -28l2 -2q8 4 26 4h277q19 0 27 -4l2 2q-4 7 -4 28v245h128z" />
    <glyph glyph-name="uni041E" unicode="&#x41e;" horiz-adv-x="795" 
d="M397 715q160 0 263.5 -103t103.5 -262t-103.5 -262t-263.5 -103t-263 103t-103 262t103 262t263 103zM397 588q-102 0 -166.5 -66.5t-64.5 -171.5t64.5 -171.5t166.5 -66.5q103 0 167.5 66.5t64.5 171.5t-64.5 171.5t-167.5 66.5z" />
    <glyph glyph-name="uni041F" unicode="&#x41f;" horiz-adv-x="718" 
d="M647 700v-700h-128v557q0 17 4 27l-2 2q-8 -4 -26 -4h-272q-18 0 -26 4l-2 -2q4 -10 4 -27v-557h-128v700h576z" />
    <glyph glyph-name="uni0420" unicode="&#x420;" horiz-adv-x="564" 
d="M312 700q110 0 171.5 -54.5t61.5 -152.5t-60 -152.5t-165 -54.5h-97q-18 0 -26 5l-2 -2q4 -10 4 -28v-261h-128v700h241zM197 590l-2 -2q4 -10 4 -28v-134q0 -18 -4 -28l2 -2q8 5 26 5h92q47 0 73 25t26 67q0 43 -26 68t-73 25h-92q-18 0 -26 4z" />
    <glyph glyph-name="uni0421" unicode="&#x421;" horiz-adv-x="681" 
d="M407 -15q-166 0 -271 102t-105 263t105 263t271 102q142 0 251 -77l-71 -108q-84 58 -180 58q-106 0 -172.5 -66t-66.5 -172t66.5 -172t172.5 -66q96 0 180 58l71 -108q-109 -77 -251 -77z" />
    <glyph glyph-name="uni0422" unicode="&#x422;" horiz-adv-x="530" 
d="M522 700v-119h-168q-18 0 -26 4l-2 -2q3 -7 3 -27v-556h-128v556q0 17 4 27l-2 2q-9 -4 -26 -4h-169v119h514z" />
    <glyph glyph-name="uni0423" unicode="&#x423;" horiz-adv-x="661" 
d="M181 -8q-43 0 -95 6l1 120q39 -7 84 -7q58 0 96 68l-262 521h155l138 -302q38 -78 43 -113h4q5 50 33 116l130 299h148l-241 -523q-41 -96 -96.5 -140.5t-137.5 -44.5z" />
    <glyph glyph-name="uni0424" unicode="&#x424;" horiz-adv-x="848" 
d="M362 -40v48q0 21 5 31l-2 1q-8 -4 -34 -4q-129 0 -214.5 90t-85.5 224t85.5 224t214.5 90q26 0 34 -4l2 1q-5 10 -5 31v48h124v-48q0 -21 -5 -31l2 -1q8 4 34 4q129 0 214.5 -90t85.5 -224t-85.5 -224t-214.5 -90q-26 0 -34 4l-2 -1q5 -10 5 -31v-48h-124zM370 148l2 1
q-5 10 -5 31v340q0 21 5 31l-2 1q-4 -2 -29 -3q-81 -2 -127.5 -55.5t-46.5 -143.5t46.5 -143.5t127.5 -55.5q25 -1 29 -3zM478 148q4 2 30 3q80 2 127 56t47 143t-47 143t-127 56q-26 1 -30 3l-1 -1q5 -10 5 -31v-340q0 -21 -5 -31z" />
    <glyph glyph-name="uni0425" unicode="&#x425;" horiz-adv-x="678" 
d="M642 700l-182 -271q-26 -40 -43 -57v-3q17 -18 47 -63l206 -306h-158l-136 212q-31 49 -37 77h-4q-4 -25 -37 -77l-133 -212h-157l205 309q34 49 47 64v3q-13 12 -43 56l-181 268h157l108 -168q32 -51 38 -78h4q4 23 37 78l104 168h158z" />
    <glyph glyph-name="uni0426" unicode="&#x426;" horiz-adv-x="749" 
d="M605 -139v114q0 19 5 27l-2 2q-8 -4 -27 -4h-510v700h128v-557q0 -19 -5 -27l2 -2q8 4 27 4h265q19 0 27 -4l2 2q-5 8 -5 27v557h128v-557q0 -17 -4 -27l2 -2q7 4 27 4h61v-257h-121z" />
    <glyph glyph-name="uni0427" unicode="&#x427;" horiz-adv-x="625" 
d="M427 0v242q0 39 7 53l-2 2q-93 -35 -203 -35q-106 0 -162 59.5t-56 172.5v206h128v-194q0 -60 28.5 -92t83.5 -32q75 0 176 30v288h128v-700h-128z" />
    <glyph glyph-name="uni0428" unicode="&#x428;" horiz-adv-x="1040" 
d="M71 0v700h128v-557q0 -19 -5 -27l2 -2q8 4 27 4h209q18 0 27 -4l2 2q-5 8 -5 27v557h128v-557q0 -17 -4 -27l2 -2q7 4 27 4h208q19 0 27 -4l2 2q-4 10 -4 27v557h128v-700h-899z" />
    <glyph glyph-name="uni0429" unicode="&#x429;" horiz-adv-x="1080" 
d="M994 118h62v-257h-120v114q0 17 4 27l-2 2q-8 -4 -27 -4h-840v700h128v-557q0 -19 -5 -27l2 -2q8 4 27 4h209q18 0 27 -4l2 2q-5 8 -5 27v557h128v-557q0 -17 -4 -27l2 -2q7 4 27 4h208q19 0 27 -4l2 2q-4 10 -4 27v557h128v-557q0 -19 -5 -27l2 -2q8 4 27 4z" />
    <glyph glyph-name="uni042A" unicode="&#x42a;" horiz-adv-x="712" 
d="M461 435q109 0 172 -58.5t63 -158.5q0 -101 -63 -159.5t-172 -58.5h-276v557q0 20 4 27l-2 2q-8 -4 -26 -4h-153v118h305v-240q0 -20 -4 -27l2 -2q9 4 26 4h124zM444 116q58 0 88.5 26.5t30.5 75.5q0 48 -31 74.5t-88 26.5h-107q-17 0 -26 5l-2 -2q4 -7 4 -28v-152
q0 -21 -4 -28l2 -2q9 4 26 4h107z" />
    <glyph glyph-name="uni042B" unicode="&#x42b;" horiz-adv-x="830" 
d="M346 435q109 0 172.5 -58t63.5 -159t-63 -159.5t-173 -58.5h-275v700h128v-240q0 -17 -4 -27l2 -2q8 4 26 4h123zM632 700h128v-700h-128v700zM330 116q57 0 88 26.5t31 75.5q0 48 -31.5 74.5t-87.5 26.5h-107q-18 0 -26 5l-2 -2q4 -10 4 -28v-152q0 -18 -4 -28l2 -2
q8 4 26 4h107z" />
    <glyph glyph-name="uni042C" unicode="&#x42c;" horiz-adv-x="597" 
d="M346 435q109 0 172.5 -58t63.5 -159t-63 -159.5t-173 -58.5h-275v700h128v-240q0 -17 -4 -27l2 -2q8 4 26 4h123zM330 116q57 0 88 26.5t31 75.5q0 48 -31.5 74.5t-87.5 26.5h-107q-18 0 -26 5l-2 -2q4 -10 4 -28v-152q0 -18 -4 -28l2 -2q8 4 26 4h107z" />
    <glyph glyph-name="uni042D" unicode="&#x42d;" horiz-adv-x="675" 
d="M278 -15q-146 0 -255 74l63 110q87 -58 196 -58q82 0 138 41.5t76 116.5q4 14 11 23l-2 2q-12 -4 -36 -4h-262v120h262q24 0 36 -4l2 2q-7 9 -11 23q-20 75 -76 116.5t-138 41.5q-109 0 -196 -58l-63 110q109 74 255 74q166 0 266 -100t100 -265t-100 -265t-266 -100z
" />
    <glyph glyph-name="uni042E" unicode="&#x42e;" horiz-adv-x="1039" 
d="M641 714q160 0 263.5 -103t103.5 -262t-103.5 -262t-263.5 -103q-144 0 -243.5 85.5t-118.5 222.5h-56q-18 0 -26 4l-2 -2q4 -10 4 -27v-267h-128v700h128v-265q0 -17 -4 -27l2 -2q8 4 26 4h56q20 136 119.5 220t242.5 84zM641 111q103 0 167.5 66.5t64.5 171.5
t-64.5 171.5t-167.5 66.5q-102 0 -166.5 -66.5t-64.5 -171.5t64.5 -171.5t166.5 -66.5z" />
    <glyph glyph-name="uni042F" unicode="&#x42f;" horiz-adv-x="638" 
d="M308 700h260v-700h-128v267q0 22 5 39l-2 2q-5 -3 -20 -5q-9 -1 -27 -1l-233 -302h-160l205 256q35 45 74 57v4q-13 -4 -28 -4q-67 0 -119 54.5t-52 134.5q0 92 59.5 145t165.5 53zM442 590q-9 -4 -27 -4h-104q-44 0 -68.5 -23.5t-24.5 -64.5t24.5 -63.5t68.5 -22.5h104
q18 0 27 -4l2 2q-4 7 -4 27v123q0 21 4 28z" />
    <glyph glyph-name="uni0430" unicode="&#x430;" horiz-adv-x="514" 
d="M253 477q110 0 159 -44t49 -142v-291h-124q0 47 15 82l-4 2q-51 -99 -159 -99q-74 0 -119.5 44.5t-45.5 117.5t45.5 116.5t121.5 43.5q106 0 155 -80l4 2q-8 24 -8 68q-5 74 -102 74q-54 0 -137 -20l-24 103q90 23 174 23zM238 223q-37 0 -60 -20t-23 -52t22.5 -51.5
t59.5 -19.5q38 0 62 20t24 52q0 31 -23.5 51t-61.5 20z" />
    <glyph glyph-name="uni0431" unicode="&#x431;" horiz-adv-x="576" 
d="M295 -15q-123 0 -195 79.5t-72 231.5q0 225 128 302q22 13 54 24.5t81.5 25.5t53.5 15q44 13 46 42h124q0 -52 -20.5 -83.5t-68.5 -47.5q-11 -4 -93 -24t-114 -36q-49 -24 -70 -71t-22 -124h3q18 72 69.5 110t124.5 39q101 0 162.5 -63.5t61.5 -170.5q0 -111 -69.5 -180
t-183.5 -69zM292 101q55 0 91.5 36.5t36.5 94.5t-36.5 94t-93.5 36q-55 0 -92 -36.5t-37 -93.5q0 -59 37 -95t94 -36z" />
    <glyph glyph-name="uni0432" unicode="&#x432;" horiz-adv-x="501" 
d="M406 231q67 -20 67 -103q0 -61 -43.5 -94.5t-110.5 -33.5h-260v462h261q139 0 139 -113q0 -67 -53 -92q-25 -13 -71 -14v-4q45 0 71 -8zM176 367q5 -9 5 -27v-39q0 -16 -5 -26l1 -1q9 4 28 4h75q50 0 50 45q0 41 -51 41h-74q-19 0 -28 4zM290 98q54 0 54 49q0 47 -54 47
h-85q-19 0 -28 4l-1 -1q5 -10 5 -25v-51q0 -16 -5 -26l1 -1q9 4 28 4h85z" />
    <glyph glyph-name="uni0433" unicode="&#x433;" horiz-adv-x="379" 
d="M59 0v462h315v-110h-169q-20 0 -28 4l-1 -1q5 -10 5 -26v-329h-122z" />
    <glyph glyph-name="uni0434" unicode="&#x434;" horiz-adv-x="573" 
d="M10 -140v241h43q15 0 24 -4l1 1q-1 9 6 25q58 106 58 246v93h351v-338q0 -13 -5 -26l1 -1q9 4 28 4h38v-241h-111v112q0 13 5 26l-1 1q-9 -4 -28 -4h-275q-19 0 -28 4l-1 -1q5 -10 5 -26v-112h-111zM195 96q10 5 30 5h128q19 0 28 -4l1 1q-5 10 -5 26v211q0 16 5 26l-1 1
q-9 -4 -28 -4h-76q-19 0 -28 4l-1 -1q5 -10 5 -26v-22q0 -55 -17 -116.5t-42 -98.5z" />
    <glyph glyph-name="uni0435" unicode="&#x435;" horiz-adv-x="518" 
d="M267 477q105 0 165 -65t60 -180v-29h-286q-42 0 -58 10l-2 -3l4 -11q17 -106 130 -106q77 0 137 55l56 -88q-83 -75 -193 -75q-114 0 -183 66.5t-69 178.5t66 179.5t173 67.5zM263 377q-47 0 -78 -26.5t-37 -72.5l2 -2q14 9 50 9h109q48 0 57 -8l2 2q-3 47 -31 72.5
t-74 25.5z" />
    <glyph glyph-name="uni0436" unicode="&#x436;" horiz-adv-x="721" 
d="M19 -3v100h20q18 0 27 6t17 24l17 54q10 30 32.5 43.5t70.5 14.5v4q-47 1 -70 14t-32 39l-15 38q-9 18 -19 24.5t-28 6.5h-20v100h64q69 0 91 -51l31 -74q12 -30 23.5 -40.5t34.5 -10.5h14q21 0 31 -2l1 1q-5 20 -5 40v134h112v-134q0 -25 -5 -40l1 -1q10 2 31 2h14
q24 0 35.5 10.5t23.5 40.5l31 74q21 51 91 51h64v-100h-20q-19 0 -29 -6.5t-18 -24.5l-15 -38q-10 -27 -33 -39.5t-69 -13.5v-4q48 -1 70 -14t32 -44l17 -54q8 -18 17 -24t27 -6h20v-100h-70q-75 0 -93 60l-24 77q-9 33 -21 46t-36 13h-14q-21 0 -31 2l-1 -1q5 -15 5 -42
v-152h-112v152q0 22 5 42l-1 1q-10 -2 -31 -2h-14q-24 0 -36 -13t-21 -46l-23 -77q-20 -60 -93 -60h-71z" />
    <glyph glyph-name="uni0437" unicode="&#x437;" horiz-adv-x="452" 
d="M216 -15q-116 0 -202 43l43 98q76 -38 154 -38q50 0 72 12.5t22 39.5q0 53 -78 53h-67v96h60q61 0 61 42q0 43 -78 43q-66 0 -143 -34l-39 98q101 39 198 39q186 0 186 -121q0 -100 -119 -109v-4q138 -8 138 -118q0 -140 -208 -140z" />
    <glyph glyph-name="uni0438" unicode="&#x438;" horiz-adv-x="550" 
d="M59 -6v468h122v-156q0 -72 -7 -108l4 -1q13 25 53 62l226 209h35v-468h-123v156q0 72 7 108l-4 1q-13 -25 -53 -62l-226 -209h-34z" />
    <glyph glyph-name="uni0439" unicode="&#x439;" horiz-adv-x="550" 
d="M444 660q0 -71 -42 -112.5t-109 -41.5q-66 0 -108 41.5t-42 112.5h80q3 -75 70 -75t70 75h81zM59 -6v468h122v-156q0 -72 -7 -108l4 -1q13 25 53 62l226 209h35v-468h-123v156q0 72 7 108l-4 1q-13 -25 -53 -62l-226 -209h-34z" />
    <glyph glyph-name="uni043A" unicode="&#x43a;" horiz-adv-x="508" 
d="M418 -3q-76 0 -95 60l-23 77q-8 32 -21 45.5t-37 13.5h-34q-19 0 -31 2l-1 -1q5 -15 5 -42v-152h-122v462h122v-134q0 -25 -5 -40l1 -1q12 2 31 2h34q24 0 36.5 10.5t23.5 40.5l31 74q20 51 92 51h64v-102h-15q-22 0 -33.5 -6t-19.5 -23l-15 -38q-10 -27 -32.5 -39.5
t-68.5 -13.5v-4q48 -1 70 -14.5t31 -43.5l18 -54q8 -17 16.5 -22.5t28.5 -5.5h20v-102h-71z" />
    <glyph glyph-name="uni043B" unicode="&#x43b;" horiz-adv-x="548" 
d="M492 462v-462h-123v329q0 13 5 26l-1 1q-9 -4 -28 -4h-100q-20 0 -28 4l-1 -1q5 -13 5 -26v-162q0 -169 -165 -169h-48v109h37q28 0 40.5 15.5t12.5 53.5v286h394z" />
    <glyph glyph-name="uni043C" unicode="&#x43c;" horiz-adv-x="703" 
d="M335 -7l-85 183q-24 52 -27 72h-4q-2 -26 -20 -74l-61 -174h-132l186 469h32l105 -221q16 -31 20 -56h4q5 26 21 56l105 221h32l186 -469h-132l-62 174q-17 50 -19 74h-4q-2 -15 -27 -72l-85 -183h-33z" />
    <glyph glyph-name="uni043D" unicode="&#x43d;" horiz-adv-x="566" 
d="M384 462h123v-462h-123v169q0 16 5 26l-1 1q-8 -4 -28 -4h-155q-20 0 -28 4l-1 -1q5 -10 5 -26v-169h-122v462h122v-138q0 -16 -5 -26l1 -1q8 4 28 4h155q20 0 28 -4l1 1q-5 10 -5 26v138z" />
    <glyph glyph-name="uni043E" unicode="&#x43e;" horiz-adv-x="568" 
d="M284 477q111 0 183.5 -69t72.5 -177t-72.5 -177t-183.5 -69t-183.5 69t-72.5 177t72.5 177t183.5 69zM284 361q-58 0 -94 -35.5t-36 -94.5t36 -94.5t94 -35.5t94 35.5t36 94.5t-36 94.5t-94 35.5z" />
    <glyph glyph-name="uni043F" unicode="&#x43f;" horiz-adv-x="551" 
d="M495 462v-462h-123v329q0 16 5 26l-1 1q-8 -4 -28 -4h-145q-20 0 -28 4l-1 -1q5 -10 5 -26v-329h-123v462h439z" />
    <glyph glyph-name="uni0440" unicode="&#x440;" horiz-adv-x="591" 
d="M344 477q97 0 158 -68t61 -178t-60.5 -178t-157.5 -68q-123 0 -170 112l-4 -1q9 -43 9 -94v-202h-121v662h120q0 -60 -9 -96l4 -1q54 112 170 112zM309 365q-59 0 -96 -37t-37 -97t37 -97t96 -37t92.5 36t33.5 98t-34 98t-92 36z" />
    <glyph glyph-name="uni0441" unicode="&#x441;" horiz-adv-x="464" 
d="M283 -15q-113 0 -184 68.5t-71 177.5t71 177.5t184 68.5q88 0 162 -46l-53 -101q-48 32 -107 32q-58 0 -94.5 -36.5t-36.5 -94.5t36.5 -94.5t94.5 -36.5q59 0 107 32l53 -101q-74 -46 -162 -46z" />
    <glyph glyph-name="uni0442" unicode="&#x442;" horiz-adv-x="451" 
d="M5 462h441v-110h-135q-20 0 -28 4l-1 -1q5 -10 5 -26v-329h-123v329q0 16 5 26l-1 1q-8 -4 -28 -4h-135v110z" />
    <glyph glyph-name="uni0443" unicode="&#x443;" horiz-adv-x="515" 
d="M510 462l-287 -663h-125l103 234l-195 429h135l92 -220q22 -50 24 -101h4q1 39 18 80l98 241h133z" />
    <glyph glyph-name="uni0444" unicode="&#x444;" horiz-adv-x="854" 
d="M368 -200v200q0 70 12 110l-4 2q-46 -127 -157 -127q-84 0 -135 66.5t-51 179.5t51 179.5t135 66.5q111 0 157 -127l4 2q-12 40 -12 110v227h117v-227q0 -69 -11 -110l4 -2q44 127 157 127q84 0 135 -66.5t51 -179.5t-51 -179.5t-135 -66.5q-113 0 -157 127l-4 -2
q11 -41 11 -110v-200h-117zM267 98q48 0 77 35.5t29 97.5t-29 97.5t-77 35.5t-77 -35.5t-29 -97.5t29 -97.5t77 -35.5zM588 98q48 0 76.5 35.5t28.5 97.5t-28.5 97.5t-76.5 35.5q-49 0 -78 -35.5t-29 -97.5t29 -97.5t78 -35.5z" />
    <glyph glyph-name="uni0445" unicode="&#x445;" horiz-adv-x="533" 
d="M8 0l156 212q17 23 28 28v3q-9 5 -27 27l-139 192h146l59 -87q29 -42 34 -73h4q4 30 34 73l58 87h146l-139 -192q-17 -22 -27 -27v-3q12 -5 28 -29l156 -211h-145l-80 111q-27 36 -32 70h-4q-5 -32 -32 -70l-79 -111h-145z" />
    <glyph glyph-name="uni0446" unicode="&#x446;" horiz-adv-x="572" 
d="M444 -140v117q0 16 5 26l-1 1q-8 -4 -28 -4h-361v462h122v-329q0 -16 -5 -26l1 -1q8 4 28 4h137q20 0 28 -4l1 1q-5 10 -5 26v329h123v-329q0 -16 -5 -26l1 -1q8 4 28 4h41v-250h-110z" />
    <glyph glyph-name="uni0447" unicode="&#x447;" horiz-adv-x="497" 
d="M318 462h123v-462h-123v142q0 34 7 49l-2 2q-72 -33 -142 -33q-86 0 -129.5 44.5t-43.5 139.5v118h123v-109q0 -43 19.5 -61.5t59.5 -18.5q45 0 108 22v167z" />
    <glyph glyph-name="uni0448" unicode="&#x448;" horiz-adv-x="829" 
d="M648 462h123v-462h-712v462h122v-329q0 -16 -5 -26l1 -1q8 4 28 4h124q20 0 28 -4l1 1q-5 10 -5 26v329h123v-329q0 -16 -5 -26l1 -1q8 4 28 4h124q20 0 28 -4l1 1q-5 10 -5 26v329z" />
    <glyph glyph-name="uni0449" unicode="&#x449;" horiz-adv-x="853" 
d="M724 -140v117q0 16 5 26l-1 1q-8 -4 -28 -4h-641v462h122v-329q0 -16 -5 -26l1 -1q8 4 28 4h124q20 0 28 -4l1 1q-5 10 -5 26v329h123v-329q0 -16 -5 -26l1 -1q8 4 28 4h124q20 0 28 -4l1 1q-5 10 -5 26v329h123v-329q0 -16 -5 -26l1 -1q8 4 28 4h40v-250h-111z" />
    <glyph glyph-name="uni044A" unicode="&#x44a;" horiz-adv-x="565" 
d="M378 317q80 0 127 -41t47 -117q0 -75 -48 -117t-127 -42h-232v329q0 16 5 26l-1 1q-9 -4 -28 -4h-116v110h263v-122q0 -13 -5 -26l1 -1q9 4 28 4h86zM359 103q31 0 48 14.5t17 40.5q0 56 -65 56h-67q-19 0 -28 4l-1 -1q5 -13 5 -26v-65q0 -13 -5 -26l1 -1q9 4 28 4h67z
" />
    <glyph glyph-name="uni044B" unicode="&#x44b;" horiz-adv-x="677" 
d="M288 317q79 0 125 -41t46 -117q0 -75 -47 -117t-125 -42h-228v462h122v-122q0 -16 -5 -26l1 -1q9 4 28 4h83zM496 462h122v-462h-122v462zM270 103q61 0 61 55q0 56 -61 56h-65q-19 0 -28 4l-1 -1q5 -10 5 -26v-65q0 -16 -5 -26l1 -1q9 4 28 4h65z" />
    <glyph glyph-name="uni044C" unicode="&#x44c;" horiz-adv-x="473" 
d="M288 317q79 0 125 -41t46 -117q0 -75 -47 -117t-125 -42h-228v462h122v-122q0 -16 -5 -26l1 -1q9 4 28 4h83zM270 103q61 0 61 55q0 56 -61 56h-65q-19 0 -28 4l-1 -1q5 -10 5 -26v-65q0 -16 -5 -26l1 -1q9 4 28 4h65z" />
    <glyph glyph-name="uni044D" unicode="&#x44d;" horiz-adv-x="465" 
d="M192 -15q-96 0 -173 43l47 98q59 -31 120 -31q40 0 70.5 18.5t41.5 52.5q4 18 10 25l-1 1q-9 -4 -28 -4h-142v86h142q19 0 28 -4l1 1q-7 10 -10 25q-11 34 -41.5 52.5t-70.5 18.5q-61 0 -120 -31l-47 98q77 43 173 43q109 0 174.5 -66t65.5 -180t-65.5 -180t-174.5 -66z
" />
    <glyph glyph-name="uni044E" unicode="&#x44e;" horiz-adv-x="784" 
d="M501 477q111 0 183.5 -69t72.5 -177t-72.5 -177t-183.5 -69q-96 0 -165 53t-86 140h-48q-20 0 -28 4l-1 -1q5 -10 5 -26v-155h-119v462h119v-154q0 -16 -5 -26l1 -1q8 4 28 4h48q18 87 86.5 139.5t164.5 52.5zM501 101q58 0 94 35.5t36 94.5t-36 94.5t-94 35.5t-94 -35.5
t-36 -94.5t36 -94.5t94 -35.5z" />
    <glyph glyph-name="uni044F" unicode="&#x44f;" horiz-adv-x="518" 
d="M460 462v-462h-123v142q0 16 5 26l-1 1q-7 -4 -28 -4h-16l-137 -165h-147v5l109 119q30 34 58 47v3q-22 -4 -35 1q-50 12 -76.5 49.5t-26.5 87.5q0 71 44.5 110.5t125.5 39.5h248zM342 251q-5 10 -5 26v65q0 16 5 26l-1 1q-9 -4 -28 -4h-71q-70 0 -70 -55q0 -56 70 -56
h71q21 0 28 -4z" />
    <glyph glyph-name="uni0451" unicode="&#x451;" horiz-adv-x="518" 
d="M227 650v-133h-97v133h97zM406 650v-133h-97v133h97zM267 477q105 0 165 -65t60 -180v-29h-286q-42 0 -58 10l-2 -3l4 -11q17 -106 130 -106q77 0 137 55l56 -88q-83 -75 -193 -75q-114 0 -183 66.5t-69 178.5t66 179.5t173 67.5zM263 377q-47 0 -78 -26.5t-37 -72.5
l2 -2q14 9 50 9h109q48 0 57 -8l2 2q-3 47 -31 72.5t-74 25.5z" />
    <glyph glyph-name="uni0452" unicode="&#x452;" horiz-adv-x="561" 
d="M343 477q76 0 120.5 -45.5t44.5 -134.5v-317q0 -91 -48 -135.5t-136 -44.5h-50v116h47q64 0 64 72v274q0 104 -90 104q-51 0 -82 -35t-31 -109v-222h-123v537q0 16 5 26l-1 1q-8 -4 -28 -4h-36v73h36q20 0 28 -4l1 1q-5 10 -5 26v59h123v-59q0 -16 -5 -26l1 -1q8 4 28 4
h126v-73h-126q-20 0 -28 4l-1 -1q5 -10 5 -26v-54q0 -72 -10 -121l4 -1q50 116 167 116z" />
    <glyph glyph-name="uni0453" unicode="&#x453;" horiz-adv-x="379" 
d="M423 657l1 -3l-156 -151h-85l-1 3l103 151h138zM59 0v462h315v-110h-169q-20 0 -28 4l-1 -1q5 -10 5 -26v-329h-122z" />
    <glyph glyph-name="uni0454" unicode="&#x454;" horiz-adv-x="465" 
d="M273 -15q-109 0 -174.5 66t-65.5 180t65.5 180t174.5 66q96 0 173 -43l-47 -98q-59 31 -120 31q-40 0 -70.5 -18.5t-41.5 -52.5q-3 -15 -10 -25l1 -1q9 4 28 4h142v-86h-142q-19 0 -28 4l-1 -1q6 -7 10 -25q11 -34 41.5 -52.5t70.5 -18.5q61 0 120 31l47 -98
q-77 -43 -173 -43z" />
    <glyph glyph-name="uni0455" unicode="&#x455;" horiz-adv-x="420" 
d="M210 -15q-107 0 -196 49l49 102q76 -47 153 -47q59 0 59 34q0 12 -8.5 20.5t-31.5 19.5l-84 38q-103 44 -103 138q0 65 46.5 101.5t130.5 36.5q76 0 164 -33l-41 -100q-71 31 -128 31q-48 0 -48 -29q0 -13 10 -22.5t36 -21.5l81 -36q53 -23 76.5 -54.5t23.5 -78.5
q0 -70 -49.5 -109t-139.5 -39z" />
    <glyph glyph-name="uni0456" unicode="&#x456;" horiz-adv-x="240" 
d="M188 700v-149h-135v149h135zM181 462v-462h-122v462h122z" />
    <glyph glyph-name="uni0457" unicode="&#x457;" horiz-adv-x="268" 
d="M88 650v-133h-97v133h97zM267 650v-133h-97v133h97zM181 462v-462h-122v462h122z" />
    <glyph glyph-name="uni0458" unicode="&#x458;" horiz-adv-x="240" 
d="M188 700v-149h-135v149h135zM181 462v-479q0 -198 -195 -198h-11v116h9q75 0 75 86v475h122z" />
    <glyph glyph-name="uni0459" unicode="&#x459;" horiz-adv-x="770" 
d="M586 317q79 0 125 -41t46 -117q0 -75 -47 -117t-125 -42h-219v329q0 13 5 26l-1 1q-8 -4 -28 -4h-96q-19 0 -28 4l-1 -1q5 -10 5 -26v-56h1v-106q0 -169 -165 -169h-50v109h39q28 0 40.5 15.5t12.5 53.5v97h-1v189h390v-122q0 -16 -5 -26l1 -1q9 4 28 4h73zM568 103
q61 0 61 55q0 56 -61 56h-55q-19 0 -28 4l-1 -1q5 -10 5 -26v-65q0 -16 -5 -26l1 -1q9 4 28 4h55z" />
    <glyph glyph-name="uni045A" unicode="&#x45a;" horiz-adv-x="768" 
d="M59 0v462h122v-127q0 -16 -5 -26l1 -1q7 4 28 4h135q21 0 28 -4l1 1q-5 13 -5 26v127h123v-127q0 -13 -5 -26l1 -1q7 4 28 4h72q80 0 125.5 -39.5t45.5 -116.5q0 -74 -47 -115t-124 -41h-219v182q0 13 5 26l-1 1q-7 -4 -28 -4h-135q-21 0 -28 4l-1 -1q5 -10 5 -26v-182
h-122zM483 100q9 4 28 4h53q62 0 62 52q0 54 -62 54h-53q-21 0 -28 4l-1 -1q5 -13 5 -26v-60q0 -13 -5 -26z" />
    <glyph glyph-name="uni045B" unicode="&#x45b;" horiz-adv-x="561" 
d="M343 477q76 0 120.5 -45.5t44.5 -134.5v-297h-123v262q0 104 -90 104q-51 0 -82 -35t-31 -109v-222h-123v537q0 16 5 26l-1 1q-8 -4 -28 -4h-36v73h36q20 0 28 -4l1 1q-5 10 -5 26v59h123v-59q0 -16 -5 -26l1 -1q8 4 28 4h126v-73h-126q-20 0 -28 4l-1 -1q5 -10 5 -26
v-54q0 -72 -10 -121l4 -1q50 116 167 116z" />
    <glyph glyph-name="uni045C" unicode="&#x45c;" horiz-adv-x="508" 
d="M461 657l1 -3l-156 -151h-85l-1 3l103 151h138zM418 -3q-76 0 -95 60l-23 77q-8 32 -21 45.5t-37 13.5h-34q-19 0 -31 2l-1 -1q5 -15 5 -42v-152h-122v462h122v-134q0 -25 -5 -40l1 -1q12 2 31 2h34q24 0 36.5 10.5t23.5 40.5l31 74q20 51 92 51h64v-102h-15
q-22 0 -33.5 -6t-19.5 -23l-15 -38q-10 -27 -32.5 -39.5t-68.5 -13.5v-4q48 -1 70 -14.5t31 -43.5l18 -54q8 -17 16.5 -22.5t28.5 -5.5h20v-102h-71z" />
    <glyph glyph-name="uni045E" unicode="&#x45e;" horiz-adv-x="515" 
d="M411 660q0 -71 -42 -112.5t-109 -41.5q-66 0 -108 41.5t-42 112.5h80q3 -75 70 -75t70 75h81zM510 462l-287 -663h-125l103 234l-195 429h135l92 -220q22 -50 24 -101h4q1 39 18 80l98 241h133z" />
    <glyph glyph-name="uni045F" unicode="&#x45f;" horiz-adv-x="554" 
d="M222 -140v117q0 16 5 26l-1 1q-8 -4 -28 -4h-139v462h122v-327q0 -16 -5 -26l1 -1q8 4 28 4h144q20 0 28 -4l1 1q-5 10 -5 26v327h123v-462h-139q-20 0 -28 4l-1 -1q5 -10 5 -26v-117h-111z" />
    <glyph glyph-name="uni0462" unicode="&#x462;" horiz-adv-x="650" 
d="M399 435q109 0 172.5 -58t63.5 -159t-63 -159.5t-173 -58.5h-275v479q0 21 4 28l-2 2q-9 -4 -27 -4h-101v106h101q18 0 27 -5l2 2q-4 7 -4 28v64h128v-64q0 -18 -4 -28l2 -2q8 5 26 5h175v-106h-175q-18 0 -26 4l-2 -2q4 -10 4 -28v-20q0 -16 -4 -26l2 -2q8 4 26 4h123z
M383 116q57 0 88 26.5t31 75.5q0 48 -31.5 74.5t-87.5 26.5h-107q-18 0 -26 5l-2 -2q4 -10 4 -28v-152q0 -18 -4 -28l2 -2q8 4 26 4h107z" />
    <glyph glyph-name="uni0463" unicode="&#x463;" horiz-adv-x="493" 
d="M308 317q80 0 126 -41t46 -117q0 -75 -47.5 -117t-124.5 -42h-229v369q0 13 5 26l-1 1q-9 -4 -28 -4h-56v93h56q21 0 28 -4l1 1q-5 13 -5 26v207h123v-207q0 -16 -5 -26l1 -1q7 4 28 4h146v-93h-146q-19 0 -28 4l-1 -1q5 -10 5 -26v-29q0 -16 -5 -26l1 -1q9 4 28 4h82z
M291 103q61 0 61 55q0 27 -16 41.5t-45 14.5h-65q-19 0 -28 4l-1 -1q5 -10 5 -26v-65q0 -16 -5 -26l1 -1q9 4 28 4h65z" />
    <glyph glyph-name="uni0472" unicode="&#x472;" horiz-adv-x="795" 
d="M397 715q160 0 263.5 -103t103.5 -262t-103.5 -262t-263.5 -103q-159 0 -262.5 103.5t-103.5 261.5q0 159 103.5 262t262.5 103zM629 396l2 3q-5 9 -11 30q-21 76 -79.5 118.5t-143.5 42.5q-84 0 -142.5 -42.5t-79.5 -118.5q-5 -18 -11 -30l2 -3q11 5 34 5h395
q23 0 34 -5zM620 271q6 21 11 30l-2 3q-11 -5 -34 -5h-395q-23 0 -34 5l-2 -3q6 -12 11 -30q21 -76 79.5 -118.5t142.5 -42.5q85 0 143.5 42.5t79.5 118.5z" />
    <glyph glyph-name="uni0473" unicode="&#x473;" horiz-adv-x="565" 
d="M283 477q111 0 183 -69t72 -177t-72 -177t-183 -69t-183 69t-72 177t72 177t183 69zM412 252l2 2q-6 52 -42 81.5t-89 29.5q-54 0 -90 -29.5t-41 -81.5l2 -2q12 9 53 9h151q42 0 54 -9zM283 97q53 0 89 29.5t42 81.5l-2 2q-12 -9 -54 -9h-151q-41 0 -53 9l-2 -2
q5 -52 41 -81.5t90 -29.5z" />
    <glyph glyph-name="uni0474" unicode="&#x474;" horiz-adv-x="666" 
d="M619 713q15 0 57 -4v-117q-13 2 -35 2q-29 0 -45 -14.5t-34 -56.5l-228 -531h-21l-313 708h152l136 -358q25 -63 33 -116h4q10 55 33 116l94 239q29 74 66 103t101 29z" />
    <glyph glyph-name="uni0475" unicode="&#x475;" horiz-adv-x="504" 
d="M488 471h15v-116h-12q-44 0 -59 -33l-158 -329h-42l-226 469h139l74 -187q26 -64 32 -101h4q8 50 32 101l44 101q23 52 58.5 73.5t98.5 21.5z" />
    <glyph glyph-name="uni048A" unicode="&#x48a;" horiz-adv-x="734" 
d="M392 723q-69 0 -107.5 37t-41.5 103h84q0 -34 16.5 -53t48.5 -19t49 19t16 53h85q-3 -66 -42 -103t-108 -37zM660 93h69l-82 -233h-101l44 140h-58v342q0 87 11 123l-4 1q-17 -37 -50 -70l-398 -406h-20v710h127v-341q0 -88 -11 -124l4 -1q17 37 51 70l397 406h21v-617z
" />
    <glyph glyph-name="uni048B" unicode="&#x48b;" horiz-adv-x="572" 
d="M293 506q-66 0 -108 41.5t-42 112.5h80q3 -75 70 -75t70 75h81q0 -71 -42 -112.5t-109 -41.5zM492 93h76l-82 -233h-101l44 140h-60v156q0 72 7 108l-4 1q-13 -25 -53 -62l-226 -209h-34v468h122v-156q0 -72 -7 -108l4 -1q13 25 53 62l226 209h35v-375z" />
    <glyph glyph-name="uni048E" unicode="&#x48e;" horiz-adv-x="564" 
d="M545 493q0 -121 -88 -174l54 -77l-44 -31l-61 86q-41 -11 -86 -11h-97q-18 0 -26 5l-2 -2q4 -10 4 -28v-261h-128v700h241q110 0 171.5 -54.5t61.5 -152.5zM315 401q12 0 18 1l-54 76l44 31l61 -87q30 24 30 71q0 43 -26 68t-73 25h-92q-18 0 -26 4l-2 -2q4 -10 4 -28
v-134q0 -18 -4 -28l2 -2q8 5 26 5h92z" />
    <glyph glyph-name="uni048F" unicode="&#x48f;" horiz-adv-x="591" 
d="M563 231q0 -137 -90 -205l47 -58l-38 -32l-53 65q-40 -16 -84 -16q-123 0 -170 112l-4 -1q9 -43 9 -94v-202h-121v662h120q0 -60 -9 -96l4 -1q54 112 170 112q97 0 158 -68t61 -178zM309 97q14 0 38 4l-54 66l38 32l61 -75q43 35 43 107q0 62 -34 98t-92 36
q-59 0 -96 -37t-37 -97t37 -97t96 -37z" />
    <glyph glyph-name="uni0490" unicode="&#x490;" horiz-adv-x="500" 
d="M372 840h120v-258h-269q-18 0 -26 4l-2 -2q4 -10 4 -27v-557h-128v700h277q18 0 26 -4l2 2q-4 7 -4 27v115z" />
    <glyph glyph-name="uni0491" unicode="&#x491;" horiz-adv-x="411" 
d="M277 601h123v-249h-195q-20 0 -28 4l-1 -1q5 -10 5 -26v-329h-122v462h194q20 0 28 -4l1 1q-5 10 -5 26v116z" />
    <glyph glyph-name="uni0492" unicode="&#x492;" horiz-adv-x="538" 
d="M273 582q-18 0 -27 4l-2 -2q4 -7 4 -27v-134q0 -21 -4 -28l2 -2q12 5 27 5h189v-116h-189q-18 0 -27 4l-2 -2q4 -7 4 -27v-257h-128v257q0 17 4 27l-2 2q-8 -4 -26 -4h-88v116h88q16 0 26 -5l2 2q-4 10 -4 28v277h410v-118h-257z" />
    <glyph glyph-name="uni0493" unicode="&#x493;" horiz-adv-x="408" 
d="M235 352q-20 0 -28 4l-1 -1q5 -10 5 -26v-50q0 -16 -5 -26l1 -1q8 4 28 4h129v-103h-129q-20 0 -28 4l-1 -1q5 -10 5 -26v-130h-123v130q0 16 5 26l-1 1q-8 -4 -28 -4h-45v103h45q20 0 28 -4l1 1q-5 10 -5 26v183h315v-110h-168z" />
    <glyph glyph-name="uni0494" unicode="&#x494;" horiz-adv-x="653" 
d="M400 431q99 0 152 -52.5t53 -153.5v-229q0 -98 -50 -147t-142 -49h-73v120h61q76 0 76 90v203q0 97 -100 97q-75 0 -178 -30v-280h-128v700h437v-118h-285q-18 0 -26 4l-2 -2q4 -10 4 -27v-107q0 -37 -8 -53l2 -2q98 36 207 36z" />
    <glyph glyph-name="uni0495" unicode="&#x495;" horiz-adv-x="511" 
d="M244 -200v113h49q67 0 67 74v85q0 42 -19 60.5t-58 18.5q-44 0 -102 -21v-130h-122v462h345v-108h-199q-19 0 -28 4l-1 -1q5 -10 5 -26v-48q0 -37 -7 -50l2 -1q72 33 136 33q85 0 128 -44t43 -140v-96q0 -185 -179 -185h-60z" />
    <glyph glyph-name="uni0496" unicode="&#x496;" horiz-adv-x="1023" 
d="M934 89h80v-229h-120v135h-19q-67 0 -102.5 26t-49.5 85l-29 129q-9 44 -29.5 62t-60.5 18h-39q-20 0 -30 4l-2 -2q5 -11 5 -37v-280h-123v280q0 26 5 37l-1 2q-12 -4 -30 -4h-40q-39 0 -59.5 -18t-30.5 -62l-28 -129q-13 -58 -49.5 -84.5t-102.5 -26.5q-31 0 -60 4v124
q24 -2 35 -2q27 0 42 12.5t22 44.5l21 95q13 55 43.5 73t107.5 20v4q-80 3 -112 21.5t-45 71.5l-20 84q-10 40 -58 40q-3 0 -35 -2v116q41 3 59 3q63 0 96 -21.5t47 -73.5l30 -110q10 -41 33 -60t64 -19h40q22 0 30 -4l1 2q-5 11 -5 36v246h123v-246q0 -25 -5 -36l2 -2
q7 4 30 4h39q42 0 64 18.5t33 60.5l30 110q14 52 47.5 73.5t96.5 21.5q19 0 58 -3v-116q-30 2 -34 2q-49 0 -58 -40l-21 -84q-13 -53 -44.5 -71.5t-112.5 -21.5v-4q77 -2 108 -20t43 -73l22 -95q7 -32 22 -44.5t41 -12.5q13 0 35 2v-34z" />
    <glyph glyph-name="uni0497" unicode="&#x497;" horiz-adv-x="773" 
d="M701 67h64v-207h-110v137h-24q-75 0 -93 60l-24 77q-9 33 -21 46t-36 13h-14q-21 0 -31 2l-1 -1q5 -15 5 -42v-152h-112v152q0 22 5 42l-1 1q-10 -2 -31 -2h-14q-24 0 -36 -13t-21 -46l-23 -77q-20 -60 -93 -60h-71v100h20q18 0 27 6t17 24l17 54q10 30 32.5 43.5
t70.5 14.5v4q-47 1 -70 14t-32 39l-15 38q-9 18 -19 24.5t-28 6.5h-20v100h64q69 0 91 -51l31 -74q12 -30 23.5 -40.5t34.5 -10.5h14q21 0 31 -2l1 1q-5 20 -5 40v134h112v-134q0 -25 -5 -40l1 -1q10 2 31 2h14q24 0 35.5 10.5t23.5 40.5l31 74q21 51 91 51h64v-100h-20
q-19 0 -29 -6.5t-18 -24.5l-15 -38q-10 -27 -33 -39.5t-69 -13.5v-4q48 -1 70 -14t32 -44l17 -54q8 -18 17 -24t27 -6h20v-30z" />
    <glyph glyph-name="uni0498" unicode="&#x498;" horiz-adv-x="574" 
d="M535 189q0 -188 -227 -203l-7 -20q91 -21 91 -73q0 -20 -12 -37t-37 -32.5t-44.5 -25t-53.5 -23.5q-8 -3 -12 -5l-18 39q24 13 33 18.5t22 14t17.5 15t4.5 13.5q0 23 -60 37l28 78q-136 2 -237 56l52 112q96 -46 197 -46q132 0 132 95q0 100 -161 100h-96v122h96
q133 0 133 90q0 79 -111 79q-85 0 -180 -39l-42 118q125 43 234 43q233 0 233 -177q0 -117 -116 -154q-32 -11 -69 -12v-4q35 0 69 -6q141 -31 141 -173z" />
    <glyph glyph-name="uni0499" unicode="&#x499;" horiz-adv-x="452" 
d="M424 125q0 -127 -171 -139l-7 -20q91 -21 91 -73q0 -20 -12 -37t-37 -32.5t-44.5 -25t-53.5 -23.5q-8 -3 -12 -5l-18 39q24 13 33 18.5t22 14t17.5 15t4.5 13.5q0 23 -60 37l28 78q-113 3 -191 43l43 98q76 -38 154 -38q50 0 72 12.5t22 39.5q0 53 -78 53h-67v96h60
q61 0 61 42q0 43 -78 43q-66 0 -143 -34l-39 98q101 39 198 39q186 0 186 -121q0 -100 -119 -109v-4q138 -8 138 -118z" />
    <glyph glyph-name="uni049A" unicode="&#x49a;" horiz-adv-x="707" 
d="M623 89h75v-229h-120v135q-10 -1 -30 -1q-122 0 -144 110l-24 117q-9 49 -31.5 70t-66.5 21h-57q-23 0 -30 4l-1 -2q5 -13 5 -36v-278h-128v700h128v-251q0 -22 -5 -35l1 -2q8 4 30 4h57q41 0 63.5 21.5t33.5 71.5l24 100q23 97 145 97q37 0 64 -4v-117q-14 2 -35 2
q-49 0 -59 -41l-22 -84q-13 -54 -45.5 -73.5t-114.5 -21.5v-4q84 -2 120 -24t46 -78l18 -84q7 -34 20 -47.5t41 -13.5q9 0 42 3v-30z" />
    <glyph glyph-name="uni049B" unicode="&#x49b;" horiz-adv-x="559" 
d="M489 67h62v-207h-110v137h-23q-76 0 -95 60l-23 77q-8 32 -21 45.5t-37 13.5h-34q-19 0 -31 2l-1 -1q5 -15 5 -42v-152h-122v462h122v-134q0 -25 -5 -40l1 -1q12 2 31 2h34q24 0 36.5 10.5t23.5 40.5l31 74q20 51 92 51h64v-102h-15q-22 0 -33.5 -6t-19.5 -23l-15 -38
q-10 -27 -32.5 -39.5t-68.5 -13.5v-4q48 -1 70 -14.5t31 -43.5l18 -54q8 -17 16.5 -22.5t28.5 -5.5h20v-32z" />
    <glyph glyph-name="uni049C" unicode="&#x49c;" horiz-adv-x="639" 
d="M581 116q9 0 42 3v-121q-40 -4 -75 -4q-122 0 -144 110l-24 117q-8 44 -27 65t-54 25v-134h-54v135h-20q-23 0 -30 4l-1 -2q5 -13 5 -36v-278h-128v700h128v-251q0 -22 -5 -35l1 -2q8 4 30 4h20v144h54v-143q62 7 80 92l24 100q23 97 145 97q37 0 64 -4v-117q-14 2 -35 2
q-49 0 -59 -41l-22 -84q-13 -54 -45.5 -73.5t-114.5 -21.5v-4q84 -2 120 -24t46 -78l18 -84q7 -34 20 -47.5t41 -13.5z" />
    <glyph glyph-name="uni049D" unicode="&#x49d;" horiz-adv-x="508" 
d="M406 296q-10 -27 -32.5 -39.5t-68.5 -13.5v-4q48 -1 70 -14.5t31 -43.5l18 -54q8 -17 16.5 -22.5t28.5 -5.5h20v-102h-71q-76 0 -95 60l-23 77q-9 32 -21 45t-35 14v-103h-30v103h-6q-19 0 -31 2l-1 -1q5 -15 5 -42v-152h-122v462h122v-134q0 -25 -5 -40l1 -1q12 2 31 2
h6v100h30v-100q23 0 35 10.5t23 40.5l31 74q20 51 92 51h64v-102h-15q-22 0 -33.5 -6t-19.5 -23z" />
    <glyph glyph-name="uni049E" unicode="&#x49e;" horiz-adv-x="697" 
d="M639 116q10 0 43 3v-121q-35 -4 -81 -4q-57 0 -94 28t-47 82l-24 117q-10 46 -32.5 65.5t-63.5 19.5h-56q-25 0 -30 4l-2 -2q5 -11 5 -36v-272h-128v486q0 18 4 28l-2 2q-10 -5 -26 -5h-97v101h97q18 0 26 -4l2 2q-4 10 -4 27v63h128v-63q0 -19 -3 -27l2 -2q8 4 26 4h111
v-101h-111q-16 0 -26 5l-2 -2q3 -8 3 -28v-31q0 -25 -5 -35l2 -2q7 4 30 4h56q39 0 62 20.5t33 66.5l24 100q23 97 147 97q34 0 65 -4v-117q-17 2 -36 2q-49 0 -59 -41l-21 -84q-13 -54 -45.5 -73.5t-114.5 -22.5v-2q82 -3 118.5 -25t47.5 -78l17 -84q7 -35 20.5 -48
t40.5 -13z" />
    <glyph glyph-name="uni049F" unicode="&#x49f;" horiz-adv-x="533" 
d="M431 296q-10 -27 -32.5 -39.5t-68.5 -13.5v-4q48 -1 70 -14.5t31 -43.5l18 -54q8 -17 16.5 -22.5t28.5 -5.5h20v-102h-71q-75 0 -95 60l-23 77q-8 32 -21 45.5t-37 13.5h-34q-19 0 -31 2l-1 -1q5 -15 5 -42v-152h-122v537q0 16 5 26l-1 1q-8 -4 -28 -4h-61v73h61
q20 0 28 -4l1 1q-5 10 -5 26v59h122v-59q0 -16 -5 -26l1 -1q8 4 28 4h142v-73h-142q-20 0 -28 4l-1 -1q5 -10 5 -26v-209q0 -25 -5 -40l1 -1q12 2 31 2h34q24 0 36.5 10.5t23.5 40.5l31 74q20 51 92 51h64v-102h-15q-22 0 -33.5 -6t-19.5 -23z" />
    <glyph glyph-name="uni04A0" unicode="&#x4a0;" horiz-adv-x="753" 
d="M695 116q9 0 42 3v-121q-54 -4 -77 -4q-120 0 -142 110l-24 117q-10 46 -33 65.5t-65 19.5h-57q-23 0 -30 4l-1 -2q5 -11 5 -36v-272h-128v557q0 20 4 27l-2 2q-8 -4 -26 -4h-153v118h305v-245q0 -25 -5 -35l1 -2q8 4 30 4h57q76 0 97 87l24 100q23 97 149 97q32 0 60 -4
v-117q-16 2 -35 2q-49 0 -59 -41l-21 -84q-13 -54 -46.5 -73.5t-114.5 -22.5v-2q84 -3 120 -25t47 -78l17 -84q7 -35 20.5 -48t40.5 -13z" />
    <glyph glyph-name="uni04A1" unicode="&#x4a1;" horiz-adv-x="589" 
d="M495 296q-11 -27 -35 -39.5t-74 -13.5v-4q51 -1 74.5 -14t35.5 -44l17 -54q6 -17 13 -22.5t24 -5.5h20v-102h-71q-73 0 -92 60l-23 77q-9 29 -22.5 41.5t-38.5 12.5h-33q-21 0 -31 2l-1 -1q5 -20 5 -42v-147h-123v329q0 16 5 26l-1 1q-9 -4 -28 -4h-111v110h258v-129
q0 -20 -5 -40l1 -1q10 2 31 2h33q25 0 38 10t24 36l32 74q20 51 89 51h64v-102h-16q-32 0 -44 -29z" />
    <glyph glyph-name="uni04A2" unicode="&#x4a2;" horiz-adv-x="737" 
d="M653 89h75v-229h-120v140h-83v285q0 21 4 28l-2 2q-10 -5 -27 -5h-277q-16 0 -26 5l-2 -2q4 -10 4 -28v-285h-128v700h128v-245q0 -18 -4 -28l2 -2q8 4 26 4h277q19 0 27 -4l2 2q-4 7 -4 28v245h128v-611z" />
    <glyph glyph-name="uni04A3" unicode="&#x4a3;" horiz-adv-x="577" 
d="M507 67h61v-207h-110v140h-74v169q0 16 5 26l-1 1q-8 -4 -28 -4h-155q-20 0 -28 4l-1 -1q5 -10 5 -26v-169h-122v462h122v-138q0 -16 -5 -26l1 -1q8 4 28 4h155q20 0 28 -4l1 1q-5 10 -5 26v138h123v-395z" />
    <glyph glyph-name="uni04A4" unicode="&#x4a4;" horiz-adv-x="913" 
d="M509 700h396v-119h-243q-18 0 -26 4l-2 -2q3 -7 3 -27v-556h-128v285q0 18 4 28l-2 2q-10 -5 -26 -5h-262q-16 0 -26 5l-2 -2q4 -10 4 -28v-285h-128v700h128v-245q0 -18 -4 -28l2 -2q8 4 26 4h262q18 0 26 -4l2 2q-4 10 -4 28v245z" />
    <glyph glyph-name="uni04A5" unicode="&#x4a5;" horiz-adv-x="672" 
d="M370 462h297v-108h-150q-20 0 -28 4l-1 -1q5 -10 5 -26v-331h-123v171q0 16 5 26l-1 1q-8 -4 -28 -4h-141q-20 0 -28 4l-1 -1q5 -10 5 -26v-171h-122v462h122v-138q0 -16 -5 -26l1 -1q8 4 28 4h141q20 0 28 -4l1 1q-5 10 -5 26v138z" />
    <glyph glyph-name="uni04A6" unicode="&#x4a6;" horiz-adv-x="1070" 
d="M850 431q101 0 155 -50.5t54 -147.5v-42q0 -191 -196 -191h-77v120h53q49 0 70.5 18.5t21.5 61.5v22q0 43 -27 65.5t-77 22.5q-78 0 -184 -30v-280h-128v557q0 17 4 27l-2 2q-8 -4 -26 -4h-268q-18 0 -26 4l-2 -2q4 -10 4 -27v-557h-128v700h572v-250q0 -36 -7 -53l2 -2
q100 36 212 36z" />
    <glyph glyph-name="uni04A7" unicode="&#x4a7;" horiz-adv-x="817" 
d="M629 300q170 0 170 -183v-132q0 -185 -179 -185h-59v113h48q68 0 68 74v120q0 43 -19 61.5t-58 18.5q-42 0 -102 -22v-165h-123v329q0 13 5 26l-1 1q-9 -4 -28 -4h-146q-19 0 -28 4l-1 -1q5 -10 5 -26v-329h-122v462h439v-144q0 -34 -7 -49l2 -2q69 33 136 33z" />
    <glyph glyph-name="uni04A8" unicode="&#x4a8;" horiz-adv-x="810" 
d="M381 -15q-154 0 -247 99.5t-93 265.5q0 169 101 267t275 98q59 0 110 -13l-32 -118q-25 8 -72 8q-114 0 -178 -65.5t-64 -181.5q0 -104 50 -170.5t136 -76.5q21 -4 53 -7v2q-23 12 -41 35q-53 69 -53 175q0 101 56 161.5t150 60.5q90 0 143.5 -58t53.5 -156
q0 -110 -63 -187q-17 -22 -43 -32v-3q15 1 35 1q52 0 109 27l38 -98q-75 -34 -153 -34q-46 0 -78 10t-39 27h-3q-53 -37 -151 -37zM517 114h2q35 38 38 42q51 53 51 145q0 102 -76 102q-79 0 -79 -107q0 -82 45 -137q23 -28 19 -45z" />
    <glyph glyph-name="uni04A9" unicode="&#x4a9;" horiz-adv-x="587" 
d="M278 -15q-115 0 -182.5 67t-67.5 183q0 118 72.5 180t199.5 62q52 0 98 -9l-23 -101q-33 6 -64 6q-75 0 -116.5 -36t-41.5 -107q0 -104 83 -142q11 -6 39 -10l1 2q-16 8 -26 27q-18 37 -18 81q0 69 44 109t115 40q69 0 109 -37t40 -105q0 -56 -30 -100q-13 -19 -36 -30
l1 -2q15 3 29 5q22 4 50 18l28 -77q-51 -24 -103 -24q-69 0 -84 27h-2q-46 -27 -115 -27zM370 87l2 -1q70 37 70 97q0 28 -14 45.5t-38 17.5t-38.5 -18t-14.5 -50q0 -37 21 -64q10 -13 12 -27z" />
    <glyph glyph-name="uni04AA" unicode="&#x4aa;" horiz-adv-x="681" 
d="M658 62q-99 -71 -232 -77l-7 -19q91 -21 91 -73q0 -20 -12 -37t-37 -32.5t-44.5 -25t-53.5 -23.5q-8 -3 -12 -5l-18 39q24 13 33 18.5t22 14t17.5 15t4.5 13.5q0 23 -60 37l28 79q-155 9 -251 109.5t-96 254.5q0 161 105 263t271 102q142 0 251 -77l-71 -108
q-84 58 -180 58q-106 0 -172.5 -66t-66.5 -172t66.5 -172t172.5 -66q96 0 180 58z" />
    <glyph glyph-name="uni04AB" unicode="&#x4ab;" horiz-adv-x="464" 
d="M445 31q-68 -42 -143 -45l-7 -20q91 -21 91 -73q0 -20 -12 -37t-37 -32.5t-44.5 -25t-53.5 -23.5q-8 -3 -12 -5l-18 39q24 13 33 18.5t22 14t17.5 15t4.5 13.5q0 23 -60 37l29 79q-102 9 -164.5 76t-62.5 169q0 109 71 177.5t184 68.5q88 0 162 -46l-53 -101
q-48 32 -107 32q-58 0 -94.5 -36.5t-36.5 -94.5t36.5 -94.5t94.5 -36.5q59 0 107 32z" />
    <glyph glyph-name="uni04AC" unicode="&#x4ac;" horiz-adv-x="530" 
d="M354 581q-18 0 -26 4l-2 -2q3 -7 3 -27v-467h80v-229h-120v140h-88v556q0 17 4 27l-2 2q-9 -4 -26 -4h-169v119h514v-119h-168z" />
    <glyph glyph-name="uni04AD" unicode="&#x4ad;" horiz-adv-x="451" 
d="M311 352q-20 0 -28 4l-1 -1q5 -10 5 -26v-262h66v-207h-110v140h-79v329q0 16 5 26l-1 1q-8 -4 -28 -4h-135v110h441v-110h-135z" />
    <glyph glyph-name="uni04AE" unicode="&#x4ae;" horiz-adv-x="612" 
d="M607 700l-237 -435v-265h-128v265l-237 435h152l105 -221q4 -8 11 -23t9 -19l7 -14t6 -14t3.5 -11.5t4 -13t2.5 -13.5h2q6 32 43 108l106 221h151z" />
    <glyph glyph-name="uni04AF" unicode="&#x4af;" horiz-adv-x="512" 
d="M507 462l-192 -392v-270h-122v281l-187 381h139l78 -188q27 -66 32 -102h2q5 36 32 102l79 188h139z" />
    <glyph glyph-name="uni04B0" unicode="&#x4b0;" horiz-adv-x="612" 
d="M372 263q8 4 26 4h101v-100h-104q-19 0 -27 4l-2 -2q4 -7 4 -27v-142h-128v142q0 17 4 27l-2 2q-8 -4 -26 -4h-104v100h100q18 0 26 -4l2 2l-237 435h150l107 -221q33 -68 42 -108h4q9 40 42 108l107 221h150l-237 -435z" />
    <glyph glyph-name="uni04B1" unicode="&#x4b1;" horiz-adv-x="532" 
d="M327 72q8 4 27 4h91v-111h-93q-20 0 -28 4l-1 -1q5 -10 5 -26v-142h-123v142q0 16 5 26l-1 1q-8 -4 -28 -4h-94v111h91q19 0 27 -4l2 1l-191 389h139l78 -188q27 -66 32 -102h2q5 36 32 102l79 188h139l-191 -389z" />
    <glyph glyph-name="uni04B2" unicode="&#x4b2;" horiz-adv-x="707" 
d="M610 89h88v-229h-120v140h-66l-136 212q-31 49 -37 77h-4q-4 -25 -37 -77l-133 -212h-157l205 309q34 49 47 64v3q-13 12 -43 56l-181 268h157l108 -168q32 -51 38 -78h4q4 23 37 78l104 168h158l-182 -271q-26 -40 -43 -57v-3q17 -18 47 -63z" />
    <glyph glyph-name="uni04B3" unicode="&#x4b3;" horiz-adv-x="552" 
d="M475 67h69v-207h-110v140h-54l-80 111q-27 36 -32 70h-4q-5 -32 -32 -70l-79 -111h-145l156 212q17 23 28 28v3q-9 5 -27 27l-139 192h146l59 -87q29 -42 34 -73h4q4 30 34 73l58 87h146l-139 -192q-17 -22 -27 -27v-3q12 -5 28 -29z" />
    <glyph glyph-name="uni04B4" unicode="&#x4b4;" horiz-adv-x="875" 
d="M790 118h62v-257h-121v114q0 17 4 27l-2 2q-7 -4 -27 -4h-489v556q0 20 3 27l-2 2q-7 -4 -26 -4h-184v119h510v-119h-149q-17 0 -26 4l-2 -2q4 -10 4 -27v-413q0 -19 -5 -27l2 -2q9 4 27 4h244q19 0 27 -4l2 2q-4 10 -4 27v557h128v-557q0 -19 -5 -27l2 -2q8 4 27 4z" />
    <glyph glyph-name="uni04B5" unicode="&#x4b5;" horiz-adv-x="634" 
d="M581 110h35v-250h-111v117q0 16 5 26l-1 1q-8 -4 -28 -4h-349v327q0 16 5 26l-1 1q-8 -4 -28 -4h-103v112h359v-112h-85q-20 0 -28 4l-1 -1q5 -10 5 -26v-194q0 -16 -5 -26l1 -1q8 4 28 4h131q20 0 28 -4l1 1q-5 10 -5 26v329h123v-329q0 -16 -5 -26l1 -1q8 4 28 4z" />
    <glyph glyph-name="uni04B6" unicode="&#x4b6;" horiz-adv-x="643" 
d="M555 89h79v-229h-120v140h-87v242q0 39 7 53l-2 2q-93 -35 -203 -35q-106 0 -162 59.5t-56 172.5v206h128v-194q0 -60 28.5 -92t83.5 -32q75 0 176 30v288h128v-611z" />
    <glyph glyph-name="uni04B7" unicode="&#x4b7;" horiz-adv-x="515" 
d="M441 67h66v-207h-110v140h-79v142q0 34 7 49l-2 2q-72 -33 -142 -33q-86 0 -129.5 44.5t-43.5 139.5v118h123v-109q0 -43 19.5 -61.5t59.5 -18.5q45 0 108 22v167h123v-395z" />
    <glyph glyph-name="uni04B8" unicode="&#x4b8;" horiz-adv-x="625" 
d="M427 700h128v-700h-128v242q0 39 7 53l-2 2q-54 -20 -121 -30v-109h-54v105q-9 -1 -28 -1q-106 0 -162 59.5t-56 172.5v206h128v-194q0 -60 28.5 -92t83.5 -32h6v159h54v-155q43 5 116 26v288z" />
    <glyph glyph-name="uni04B9" unicode="&#x4b9;" horiz-adv-x="497" 
d="M318 462h123v-462h-123v142q0 34 7 49l-2 2q-36 -17 -80 -27v-74h-30v70q-20 -2 -32 -2q-86 0 -129.5 44.5t-43.5 139.5v118h123v-109q0 -43 19.5 -61.5t59.5 -18.5h3v100h30v-97q34 5 75 19v167z" />
    <glyph glyph-name="uni04BA" unicode="&#x4ba;" horiz-adv-x="625" 
d="M198 700v-242q0 -39 -7 -53l2 -2q93 35 203 35q106 0 162 -59.5t56 -172.5v-206h-128v194q0 60 -28.5 92t-83.5 32q-75 0 -176 -30v-288h-128v700h128z" />
    <glyph glyph-name="uni04BB" unicode="&#x4bb;" horiz-adv-x="561" 
d="M181 715v-232q0 -67 -10 -121l4 -1q51 116 167 116q78 0 121.5 -47t43.5 -133v-297h-123v262q0 104 -89 104q-53 0 -83.5 -36.5t-30.5 -107.5v-222h-122v715h122z" />
    <glyph glyph-name="uni04BC" unicode="&#x4bc;" horiz-adv-x="920" 
d="M557 -15q-294 0 -359 273q-4 21 -1 35l-2 2q-10 -4 -32 -4q-76 0 -115.5 39.5t-39.5 115.5q0 44 9 80h118q-10 -36 -10 -62q0 -55 46 -58q16 -1 24 -6l2 1q-3 19 1 37q25 126 118.5 201.5t236.5 75.5q162 0 249 -97.5t87 -263.5v-64h-516q-25 0 -46 8l-2 -3q6 -10 14 -37
q20 -68 74.5 -107t144.5 -39q69 0 118.5 21t98.5 58l68 -109q-123 -97 -286 -97zM331 399q13 5 42 5h330q34 0 48 -5l2 2q-6 12 -10 34q-12 68 -58.5 111.5t-136.5 43.5q-164 0 -209 -154q-2 -12 -10 -35z" />
    <glyph glyph-name="uni04BD" unicode="&#x4bd;" horiz-adv-x="633" 
d="M394 -15q-101 0 -166.5 51.5t-80.5 143.5q-2 20 0 27l-1 1q-17 -5 -29 -5q-118 0 -118 127q0 25 8 51h85q-7 -24 -7 -50q0 -25 9 -35t32 -11q13 0 24 -5l2 2q-1 10 3 30q21 76 82 120.5t145 44.5q104 0 164.5 -65t60.5 -180v-29h-285q-42 0 -58 10l-2 -3l3 -11
q17 -106 130 -106q77 0 137 55l55 -88q-81 -75 -193 -75zM265 276q12 9 50 9h110q48 0 57 -8l2 2q-4 47 -32 72.5t-76 25.5q-46 0 -76.5 -26.5t-36.5 -72.5z" />
    <glyph glyph-name="uni04BE" unicode="&#x4be;" horiz-adv-x="920" 
d="M373 290q-25 0 -46 8l-2 -3q6 -10 14 -37q20 -68 74.5 -107t144.5 -39q69 0 118.5 21t98.5 58l68 -109q-59 -47 -126 -71l4 -1q-85 -73 -85 -106q0 -25 32 -25q16 0 39 5l15 -72q-48 -12 -71 -12q-45 0 -72 20.5t-27 58.5q0 49 69 110q-27 -4 -64 -4q-294 0 -359 273
q-4 21 -1 35l-2 2q-10 -4 -32 -4q-76 0 -115.5 39.5t-39.5 115.5q0 44 9 80h118q-10 -36 -10 -62q0 -55 46 -58q16 -1 24 -6l2 1q-3 19 1 37q25 126 118.5 201.5t236.5 75.5q162 0 249 -97.5t87 -263.5v-64h-516zM339 436q-2 -12 -10 -35l2 -2q13 5 42 5h330q34 0 48 -5l2 2
q-6 12 -10 34q-12 68 -58.5 111.5t-136.5 43.5q-164 0 -209 -154z" />
    <glyph glyph-name="uni04BF" unicode="&#x4bf;" horiz-adv-x="633" 
d="M322 203q-42 0 -58 10l-2 -3l3 -11q17 -106 130 -106q77 0 137 55l55 -88q-37 -33 -74 -50l3 -1q-85 -73 -85 -106q0 -25 32 -25q16 0 39 5l15 -72q-48 -12 -71 -12q-45 0 -72 20.5t-27 58.5q0 49 67 108q-7 -1 -20 -1q-101 0 -166.5 51.5t-80.5 143.5q-2 20 0 27l-1 1
q-17 -5 -29 -5q-118 0 -118 127q0 25 8 51h85q-7 -24 -7 -50q0 -25 9 -35t32 -11q13 0 24 -5l2 2q-1 10 3 30q21 76 82 120.5t145 44.5q104 0 164.5 -65t60.5 -180v-29h-285zM376 377q-46 0 -76.5 -26.5t-36.5 -72.5l2 -2q12 9 50 9h110q48 0 57 -8l2 2q-4 47 -32 72.5
t-76 25.5z" />
    <glyph glyph-name="uni04C0" unicode="&#x4c0;" horiz-adv-x="269" 
d="M199 700v-700h-128v700h128z" />
    <glyph glyph-name="uni04C1" unicode="&#x4c1;" horiz-adv-x="953" 
d="M627 863q-3 -66 -42 -103t-108 -37t-107.5 37t-41.5 103h84q0 -34 16.5 -53t48.5 -19t49 19t16 53h85zM79 -5q-31 0 -60 4v124q24 -2 35 -2q27 0 42 12.5t22 44.5l21 95q13 55 43.5 73t107.5 20v4q-80 3 -112 21.5t-45 71.5l-20 84q-10 40 -58 40q-3 0 -35 -2v116
q41 3 59 3q63 0 96 -21.5t47 -73.5l30 -110q10 -41 33 -60t64 -19h40q22 0 30 -4l1 2q-5 11 -5 36v246h123v-246q0 -25 -5 -36l2 -2q7 4 30 4h39q42 0 64 18.5t33 60.5l30 110q14 52 47.5 73.5t96.5 21.5q19 0 58 -3v-116q-30 2 -34 2q-49 0 -58 -40l-21 -84
q-13 -53 -44.5 -71.5t-112.5 -21.5v-4q77 -2 108 -20t43 -73l22 -95q7 -32 22 -44.5t41 -12.5q13 0 35 2v-124q-29 -4 -59 -4q-67 0 -102.5 26t-49.5 85l-29 129q-9 44 -29.5 62t-60.5 18h-39q-20 0 -30 4l-2 -2q5 -11 5 -37v-280h-123v280q0 26 5 37l-1 2q-12 -4 -30 -4
h-40q-39 0 -59.5 -18t-30.5 -62l-28 -129q-13 -58 -49.5 -84.5t-102.5 -26.5z" />
    <glyph glyph-name="uni04C2" unicode="&#x4c2;" horiz-adv-x="721" 
d="M511 660q0 -71 -42 -112.5t-109 -41.5q-66 0 -108 41.5t-42 112.5h80q3 -75 70 -75t70 75h81zM19 -3v100h20q18 0 27 6t17 24l17 54q10 30 32.5 43.5t70.5 14.5v4q-47 1 -70 14t-32 39l-15 38q-9 18 -19 24.5t-28 6.5h-20v100h64q69 0 91 -51l31 -74q12 -30 23.5 -40.5
t34.5 -10.5h14q21 0 31 -2l1 1q-5 20 -5 40v134h112v-134q0 -25 -5 -40l1 -1q10 2 31 2h14q24 0 35.5 10.5t23.5 40.5l31 74q21 51 91 51h64v-100h-20q-19 0 -29 -6.5t-18 -24.5l-15 -38q-10 -27 -33 -39.5t-69 -13.5v-4q48 -1 70 -14t32 -44l17 -54q8 -18 17 -24t27 -6h20
v-100h-70q-75 0 -93 60l-24 77q-9 33 -21 46t-36 13h-14q-21 0 -31 2l-1 -1q5 -15 5 -42v-152h-112v152q0 22 5 42l-1 1q-10 -2 -31 -2h-14q-24 0 -36 -13t-21 -46l-23 -77q-20 -60 -93 -60h-71z" />
    <glyph glyph-name="uni04C3" unicode="&#x4c3;" horiz-adv-x="671" 
d="M359 370q130 -2 194.5 -55.5t64.5 -164.5v-153q0 -98 -50.5 -147.5t-142.5 -49.5h-73v121h61q77 0 77 89v140q0 86 -61 122.5t-204 36.5q-23 0 -30 3l-1 -2q5 -13 5 -36v-274h-128v700h128v-251q0 -22 -5 -35l1 -2q8 4 30 4h57q39 0 61.5 22t32.5 71l25 100q24 97 151 97
q32 0 60 -4v-117q-16 2 -35 2q-26 0 -40 -9.5t-19 -31.5l-22 -83q-10 -40 -41 -60.5t-96 -30.5v-2z" />
    <glyph glyph-name="uni04C4" unicode="&#x4c4;" horiz-adv-x="509" 
d="M295 239q195 0 195 -160v-94q0 -185 -179 -185h-59v113h48q70 0 70 74v94q0 108 -124 110l-38 1q-19 0 -31 2l-1 -1q5 -15 5 -42v-151h-122v462h122v-134q0 -25 -5 -40l1 -1q12 2 31 2h28q26 0 38 11t24 40l32 74q21 51 89 51h64v-102h-16q-40 0 -50 -29l-15 -38
q-11 -27 -34.5 -39.5t-72.5 -13.5v-4z" />
    <glyph glyph-name="uni04C5" unicode="&#x4c5;" horiz-adv-x="777" 
d="M680 93h92l-82 -233h-101l44 140h-81v557q0 20 4 27l-2 2q-9 -4 -27 -4h-243q-18 0 -26 4l-2 -2q4 -10 4 -27v-373q0 -97 -41 -143t-127 -46q-31 0 -71 4v119q20 -2 55 -2q29 0 42.5 17t13.5 54v513h548v-607z" />
    <glyph glyph-name="uni04C6" unicode="&#x4c6;" horiz-adv-x="585" 
d="M492 93h88l-82 -233h-101l44 140h-72v329q0 13 5 26l-1 1q-9 -4 -28 -4h-100q-20 0 -28 4l-1 -1q5 -13 5 -26v-162q0 -169 -165 -169h-48v109h37q28 0 40.5 15.5t12.5 53.5v286h394v-369z" />
    <glyph glyph-name="uni04C7" unicode="&#x4c7;" horiz-adv-x="724" 
d="M525 700h128v-714q0 -186 -191 -186h-52v121h49q35 0 50.5 18t15.5 57v289q0 21 4 28l-2 2q-10 -5 -27 -5h-277q-16 0 -26 5l-2 -2q4 -10 4 -28v-285h-128v700h128v-245q0 -18 -4 -28l2 -2q8 4 26 4h277q19 0 27 -4l2 2q-4 7 -4 28v245z" />
    <glyph glyph-name="uni04C8" unicode="&#x4c8;" horiz-adv-x="566" 
d="M507 9h1v-29q0 -91 -48 -135.5t-136 -44.5h-50v116h47q64 0 64 72v12h-1v169q0 16 5 26l-1 1q-8 -4 -28 -4h-155q-20 0 -28 4l-1 -1q5 -10 5 -26v-169h-122v462h122v-138q0 -16 -5 -26l1 -1q8 4 28 4h155q20 0 28 -4l1 1q-5 10 -5 26v138h123v-453z" />
    <glyph glyph-name="uni04C9" unicode="&#x4c9;" horiz-adv-x="748" 
d="M653 93h91l-82 -233h-101l44 140h-80v285q0 21 4 28l-2 2q-10 -5 -27 -5h-277q-16 0 -26 5l-2 -2q4 -10 4 -28v-285h-128v700h128v-245q0 -18 -4 -28l2 -2q8 4 26 4h277q19 0 27 -4l2 2q-4 7 -4 28v245h128v-607z" />
    <glyph glyph-name="uni04CA" unicode="&#x4ca;" horiz-adv-x="606" 
d="M507 93h94l-82 -233h-101l44 140h-78v169q0 16 5 26l-1 1q-8 -4 -28 -4h-155q-20 0 -28 4l-1 -1q5 -10 5 -26v-169h-122v462h122v-138q0 -16 -5 -26l1 -1q8 4 28 4h155q20 0 28 -4l1 1q-5 10 -5 26v138h123v-369z" />
    <glyph glyph-name="uni04CB" unicode="&#x4cb;" horiz-adv-x="625" 
d="M555 700v-700h-97v-140h-120v229h89v153q0 39 7 53l-2 2q-93 -35 -203 -35q-106 0 -162 59.5t-56 172.5v206h128v-194q0 -60 28.5 -92t83.5 -32q75 0 176 30v288h128z" />
    <glyph glyph-name="uni04CC" unicode="&#x4cc;" horiz-adv-x="497" 
d="M318 462h123v-462h-89v-140h-110v207h76v75q0 34 7 49l-2 2q-72 -33 -142 -33q-86 0 -129.5 44.5t-43.5 139.5v118h123v-109q0 -43 19.5 -61.5t59.5 -18.5q45 0 108 22v167z" />
    <glyph glyph-name="uni04CD" unicode="&#x4cd;" horiz-adv-x="975" 
d="M881 93h90l-82 -233h-101l44 140h-57l-101 333q-14 45 -16 101h-4q-4 -43 -29 -99l-157 -342h-16l-157 342q-26 57 -29 99h-4q-2 -56 -16 -101l-102 -333h-136l232 710h21l179 -410q14 -33 18 -76h4q5 46 17 76l179 410h21z" />
    <glyph glyph-name="uni04CE" unicode="&#x4ce;" horiz-adv-x="747" 
d="M660 93h83l-82 -233h-101l44 140h-39l-62 174q-17 50 -19 74h-4q-2 -15 -27 -72l-85 -183h-33l-85 183q-24 52 -27 72h-4q-2 -26 -20 -74l-61 -174h-132l186 469h32l105 -221q16 -31 20 -56h4q5 26 21 56l105 221h32z" />
    <glyph glyph-name="uni04CF" unicode="&#x4cf;" horiz-adv-x="240" 
d="M181 462v-462h-122v462h122z" />
    <glyph glyph-name="uni04D0" unicode="&#x4d0;" horiz-adv-x="713" 
d="M507 863q-3 -66 -42 -103t-108 -37t-107.5 37t-41.5 103h84q0 -34 16.5 -53t48.5 -19t49 19t16 53h85zM8 0l338 714h21l338 -714h-142l-74 166h-265l-74 -166h-142zM256 264q15 3 51 3h99q36 0 51 -3l1 1q-14 18 -30 52l-46 110q-22 52 -23 76h-4q-3 -25 -24 -76
l-46 -110q-13 -31 -30 -52z" />
    <glyph glyph-name="uni04D1" unicode="&#x4d1;" horiz-adv-x="514" 
d="M408 660q0 -71 -42 -112.5t-109 -41.5q-66 0 -108 41.5t-42 112.5h80q3 -75 70 -75t70 75h81zM253 477q110 0 159 -44t49 -142v-291h-124q0 47 15 82l-4 2q-51 -99 -159 -99q-74 0 -119.5 44.5t-45.5 117.5t45.5 116.5t121.5 43.5q106 0 155 -80l4 2q-8 24 -8 68
q-5 74 -102 74q-54 0 -137 -20l-24 103q90 23 174 23zM238 223q-37 0 -60 -20t-23 -52t22.5 -51.5t59.5 -19.5q38 0 62 20t24 52q0 31 -23.5 51t-61.5 20z" />
    <glyph glyph-name="uni04D2" unicode="&#x4d2;" horiz-adv-x="713" 
d="M213 859h102v-116h-102v116zM399 859h102v-116h-102v116zM8 0l338 714h21l338 -714h-142l-74 166h-265l-74 -166h-142zM256 264q15 3 51 3h99q36 0 51 -3l1 1q-14 18 -30 52l-46 110q-22 52 -23 76h-4q-3 -25 -24 -76l-46 -110q-13 -31 -30 -52z" />
    <glyph glyph-name="uni04D3" unicode="&#x4d3;" horiz-adv-x="514" 
d="M216 650v-133h-97v133h97zM395 650v-133h-97v133h97zM253 477q110 0 159 -44t49 -142v-291h-124q0 47 15 82l-4 2q-51 -99 -159 -99q-74 0 -119.5 44.5t-45.5 117.5t45.5 116.5t121.5 43.5q106 0 155 -80l4 2q-8 24 -8 68q-5 74 -102 74q-54 0 -137 -20l-24 103
q90 23 174 23zM238 223q-37 0 -60 -20t-23 -52t22.5 -51.5t59.5 -19.5q38 0 62 20t24 52q0 31 -23.5 51t-61.5 20z" />
    <glyph glyph-name="uni04D4" unicode="&#x4d4;" horiz-adv-x="941" 
d="M663 117h238v-117h-382v140q0 18 4 28l-2 2q-8 -4 -26 -4h-228l-105 -166h-154l465 700h424v-117h-234q-18 0 -26 4l-2 -2q4 -10 4 -28v-98q0 -18 -4 -28l2 -2q8 4 26 4h209v-116h-209q-18 0 -26 4l-2 -2q4 -10 4 -28v-148q0 -18 -4 -28l2 -2q8 4 26 4zM523 265
q-4 10 -4 28v223q0 39 7 78h-2q-16 -44 -36 -77l-133 -211q-18 -30 -39 -43l1 -2q19 6 54 6h124q19 0 26 -4z" />
    <glyph glyph-name="uni04D5" unicode="&#x4d5;" horiz-adv-x="825" 
d="M197 -15q-80 0 -126.5 46t-46.5 119q0 72 46.5 114.5t122.5 42.5q103 0 153 -80l3 2q-6 21 -8 69q-3 73 -104 73q-52 0 -135 -20l-24 103q96 23 174 23q65 0 100 -18.5t54 -62.5h1q58 81 169 81q103 0 163 -65t60 -180v-29h-286q-40 0 -57 9l-2 -3l3 -8q17 -108 130 -108
q77 0 137 55l56 -88q-81 -75 -190 -75q-72 0 -125 31.5t-77 86.5h-3q-22 -54 -72 -86t-116 -32zM457 276q14 9 50 9h110q44 0 57 -8l2 2q-4 47 -31.5 72.5t-74.5 25.5t-77.5 -26.5t-37.5 -72.5zM237 80q38 0 62 20t24 52q0 31 -24 51t-62 20q-37 0 -60 -19.5t-23 -51.5
t23 -52t60 -20z" />
    <glyph glyph-name="uni04D6" unicode="&#x4d6;" horiz-adv-x="529" 
d="M440 863q-3 -66 -42 -103t-108 -37t-107.5 37t-41.5 103h84q0 -34 16.5 -53t48.5 -19t49 19t16 53h85zM485 700v-117h-262q-16 0 -26 5l-2 -2q4 -10 4 -28v-99q0 -18 -4 -28l2 -2q8 4 26 4h232v-116h-232q-16 0 -26 5l-2 -2q4 -10 4 -28v-150q0 -18 -4 -28l2 -2
q10 5 26 5h266v-117h-418v700h414z" />
    <glyph glyph-name="uni04D7" unicode="&#x4d7;" horiz-adv-x="518" 
d="M419 660q0 -71 -42 -112.5t-109 -41.5q-66 0 -108 41.5t-42 112.5h80q3 -75 70 -75t70 75h81zM267 477q105 0 165 -65t60 -180v-29h-286q-42 0 -58 10l-2 -3l4 -11q17 -106 130 -106q77 0 137 55l56 -88q-83 -75 -193 -75q-114 0 -183 66.5t-69 178.5t66 179.5t173 67.5z
M263 377q-47 0 -78 -26.5t-37 -72.5l2 -2q14 9 50 9h109q48 0 57 -8l2 2q-3 47 -31 72.5t-74 25.5z" />
    <glyph glyph-name="uni04D8" unicode="&#x4d8;" horiz-adv-x="763" 
d="M368 715q166 0 265 -95.5t99 -267.5q0 -168 -95.5 -267.5t-261.5 -99.5q-164 0 -254 97.5t-90 267.5v60h521q26 0 46 -8l2 3q-6 10 -14 37q-42 146 -224 146q-116 0 -218 -72l-65 110q125 89 289 89zM596 301q-14 -5 -47 -5h-335q-38 0 -50 5l-3 -2q8 -11 11 -32
q10 -67 62 -112.5t145 -45.5q170 0 208 156q8 26 11 34z" />
    <glyph glyph-name="uni04D9" unicode="&#x4d9;" horiz-adv-x="518" 
d="M251 -15q-105 0 -165 65t-60 180v29h286q42 0 58 -10l2 3l-4 11q-17 106 -130 106q-77 0 -137 -55l-56 88q82 75 193 75q114 0 183 -66.5t69 -178.5t-66 -179.5t-173 -67.5zM255 85q47 0 78 26.5t37 72.5l-2 2q-14 -9 -50 -9h-109q-48 0 -57 8l-2 -2q3 -47 31 -72.5
t74 -25.5z" />
    <glyph glyph-name="uni04DA" unicode="&#x4da;" horiz-adv-x="763" 
d="M234 859h102v-116h-102v116zM420 859h102v-116h-102v116zM368 715q166 0 265 -95.5t99 -267.5q0 -168 -95.5 -267.5t-261.5 -99.5q-164 0 -254 97.5t-90 267.5v60h521q26 0 46 -8l2 3q-6 10 -14 37q-42 146 -224 146q-116 0 -218 -72l-65 110q125 89 289 89zM596 301
q-14 -5 -47 -5h-335q-38 0 -50 5l-3 -2q8 -11 11 -32q10 -67 62 -112.5t145 -45.5q170 0 208 156q8 26 11 34z" />
    <glyph glyph-name="uni04DB" unicode="&#x4db;" horiz-adv-x="518" 
d="M220 650v-133h-97v133h97zM399 650v-133h-97v133h97zM251 -15q-105 0 -165 65t-60 180v29h286q42 0 58 -10l2 3l-4 11q-17 106 -130 106q-77 0 -137 -55l-56 88q82 75 193 75q114 0 183 -66.5t69 -178.5t-66 -179.5t-173 -67.5zM255 85q47 0 78 26.5t37 72.5l-2 2
q-14 -9 -50 -9h-109q-48 0 -57 8l-2 -2q3 -47 31 -72.5t74 -25.5z" />
    <glyph glyph-name="uni04DC" unicode="&#x4dc;" horiz-adv-x="953" 
d="M333 859h102v-116h-102v116zM519 859h102v-116h-102v116zM79 -5q-31 0 -60 4v124q24 -2 35 -2q27 0 42 12.5t22 44.5l21 95q13 55 43.5 73t107.5 20v4q-80 3 -112 21.5t-45 71.5l-20 84q-10 40 -58 40q-3 0 -35 -2v116q41 3 59 3q63 0 96 -21.5t47 -73.5l30 -110
q10 -41 33 -60t64 -19h40q22 0 30 -4l1 2q-5 11 -5 36v246h123v-246q0 -25 -5 -36l2 -2q7 4 30 4h39q42 0 64 18.5t33 60.5l30 110q14 52 47.5 73.5t96.5 21.5q19 0 58 -3v-116q-30 2 -34 2q-49 0 -58 -40l-21 -84q-13 -53 -44.5 -71.5t-112.5 -21.5v-4q77 -2 108 -20
t43 -73l22 -95q7 -32 22 -44.5t41 -12.5q13 0 35 2v-124q-29 -4 -59 -4q-67 0 -102.5 26t-49.5 85l-29 129q-9 44 -29.5 62t-60.5 18h-39q-20 0 -30 4l-2 -2q5 -11 5 -37v-280h-123v280q0 26 5 37l-1 2q-12 -4 -30 -4h-40q-39 0 -59.5 -18t-30.5 -62l-28 -129
q-13 -58 -49.5 -84.5t-102.5 -26.5z" />
    <glyph glyph-name="uni04DD" unicode="&#x4dd;" horiz-adv-x="721" 
d="M319 650v-133h-97v133h97zM498 650v-133h-97v133h97zM19 -3v100h20q18 0 27 6t17 24l17 54q10 30 32.5 43.5t70.5 14.5v4q-47 1 -70 14t-32 39l-15 38q-9 18 -19 24.5t-28 6.5h-20v100h64q69 0 91 -51l31 -74q12 -30 23.5 -40.5t34.5 -10.5h14q21 0 31 -2l1 1
q-5 20 -5 40v134h112v-134q0 -25 -5 -40l1 -1q10 2 31 2h14q24 0 35.5 10.5t23.5 40.5l31 74q21 51 91 51h64v-100h-20q-19 0 -29 -6.5t-18 -24.5l-15 -38q-10 -27 -33 -39.5t-69 -13.5v-4q48 -1 70 -14t32 -44l17 -54q8 -18 17 -24t27 -6h20v-100h-70q-75 0 -93 60l-24 77
q-9 33 -21 46t-36 13h-14q-21 0 -31 2l-1 -1q5 -15 5 -42v-152h-112v152q0 22 5 42l-1 1q-10 -2 -31 -2h-14q-24 0 -36 -13t-21 -46l-23 -77q-20 -60 -93 -60h-71z" />
    <glyph glyph-name="uni04DE" unicode="&#x4de;" horiz-adv-x="574" 
d="M140 859h102v-116h-102v116zM326 859h102v-116h-102v116zM270 -15q-143 0 -247 56l52 112q96 -46 197 -46q132 0 132 95q0 100 -161 100h-96v122h96q133 0 133 90q0 79 -111 79q-85 0 -180 -39l-42 118q125 43 234 43q233 0 233 -177q0 -117 -116 -154q-32 -11 -69 -12
v-4q35 0 69 -6q141 -31 141 -173q0 -204 -265 -204z" />
    <glyph glyph-name="uni04DF" unicode="&#x4df;" horiz-adv-x="452" 
d="M184 650v-133h-97v133h97zM363 650v-133h-97v133h97zM216 -15q-116 0 -202 43l43 98q76 -38 154 -38q50 0 72 12.5t22 39.5q0 53 -78 53h-67v96h60q61 0 61 42q0 43 -78 43q-66 0 -143 -34l-39 98q101 39 198 39q186 0 186 -121q0 -100 -119 -109v-4q138 -8 138 -118
q0 -140 -208 -140z" />
    <glyph glyph-name="uni04E0" unicode="&#x4e0;" horiz-adv-x="560" 
d="M257 -15q-147 0 -253 61l56 115q110 -51 193 -51q131 0 131 97q0 105 -174 105h-69v101l194 178l-1 3q-30 -13 -77 -13h-203v119h445v-111l-228 -194l1 -3q25 12 55 12q88 0 141 -52t53 -148q0 -104 -64.5 -161.5t-199.5 -57.5z" />
    <glyph glyph-name="uni04E1" unicode="&#x4e1;" horiz-adv-x="452" 
d="M198 -215q-122 0 -224 52l44 108q98 -48 179 -48q123 0 123 102t-133 102h-100v95l185 166l-2 3q-28 -13 -77 -13h-176v110h399v-111l-207 -173l2 -3q29 12 53 12q79 0 131 -52.5t52 -138.5q0 -96 -64 -153.5t-185 -57.5z" />
    <glyph glyph-name="uni04E2" unicode="&#x4e2;" horiz-adv-x="730" 
d="M238 833h308v-79h-308v79zM639 710h21v-710h-128v342q0 87 11 123l-4 1q-17 -37 -50 -70l-398 -406h-20v710h127v-341q0 -88 -11 -124l4 -1q17 37 51 70z" />
    <glyph glyph-name="uni04E3" unicode="&#x4e3;" horiz-adv-x="550" 
d="M443 674v-83h-299v83h299zM59 -6v468h122v-156q0 -72 -7 -108l4 -1q13 25 53 62l226 209h35v-468h-123v156q0 72 7 108l-4 1q-13 -25 -53 -62l-226 -209h-34z" />
    <glyph glyph-name="uni04E4" unicode="&#x4e4;" horiz-adv-x="730" 
d="M248 859h102v-116h-102v116zM434 859h102v-116h-102v116zM639 710h21v-710h-128v342q0 87 11 123l-4 1q-17 -37 -50 -70l-398 -406h-20v710h127v-341q0 -88 -11 -124l4 -1q17 37 51 70z" />
    <glyph glyph-name="uni04E5" unicode="&#x4e5;" horiz-adv-x="550" 
d="M252 650v-133h-97v133h97zM431 650v-133h-97v133h97zM59 -6v468h122v-156q0 -72 -7 -108l4 -1q13 25 53 62l226 209h35v-468h-123v156q0 72 7 108l-4 1q-13 -25 -53 -62l-226 -209h-34z" />
    <glyph glyph-name="uni04E6" unicode="&#x4e6;" horiz-adv-x="795" 
d="M253 859h102v-116h-102v116zM439 859h102v-116h-102v116zM397 715q160 0 263.5 -103t103.5 -262t-103.5 -262t-263.5 -103t-263 103t-103 262t103 262t263 103zM397 588q-102 0 -166.5 -66.5t-64.5 -171.5t64.5 -171.5t166.5 -66.5q103 0 167.5 66.5t64.5 171.5
t-64.5 171.5t-167.5 66.5z" />
    <glyph glyph-name="uni04E7" unicode="&#x4e7;" horiz-adv-x="568" 
d="M243 650v-133h-97v133h97zM422 650v-133h-97v133h97zM284 477q111 0 183.5 -69t72.5 -177t-72.5 -177t-183.5 -69t-183.5 69t-72.5 177t72.5 177t183.5 69zM284 361q-58 0 -94 -35.5t-36 -94.5t36 -94.5t94 -35.5t94 35.5t36 94.5t-36 94.5t-94 35.5z" />
    <glyph glyph-name="uni04E8" unicode="&#x4e8;" horiz-adv-x="795" 
d="M397 715q160 0 263.5 -103t103.5 -262t-103.5 -262t-263.5 -103q-159 0 -262.5 103.5t-103.5 261.5q0 159 103.5 262t262.5 103zM629 396l2 3q-5 9 -11 30q-21 76 -79.5 118.5t-143.5 42.5q-84 0 -142.5 -42.5t-79.5 -118.5q-5 -18 -11 -30l2 -3q11 5 34 5h395
q23 0 34 -5zM620 271q6 21 11 30l-2 3q-11 -5 -34 -5h-395q-23 0 -34 5l-2 -3q6 -12 11 -30q21 -76 79.5 -118.5t142.5 -42.5q85 0 143.5 42.5t79.5 118.5z" />
    <glyph glyph-name="uni04E9" unicode="&#x4e9;" horiz-adv-x="565" 
d="M283 477q111 0 183 -69t72 -177t-72 -177t-183 -69t-183 69t-72 177t72 177t183 69zM412 252l2 2q-6 52 -42 81.5t-89 29.5q-54 0 -90 -29.5t-41 -81.5l2 -2q12 9 53 9h151q42 0 54 -9zM283 97q53 0 89 29.5t42 81.5l-2 2q-12 -9 -54 -9h-151q-41 0 -53 9l-2 -2
q5 -52 41 -81.5t90 -29.5z" />
    <glyph glyph-name="uni04EA" unicode="&#x4ea;" horiz-adv-x="795" 
d="M353 859v-116h-102v116h102zM539 859v-116h-102v116h102zM397 715q160 0 263.5 -103t103.5 -262t-103.5 -262t-263.5 -103q-159 0 -262.5 103.5t-103.5 261.5q0 159 103.5 262t262.5 103zM629 396l2 3q-5 9 -11 30q-21 76 -79.5 118.5t-143.5 42.5q-84 0 -142.5 -42.5
t-79.5 -118.5q-5 -18 -11 -30l2 -3q11 5 34 5h395q23 0 34 -5zM620 271q6 21 11 30l-2 3q-11 -5 -34 -5h-395q-23 0 -34 5l-2 -3q6 -12 11 -30q21 -76 79.5 -118.5t142.5 -42.5q85 0 143.5 42.5t79.5 118.5z" />
    <glyph glyph-name="uni04EB" unicode="&#x4eb;" horiz-adv-x="565" 
d="M240 650v-133h-97v133h97zM419 650v-133h-97v133h97zM283 477q111 0 183 -69t72 -177t-72 -177t-183 -69t-183 69t-72 177t72 177t183 69zM412 252l2 2q-6 52 -42 81.5t-89 29.5q-54 0 -90 -29.5t-41 -81.5l2 -2q12 9 53 9h151q42 0 54 -9zM283 97q53 0 89 29.5t42 81.5
l-2 2q-12 -9 -54 -9h-151q-41 0 -53 9l-2 -2q5 -52 41 -81.5t90 -29.5z" />
    <glyph glyph-name="uni04EC" unicode="&#x4ec;" horiz-adv-x="675" 
d="M145 859h102v-116h-102v116zM331 859h102v-116h-102v116zM278 -15q-146 0 -255 74l63 110q87 -58 196 -58q82 0 138 41.5t76 116.5q4 14 11 23l-2 2q-12 -4 -36 -4h-262v120h262q24 0 36 -4l2 2q-7 9 -11 23q-20 75 -76 116.5t-138 41.5q-109 0 -196 -58l-63 110
q109 74 255 74q166 0 266 -100t100 -265t-100 -265t-266 -100z" />
    <glyph glyph-name="uni04ED" unicode="&#x4ed;" horiz-adv-x="465" 
d="M186 650v-133h-97v133h97zM365 650v-133h-97v133h97zM192 -15q-96 0 -173 43l47 98q59 -31 120 -31q40 0 70.5 18.5t41.5 52.5q4 18 10 25l-1 1q-9 -4 -28 -4h-142v86h142q19 0 28 -4l1 1q-7 10 -10 25q-11 34 -41.5 52.5t-70.5 18.5q-61 0 -120 -31l-47 98q77 43 173 43
q109 0 174.5 -66t65.5 -180t-65.5 -180t-174.5 -66z" />
    <glyph glyph-name="uni04EE" unicode="&#x4ee;" horiz-adv-x="661" 
d="M179 833h308v-79h-308v79zM181 -8q-43 0 -95 6l1 120q39 -7 84 -7q58 0 96 68l-262 521h155l138 -302q38 -78 43 -113h4q5 50 33 116l130 299h148l-241 -523q-41 -96 -96.5 -140.5t-137.5 -44.5z" />
    <glyph glyph-name="uni04EF" unicode="&#x4ef;" horiz-adv-x="515" 
d="M410 617v-82h-299v82h299zM510 462l-287 -663h-125l103 234l-195 429h135l92 -220q22 -50 24 -101h4q1 39 18 80l98 241h133z" />
    <glyph glyph-name="uni04F0" unicode="&#x4f0;" horiz-adv-x="661" 
d="M189 859h102v-116h-102v116zM375 859h102v-116h-102v116zM181 -8q-43 0 -95 6l1 120q39 -7 84 -7q58 0 96 68l-262 521h155l138 -302q38 -78 43 -113h4q5 50 33 116l130 299h148l-241 -523q-41 -96 -96.5 -140.5t-137.5 -44.5z" />
    <glyph glyph-name="uni04F1" unicode="&#x4f1;" horiz-adv-x="515" 
d="M219 650v-133h-97v133h97zM398 650v-133h-97v133h97zM510 462l-287 -663h-125l103 234l-195 429h135l92 -220q22 -50 24 -101h4q1 39 18 80l98 241h133z" />
    <glyph glyph-name="uni04F2" unicode="&#x4f2;" horiz-adv-x="661" 
d="M416 853l1 -3l-113 -107h-83v2l104 108h91zM354 745l105 108h90l1 -3l-113 -107h-82zM181 -8q-43 0 -95 6l1 120q39 -7 84 -7q58 0 96 68l-262 521h155l138 -302q38 -78 43 -113h4q5 50 33 116l130 299h148l-241 -523q-41 -96 -96.5 -140.5t-137.5 -44.5z" />
    <glyph glyph-name="uni04F3" unicode="&#x4f3;" horiz-adv-x="515" 
d="M149 503l-1 2l120 152h97l1 -2l-129 -152h-88zM292 503l-1 2l120 152h97l1 -2l-129 -152h-88zM510 462l-287 -663h-125l103 234l-195 429h135l92 -220q22 -50 24 -101h4q1 39 18 80l98 241h133z" />
    <glyph glyph-name="uni04F4" unicode="&#x4f4;" horiz-adv-x="625" 
d="M159 859h102v-116h-102v116zM345 859h102v-116h-102v116zM427 0v242q0 39 7 53l-2 2q-93 -35 -203 -35q-106 0 -162 59.5t-56 172.5v206h128v-194q0 -60 28.5 -92t83.5 -32q75 0 176 30v288h128v-700h-128z" />
    <glyph glyph-name="uni04F5" unicode="&#x4f5;" horiz-adv-x="497" 
d="M184 650v-133h-97v133h97zM363 650v-133h-97v133h97zM318 462h123v-462h-123v142q0 34 7 49l-2 2q-72 -33 -142 -33q-86 0 -129.5 44.5t-43.5 139.5v118h123v-109q0 -43 19.5 -61.5t59.5 -18.5q45 0 108 22v167z" />
    <glyph glyph-name="uni04F6" unicode="&#x4f6;" horiz-adv-x="489" 
d="M223 582q-18 0 -26 4l-2 -2q4 -10 4 -27v-468h58v-229h-120v140h-66v700h410v-118h-258z" />
    <glyph glyph-name="uni04F7" unicode="&#x4f7;" horiz-adv-x="379" 
d="M205 352q-20 0 -28 4l-1 -1q5 -10 5 -26v-262h55v-207h-110v140h-67v462h315v-110h-169z" />
    <glyph glyph-name="uni04F8" unicode="&#x4f8;" horiz-adv-x="830" 
d="M381 859v-116h-102v116h102zM567 859v-116h-102v116h102zM346 435q109 0 172.5 -58t63.5 -159t-63 -159.5t-173 -58.5h-275v700h128v-240q0 -17 -4 -27l2 -2q8 4 26 4h123zM632 700h128v-700h-128v700zM330 116q57 0 88 26.5t31 75.5q0 48 -31.5 74.5t-87.5 26.5h-107
q-18 0 -26 5l-2 -2q4 -10 4 -28v-152q0 -18 -4 -28l2 -2q8 4 26 4h107z" />
    <glyph glyph-name="uni04F9" unicode="&#x4f9;" horiz-adv-x="677" 
d="M294 650v-133h-97v133h97zM376 517v133h97v-133h-97zM288 317q79 0 125 -41t46 -117q0 -75 -47 -117t-125 -42h-228v462h122v-122q0 -16 -5 -26l1 -1q9 4 28 4h83zM496 462h122v-462h-122v462zM270 103q61 0 61 55q0 56 -61 56h-65q-19 0 -28 4l-1 -1q5 -10 5 -26v-65
q0 -16 -5 -26l1 -1q9 4 28 4h65z" />
    <glyph glyph-name="uni04FC" unicode="&#x4fc;" horiz-adv-x="654" 
d="M559 162q42 -65 60 -110t18 -91q0 -161 -190 -161h-47l1 119h42q71 0 71 52q0 23 -12.5 47.5t-56.5 91.5l-69 101q-31 44 -37 77h-4q-10 -34 -37 -77l-132 -211h-158l195 292q45 70 57 79v4q-15 17 -58 81l-166 244h158l107 -167q30 -48 38 -78h4q3 20 37 78l104 167h157
l-167 -248q-44 -67 -58 -81v-4q19 -20 57 -78z" />
    <glyph glyph-name="uni04FD" unicode="&#x4fd;" horiz-adv-x="515" 
d="M312 -200v105h33q55 0 55 48q0 18 -12 39.5t-45 61.5l-45 58q-24 31 -33 71h-3q-13 -42 -33 -70l-79 -113h-142l156 212q15 22 28 28v3q-8 4 -27 27l-138 192h141l61 -88q24 -35 35 -75h2q7 33 35 75l59 88h142l-138 -192q-15 -21 -27 -27v-3q12 -5 28 -29l82 -112
q70 -89 70 -161q0 -66 -42.5 -102t-125.5 -36h-37z" />
    <glyph glyph-name="uni0510" unicode="&#x510;" horiz-adv-x="574" 
d="M304 -15q-265 0 -265 204q0 142 141 173q35 6 69 6v4q-37 1 -69 12q-116 37 -116 154q0 177 233 177q109 0 234 -43l-42 -118q-95 39 -180 39q-111 0 -111 -79q0 -90 133 -90h96v-122h-96q-161 0 -161 -100q0 -95 132 -95q101 0 197 46l52 -112q-104 -56 -247 -56z" />
    <glyph glyph-name="uni0511" unicode="&#x511;" horiz-adv-x="452" 
d="M236 -15q-208 0 -208 140q0 110 138 118v4q-119 9 -119 109q0 121 186 121q97 0 198 -39l-39 -98q-77 34 -143 34q-78 0 -78 -43q0 -42 61 -42h60v-96h-67q-78 0 -78 -53q0 -27 22 -39.5t72 -12.5q78 0 154 38l43 -98q-86 -43 -202 -43z" />
    <glyph glyph-name="uni0512" unicode="&#x512;" horiz-adv-x="751" 
d="M680 700v-714q0 -186 -191 -186h-52v121h49q35 0 50.5 18t15.5 57v561q0 20 4 27l-2 2q-9 -4 -27 -4h-243q-18 0 -26 4l-2 -2q4 -10 4 -27v-373q0 -97 -41 -143t-127 -46q-31 0 -71 4v119q20 -2 55 -2q29 0 42.5 17t13.5 54v513h548z" />
    <glyph glyph-name="uni0513" unicode="&#x513;" horiz-adv-x="548" 
d="M492 9h1v-29q0 -91 -48 -135.5t-136 -44.5h-50v116h47q64 0 64 72v12h-1v329q0 13 5 26l-1 1q-9 -4 -28 -4h-100q-20 0 -28 4l-1 -1q5 -13 5 -26v-162q0 -169 -165 -169h-48v109h37q28 0 40.5 15.5t12.5 53.5v286h394v-453z" />
    <glyph glyph-name="uni051C" unicode="&#x51c;" horiz-adv-x="974" 
d="M496 710l142 -351q27 -67 32 -111h4q4 44 28 112l118 340h146l-280 -709h-22l-154 374q-17 39 -21 82h-4q-4 -42 -20 -82l-155 -374h-22l-280 709h146l119 -340q23 -70 28 -112h4q4 43 31 111l142 351h18z" />
    <glyph glyph-name="uni051D" unicode="&#x51d;" horiz-adv-x="738" 
d="M210 -7l-204 469h135l67 -176q21 -56 25 -87h4q4 28 32 88l84 183h31l85 -183q28 -60 32 -88h4q3 27 25 87l66 176h136l-204 -469h-33l-94 199q-26 55 -30 81h-4q-4 -26 -30 -81l-94 -199h-33z" />
    <glyph glyph-name="uni0524" unicode="&#x524;" horiz-adv-x="731" 
d="M647 89h75v-229h-120v140h-83v557q0 17 4 27l-2 2q-8 -4 -26 -4h-272q-18 0 -26 4l-2 -2q4 -10 4 -27v-557h-128v700h576v-611z" />
    <glyph glyph-name="uni0525" unicode="&#x525;" horiz-adv-x="558" 
d="M498 67h52v-207h-110v140h-65v329q0 16 5 26l-1 1q-8 -4 -28 -4h-145q-20 0 -28 4l-1 -1q5 -10 5 -26v-329h-123v462h439v-395z" />
    <glyph glyph-name="uni0526" unicode="&#x526;" horiz-adv-x="708" 
d="M614 89h85v-229h-120v140h-93v194q0 60 -28.5 92t-83.5 32q-75 0 -176 -30v-288h-128v700h128v-242q0 -39 -7 -53l2 -2q93 35 203 35q106 0 162 -59.5t56 -172.5v-117z" />
    <glyph glyph-name="uni0527" unicode="&#x527;" horiz-adv-x="579" 
d="M507 67h64v-207h-110v140h-77v262q0 104 -89 104q-53 0 -83.5 -36.5t-30.5 -107.5v-222h-122v715h122v-232q0 -67 -10 -121l4 -1q51 116 167 116q78 0 121.5 -47t43.5 -133v-230z" />
    <glyph glyph-name="uni0E3F" unicode="&#xe3f;" horiz-adv-x="559" 
d="M263 -87v62q0 19 3 27l-2 2q-8 -4 -25 -4h-168v675h168q17 0 25 -4l2 2q-3 7 -3 27v62h30v-62q0 -19 -4 -27l2 -2q4 4 16 4q85 0 137 -47t52 -127q0 -72 -37.5 -113.5t-99.5 -45.5v-4q77 -4 119.5 -45t42.5 -116q0 -82 -58.5 -129.5t-154.5 -47.5q-12 0 -17 4l-2 -2
q4 -12 4 -27v-62h-30zM184 385q8 4 26 4h29q17 0 25 -4l2 2q-3 7 -3 28v131q0 20 3 28l-2 2q-10 -5 -25 -5h-29q-16 0 -26 5l-2 -2q4 -10 4 -28v-131q0 -18 -4 -28zM290 386q40 3 62 28.5t22 68.5q0 84 -83 92l-2 -2q4 -11 4 -26v-135q0 -14 -5 -24zM184 99q8 4 26 4h29
q17 0 25 -4l2 2q-3 7 -3 28v131q0 20 3 28l-2 2q-9 -5 -25 -5h-29q-17 0 -26 5l-2 -2q4 -10 4 -28v-131q0 -18 -4 -28zM291 100q107 2 107 95q0 45 -28 69t-79 25l-2 -2q4 -14 4 -27v-132q0 -17 -4 -26z" />
    <glyph glyph-name="Wgrave" unicode="&#x1e80;" horiz-adv-x="974" 
d="M432 853l98 -107l-1 -3h-84l-147 107l1 3h133zM496 710l142 -351q27 -67 32 -111h4q4 44 28 112l118 340h146l-280 -709h-22l-154 374q-17 39 -21 82h-4q-4 -42 -20 -82l-155 -374h-22l-280 709h146l119 -340q23 -70 28 -112h4q4 43 31 111l142 351h18z" />
    <glyph glyph-name="wgrave" unicode="&#x1e81;" horiz-adv-x="738" 
d="M329 553l-143 151l1 3h123l104 -151l-1 -3h-84zM210 -7l-204 469h135l67 -176q21 -56 25 -87h4q4 28 32 88l84 183h31l85 -183q28 -60 32 -88h4q3 27 25 87l66 176h136l-204 -469h-33l-94 199q-26 55 -30 81h-4q-4 -26 -30 -81l-94 -199h-33z" />
    <glyph glyph-name="Wacute" unicode="&#x1e82;" horiz-adv-x="974" 
d="M675 853l1 -3l-147 -107h-84l-1 3l99 107h132zM496 710l142 -351q27 -67 32 -111h4q4 44 28 112l118 340h146l-280 -709h-22l-154 374q-17 39 -21 82h-4q-4 -42 -20 -82l-155 -374h-22l-280 709h146l119 -340q23 -70 28 -112h4q4 43 31 111l142 351h18z" />
    <glyph glyph-name="wacute" unicode="&#x1e83;" horiz-adv-x="738" 
d="M550 707l1 -3l-142 -151h-85l-1 3l103 151h124zM210 -7l-204 469h135l67 -176q21 -56 25 -87h4q4 28 32 88l84 183h31l85 -183q28 -60 32 -88h4q3 27 25 87l66 176h136l-204 -469h-33l-94 199q-26 55 -30 81h-4q-4 -26 -30 -81l-94 -199h-33z" />
    <glyph glyph-name="Wdieresis" unicode="&#x1e84;" horiz-adv-x="974" 
d="M343 859h102v-116h-102v116zM529 859h102v-116h-102v116zM496 710l142 -351q27 -67 32 -111h4q4 44 28 112l118 340h146l-280 -709h-22l-154 374q-17 39 -21 82h-4q-4 -42 -20 -82l-155 -374h-22l-280 709h146l119 -340q23 -70 28 -112h4q4 43 31 111l142 351h18z" />
    <glyph glyph-name="wdieresis" unicode="&#x1e85;" horiz-adv-x="738" 
d="M328 700v-133h-102v133h102zM513 700v-133h-102v133h102zM210 -7l-204 469h135l67 -176q21 -56 25 -87h4q4 28 32 88l84 183h31l85 -183q28 -60 32 -88h4q3 27 25 87l66 176h136l-204 -469h-33l-94 199q-26 55 -30 81h-4q-4 -26 -30 -81l-94 -199h-33z" />
    <glyph glyph-name="Ygrave" unicode="&#x1ef2;" horiz-adv-x="612" 
d="M251 853l98 -107l-1 -3h-84l-147 107l1 3h133zM607 700l-237 -435v-265h-128v265l-237 435h152l105 -221q4 -8 11 -23t9 -19l7 -14t6 -14t3.5 -11.5t4 -13t2.5 -13.5h2q6 32 43 108l106 221h151z" />
    <glyph glyph-name="ygrave" unicode="&#x1ef3;" horiz-adv-x="515" 
d="M220 553l-143 151l1 3h123l104 -151l-1 -3h-84zM510 462l-287 -663h-125l103 234l-195 429h135l92 -220q22 -50 24 -101h4q1 39 18 80l98 241h133z" />
    <glyph glyph-name="endash" unicode="&#x2013;" horiz-adv-x="743" 
d="M698 320v-103h-652v103h652z" />
    <glyph glyph-name="emdash" unicode="&#x2014;" horiz-adv-x="1145" 
d="M1099 319v-99h-1053v99h1053z" />
    <glyph glyph-name="quoteleft" unicode="&#x2018;" horiz-adv-x="212" 
d="M145 460h-126l90 262h72z" />
    <glyph glyph-name="quoteright" unicode="&#x2019;" horiz-adv-x="212" 
d="M67 730h126l-90 -262h-72z" />
    <glyph glyph-name="quotesinglbase" unicode="&#x201a;" horiz-adv-x="212" 
d="M67 132h126l-90 -262h-72z" />
    <glyph glyph-name="quotedblleft" unicode="&#x201c;" horiz-adv-x="373" 
d="M145 460h-126l90 262h72zM306 460h-126l90 262h72z" />
    <glyph glyph-name="quotedblright" unicode="&#x201d;" horiz-adv-x="373" 
d="M67 730h126l-90 -262h-72zM228 730h126l-90 -262h-72z" />
    <glyph glyph-name="quotedblbase" unicode="&#x201e;" horiz-adv-x="373" 
d="M67 132h126l-90 -262h-72zM228 132h126l-90 -262h-72z" />
    <glyph glyph-name="dagger" unicode="&#x2020;" horiz-adv-x="518" 
d="M472 481v-96h-161v-478h-104v478h-161v96h161v219h104v-219h161z" />
    <glyph glyph-name="daggerdbl" unicode="&#x2021;" horiz-adv-x="525" 
d="M475 405h-160v-188h160v-96h-160v-214h-104v214h-161v96h161v188h-161v96h161v199h104v-199h160v-96z" />
    <glyph glyph-name="bullet" unicode="&#x2022;" horiz-adv-x="365" 
d="M182 486q53 0 87.5 -34.5t34.5 -86.5t-34.5 -86.5t-87.5 -34.5q-52 0 -86.5 34.5t-34.5 86.5t34.5 86.5t86.5 34.5z" />
    <glyph glyph-name="ellipsis" unicode="&#x2026;" horiz-adv-x="752" 
d="M51 0v149h139v-149h-139zM307 0v149h139v-149h-139zM563 0v149h139v-149h-139z" />
    <glyph glyph-name="perthousand" unicode="&#x2030;" horiz-adv-x="1132" 
d="M215 365q-72 0 -118.5 45.5t-46.5 117.5t46.5 117t118.5 45q71 0 118 -45t47 -117t-47 -117.5t-118 -45.5zM155 0l395 675h64l-395 -675h-64zM215 424q46 0 74.5 29t28.5 75q0 45 -28.5 74t-74.5 29q-45 0 -74.5 -29t-29.5 -74q0 -46 29.5 -75t74.5 -29zM566 -5
q-72 0 -118.5 45t-46.5 117t46.5 117.5t118.5 45.5q71 0 118 -45.5t47 -117.5t-47 -117t-118 -45zM920 320q70 0 116 -46.5t46 -116.5t-46 -116t-116 -46t-116 46t-46 116q0 71 46 117t116 46zM566 54q46 0 74.5 29t28.5 74q0 46 -28.5 75t-74.5 29q-45 0 -74.5 -29
t-29.5 -75q0 -45 29.5 -74t74.5 -29zM920 261q-46 0 -75 -29t-29 -75q0 -45 29 -74t75 -29q45 0 74 29t29 74q0 46 -29 75t-74 29z" />
    <glyph glyph-name="guilsinglleft" unicode="&#x2039;" horiz-adv-x="291" 
d="M285 419v-4l-85 -114q-47 -64 -62 -75v-2q15 -11 62 -75l85 -114v-4h-125l-144 194l144 194h125z" />
    <glyph glyph-name="guilsinglright" unicode="&#x203a;" horiz-adv-x="295" 
d="M10 419h125l144 -194l-144 -194h-125v4l85 114q47 64 62 75v2q-15 11 -62 75l-85 114v4z" />
    <glyph glyph-name="fraction" unicode="&#x2044;" horiz-adv-x="111" 
d="M-174 0l395 675h64l-395 -675h-64z" />
    <glyph glyph-name="lira" unicode="&#x20a4;" horiz-adv-x="573" 
d="M130 0v268q0 22 5 32l-1 1q-9 -9 -25 -17l-96 -41v31l117 51v34q0 20 5 28l-1 1q-8 -8 -26 -17l-95 -41v31l117 51v263h115v-189q0 -20 -6 -30l1 -1q13 10 33 19l141 62v-31l-169 -74v-34q0 -19 -6 -29l1 -1q8 8 30 19l144 63v-31l-169 -74v-188q0 -24 -5 -32l2 -2
q10 5 28 5q68 2 112 59.5t44 146.5h112q0 -154 -85 -243.5t-233 -89.5h-90z" />
    <glyph glyph-name="uni20A9" unicode="&#x20a9;" horiz-adv-x="1028" 
d="M893 401l-11 -45q-4 -14 -14 -30l2 -1q10 8 38 8h75v-30h-115l-78 -303h-133l-81 303h-123l-82 -303h-133l-78 303h-114v30h75q28 0 38 -8l1 1q-9 16 -13 30l-12 45h-89v30h55q23 0 32 -8l2 1q-12 19 -15 30l-58 221h134l53 -244h131l68 244h133l68 -244h130l54 244h133
l-57 -221q-2 -7 -15 -30l1 -1q9 8 33 8h55v-30h-90zM493 455q-2 -12 -14 -29l1 -2q8 7 26 7h17q17 0 25 -7l1 2q-10 13 -14 29l-13 59q-5 24 -6 59h-4q-1 -33 -6 -59zM365 378q3 13 13 30l-1 1q-11 -8 -31 -8h-64q-24 0 -32 7l-2 -1q10 -15 12 -28l10 -46h83zM768 379
q6 18 13 28l-2 1q-9 -7 -32 -7h-64q-20 0 -31 8l-2 -1q11 -17 14 -30l12 -45h83zM574 325l1 2q-11 18 -15 33l-11 41h-69l-11 -41q-4 -15 -15 -33l1 -2q8 8 32 8h55q24 0 32 -8zM337 274q3 15 14 35l-1 1q-9 -7 -25 -7h-31q-14 0 -24 7l-1 -1q9 -16 13 -32l13 -79
q8 -45 10 -81h3q5 46 13 82zM747 277q4 16 13 32l-1 1q-11 -7 -24 -7h-32q-15 0 -25 7l-1 -1q12 -20 15 -35l16 -75q9 -36 12 -82h4q1 24 9 81z" />
    <glyph glyph-name="Euro" unicode="&#x20ac;" horiz-adv-x="668" 
d="M439 -14q-136 0 -222.5 79t-102.5 218h-106l15 30h63q14 0 29 -3l1 1q-5 10 -5 27q0 26 5 36l-1 2q-11 -4 -28 -4h-74l15 30h87q19 135 105.5 211.5t219.5 76.5q109 0 205 -54l-52 -106q-83 43 -157 43q-72 0 -119.5 -38t-66.5 -111q-4 -16 -11 -25l1 -1q8 4 30 4h257
l-15 -30h-242q-26 0 -35 5l-1 -1q6 -7 6 -38q0 -20 -6 -28l1 -1q13 4 34 4h220l-15 -30h-203q-22 0 -33 4v-1q6 -7 12 -33q15 -70 65 -110t122 -40q75 0 156 43l52 -105q-95 -55 -206 -55z" />
    <glyph glyph-name="uni20AE" unicode="&#x20ae;" horiz-adv-x="541" 
d="M213 0v240q0 22 6 33h-1q-11 -10 -26 -16l-100 -43v31l121 52v34q0 20 6 29l-1 1q-10 -11 -27 -17l-99 -43v31l121 52v161q0 17 4 27l-2 2q-8 -4 -26 -4h-169v105h501v-105h-168q-18 0 -26 4l-2 -2q3 -8 3 -27v-86q0 -21 -6 -31l1 -1q13 11 33 19l96 43v-31l-124 -55v-33
q0 -20 -6 -30h1q9 9 30 18l99 44v-31l-124 -55v-316h-115z" />
    <glyph glyph-name="uni20B4" unicode="&#x20b4;" horiz-adv-x="546" 
d="M286 -15q-107 0 -165.5 48t-58.5 133q0 58 30 105q9 15 29 29l-1 2q-15 -5 -41 -5h-50v30h111q24 21 67 51q18 12 34 20l-1 1q-15 -4 -46 -4h-165v30h241q44 32 60.5 51.5t16.5 41.5q0 54 -84 54q-67 0 -174 -38v120q102 36 190 36q195 0 195 -156q0 -52 -23 -87
q-8 -15 -26 -25l1 -1q15 4 40 4h51v-30h-108q-31 -27 -57 -46q-18 -14 -43 -27v-1q22 6 59 6h149v-30h-234q-52 -37 -73 -63t-21 -54q0 -76 111 -76q73 0 190 52v-125q-104 -46 -204 -46z" />
    <glyph glyph-name="uni20B8" unicode="&#x20b8;" horiz-adv-x="541" 
d="M20 570v105h501v-105h-501zM521 522v-105h-168q-16 0 -26 5l-2 -2q3 -8 3 -28v-392h-115v392q0 18 4 28l-2 2q-10 -5 -26 -5h-169v105h501z" />
    <glyph glyph-name="uni20B9" unicode="&#x20b9;" horiz-adv-x="510" 
d="M289 0l-253 270v119h125q76 0 93 60q4 12 6 16l-1 1q-7 -2 -29 -2h-194v30h194q16 0 28 -3l1 1q-4 4 -8 19q-15 56 -86 56h-129v108h439l-22 -30h-188l-1 -2q47 -11 78.5 -52t35.5 -97h97l-22 -30h-75q-5 -74 -59 -123t-133 -49h-4q-13 0 -29 4l-1 -3q34 -14 80 -64
l220 -229h-163z" />
    <glyph glyph-name="uni20BD" unicode="&#x20bd;" horiz-adv-x="580" 
d="M275 275q-16 0 -25 4l-2 -2q3 -6 3 -22v-18q0 -15 -3 -22l2 -2q9 4 25 4h166v-30h-166q-16 0 -25 4l-2 -2q3 -7 3 -25v-164h-115v164q0 18 3 25l-2 2q-9 -4 -25 -4h-81v30h81q16 0 25 -4l2 2q-3 7 -3 22v18q0 16 3 22l-2 2q-9 -4 -25 -4h-81v105h81q16 0 25 -4l2 2
q-3 8 -3 25v272h205q104 0 162 -52t58 -146t-58.5 -148t-161.5 -54h-66zM251 403q0 -17 -3 -25l2 -2q9 4 25 4h68q46 0 73 26.5t27 70.5t-26.5 68.5t-73.5 24.5h-68q-18 0 -26 4l-2 -2q4 -8 4 -26v-143z" />
    <glyph glyph-name="uni2113" unicode="&#x2113;" horiz-adv-x="504" 
d="M432 129l37 -95q-92 -46 -159 -46q-89 0 -132.5 58t-52.5 191q-20 -7 -62 -19l-27 95q54 16 87 28q2 81 13 142.5t28 100t42 63t52 34t60 9.5q70 0 108.5 -40.5t38.5 -111.5q0 -89 -62 -152.5t-171 -110.5q3 -97 24.5 -138.5t69.5 -41.5q38 0 106 34zM320 591
q-77 0 -87 -205q128 66 128 152q0 53 -41 53z" />
    <glyph glyph-name="uni2116" unicode="&#x2116;" horiz-adv-x="1174" 
d="M91 710l398 -397q34 -35 50 -71l4 1q-11 36 -11 124v333h128v-710h-21l-397 397q-34 34 -51 71l-4 -1q11 -36 11 -124v-333h-127v710h20zM918 160q-93 0 -151.5 57.5t-58.5 150.5t58.5 150.5t151.5 57.5t151.5 -57.5t58.5 -150.5t-58.5 -150.5t-151.5 -57.5zM918 262
q46 0 75.5 30t29.5 76t-29.5 75.5t-75.5 29.5t-75.5 -29.5t-29.5 -75.5t29.5 -76t75.5 -30zM726 0v100h384v-100h-384z" />
    <glyph glyph-name="trademark" unicode="&#x2122;" horiz-adv-x="810" 
d="M516 276l-86 191q-14 30 -20 61h-3q3 -32 -5 -64l-52 -183h-84l125 421h13l96 -214q18 -42 22 -75h2q4 33 22 75l96 214h13l125 -421h-84l-52 183q-8 32 -5 64h-3q-6 -31 -20 -61l-86 -191h-14zM129 281v322q0 17 3 25l-2 2q-9 -4 -26 -4h-74v74h278v-74h-74q-17 0 -26 4
l-2 -2q3 -8 3 -25v-322h-80z" />
    <glyph glyph-name="estimated" unicode="&#x212e;" horiz-adv-x="764" 
d="M31 304q0 131 102.5 223.5t248.5 92.5t249 -92.5t103 -223.5v-9h-574v-140q0 -71 52 -104q68 -45 172 -45q73 0 138.5 27.5t109.5 77.5h29q-50 -58 -123.5 -90.5t-155.5 -32.5q-146 0 -248.5 92.5t-102.5 223.5zM561 552q-65 50 -177 50q-106 0 -172 -46q-52 -35 -52 -85
v-158h445v152q0 53 -44 87z" />
    <glyph glyph-name="uni2153" unicode="&#x2153;" horiz-adv-x="738" 
d="M124 289v237q0 25 7 40l-3 1q-4 -6 -21 -14l-59 -28v59l80 49l10 42h45v-386h-59zM106 0l395 675h64l-395 -675h-64zM564 -9q-71 0 -122 25l23 56q50 -23 97 -23q83 0 83 64q0 33 -28.5 48.5t-97.5 15.5v55q107 0 107 59q0 46 -63 46q-41 0 -95 -27l-25 51q64 34 129 34
q56 0 86.5 -25t30.5 -69q0 -37 -24 -62t-70 -29v-3q53 -1 83 -26t30 -72q0 -56 -37.5 -87t-106.5 -31z" />
    <glyph glyph-name="uni2154" unicode="&#x2154;" horiz-adv-x="813" 
d="M18 289l-3 5l160 197l6 7l7.5 10t7 9.5t7.5 11t5.5 10.5t5 12.5t3 12t1.5 13.5q0 24 -15.5 37t-41.5 13q-44 0 -103 -33l-26 50q69 40 135 40q52 0 82.5 -27t30.5 -74q0 -55 -60 -126l-68 -83q-18 -22 -37 -34l1 -3q19 7 52 7h131l1 -1l-33 -54h-249zM181 0l395 675h64
l-395 -675h-64zM639 -9q-71 0 -122 25l23 56q50 -23 97 -23q83 0 83 64q0 33 -28.5 48.5t-97.5 15.5v55q107 0 107 59q0 46 -63 46q-41 0 -95 -27l-25 51q64 34 129 34q56 0 86.5 -25t30.5 -69q0 -37 -24 -62t-70 -29v-3q53 -1 83 -26t30 -72q0 -56 -37.5 -87t-106.5 -31z
" />
    <glyph glyph-name="oneeighth" unicode="&#x215b;" horiz-adv-x="747" 
d="M124 289v237q0 25 7 40l-3 1q-4 -6 -21 -14l-59 -28v59l80 49l10 42h45v-386h-59zM106 0l395 675h64l-395 -675h-64zM567 -9q-68 0 -104 31t-36 83q0 43 22.5 68.5t58.5 30.5v2q-32 5 -50 28.5t-18 58.5q0 47 35 74.5t92 27.5t92 -27.5t35 -74.5q0 -35 -18 -58.5
t-50 -28.5v-2q36 -5 58.5 -30.5t22.5 -68.5q0 -52 -36 -83t-104 -31zM567 233q30 0 47.5 15t17.5 39t-17.5 37.5t-47.5 13.5t-47.5 -13.5t-17.5 -37.5t17.5 -39t47.5 -15zM567 48q35 0 56 17.5t21 47.5q0 29 -20.5 47t-56.5 18t-56.5 -18t-20.5 -47q0 -30 21 -47.5t56 -17.5
z" />
    <glyph glyph-name="threeeighths" unicode="&#x215c;" horiz-adv-x="830" 
d="M169 280q-71 0 -122 25l23 56q50 -23 97 -23q83 0 83 64q0 33 -28.5 48.5t-97.5 15.5v55q107 0 107 59q0 46 -63 46q-41 0 -95 -27l-25 51q64 34 129 34q56 0 86.5 -25t30.5 -69q0 -37 -24 -62t-70 -29v-3q53 -1 83 -26t30 -72q0 -56 -37.5 -87t-106.5 -31zM189 0
l395 675h64l-395 -675h-64zM650 -9q-68 0 -104 31t-36 83q0 43 22.5 68.5t58.5 30.5v2q-32 5 -50 28.5t-18 58.5q0 47 35 74.5t92 27.5t92 -27.5t35 -74.5q0 -35 -18 -58.5t-50 -28.5v-2q36 -5 58.5 -30.5t22.5 -68.5q0 -52 -36 -83t-104 -31zM650 233q30 0 47.5 15t17.5 39
t-17.5 37.5t-47.5 13.5t-47.5 -13.5t-17.5 -37.5t17.5 -39t47.5 -15zM650 48q35 0 56 17.5t21 47.5q0 29 -20.5 47t-56.5 18t-56.5 -18t-20.5 -47q0 -30 21 -47.5t56 -17.5z" />
    <glyph glyph-name="fiveeighths" unicode="&#x215d;" horiz-adv-x="811" 
d="M142 280q-64 0 -117 27l23 55q47 -24 95 -24q40 0 63 20t23 58q0 72 -88 72q-38 0 -76 -9l-3 2l54 194h189l-21 -57h-111q-12 0 -17 5l-1 -2q1 -6 -2 -18l-15 -54q-2 -8 -11 -17l2 -2q16 7 35 7q58 0 92.5 -31t34.5 -89q0 -64 -41 -100.5t-108 -36.5zM170 0l395 675h64
l-395 -675h-64zM631 -9q-68 0 -104 31t-36 83q0 43 22.5 68.5t58.5 30.5v2q-32 5 -50 28.5t-18 58.5q0 47 35 74.5t92 27.5t92 -27.5t35 -74.5q0 -35 -18 -58.5t-50 -28.5v-2q36 -5 58.5 -30.5t22.5 -68.5q0 -52 -36 -83t-104 -31zM631 233q30 0 47.5 15t17.5 39t-17.5 37.5
t-47.5 13.5t-47.5 -13.5t-17.5 -37.5t17.5 -39t47.5 -15zM631 48q35 0 56 17.5t21 47.5q0 29 -20.5 47t-56.5 18t-56.5 -18t-20.5 -47q0 -30 21 -47.5t56 -17.5z" />
    <glyph glyph-name="seveneighths" unicode="&#x215e;" horiz-adv-x="680" 
d="M29 289l146 291q18 37 24 43l-1 1q-14 -7 -44 -7h-143l22 58h247v-3l-185 -383h-66zM63 0l395 675h64l-395 -675h-64zM527 -9q-68 0 -104 31t-36 83q0 43 22.5 68.5t58.5 30.5v2q-32 5 -50 28.5t-18 58.5q0 47 35 74.5t92 27.5t92 -27.5t35 -74.5q0 -35 -18 -58.5
t-50 -28.5v-2q36 -5 58.5 -30.5t22.5 -68.5q0 -52 -36 -83t-104 -31zM527 233q30 0 47.5 15t17.5 39t-17.5 37.5t-47.5 13.5t-47.5 -13.5t-17.5 -37.5t17.5 -39t47.5 -15zM527 48q35 0 56 17.5t21 47.5q0 29 -20.5 47t-56.5 18t-56.5 -18t-20.5 -47q0 -30 21 -47.5t56 -17.5
z" />
    <glyph glyph-name="arrowleft" unicode="&#x2190;" horiz-adv-x="815" 
d="M228 332q39 10 83 10h454v-104h-454q-44 0 -83 10l-1 -2q22 -13 44 -35l162 -162l-78 -79l-305 320l305 320l78 -79l-162 -162q-22 -22 -44 -35z" />
    <glyph glyph-name="arrowup" unicode="&#x2191;" horiz-adv-x="740" 
d="M412 458q10 -39 10 -83v-454h-104v454q0 44 10 83l-2 1q-14 -23 -35 -44l-162 -162l-79 78l320 305l320 -305l-79 -78l-162 162q-21 21 -35 44z" />
    <glyph glyph-name="arrowright" unicode="&#x2192;" horiz-adv-x="815" 
d="M587 249q-39 -10 -83 -10h-454v104h454q44 0 83 -10l1 2q-23 13 -44 35l-162 162l78 79l305 -320l-305 -320l-78 79l162 162q22 22 44 35z" />
    <glyph glyph-name="arrowdown" unicode="&#x2193;" horiz-adv-x="740" 
d="M328 123q-10 39 -10 83v454h104v-454q-2 -52 -10 -83l2 -1q14 22 35 44l162 162l79 -78l-320 -305l-320 305l79 78l162 -162q21 -22 35 -44z" />
    <glyph glyph-name="arrowboth" unicode="&#x2194;" horiz-adv-x="1071" 
d="M777 544l244 -255l-244 -255l-78 79l101 97q22 21 44 35l-1 2q-39 -10 -83 -10h-449q-44 0 -83 10l-1 -2q22 -14 44 -35l101 -97l-78 -79l-244 255l244 255l78 -79l-101 -97q-22 -21 -44 -35l1 -2q39 10 83 10h449q44 0 83 -10l1 2q-22 14 -44 35l-101 97z" />
    <glyph glyph-name="arrowupdn" unicode="&#x2195;" horiz-adv-x="611" 
d="M385 6l97 102l79 -78l-255 -245l-256 245l79 78l97 -102q21 -19 35 -43l2 1q-10 45 -10 83v495q0 44 10 83l-2 1q-13 -22 -35 -44l-97 -101l-79 78l255 244l256 -244l-79 -78l-97 101q-22 20 -36 44l-1 -1q9 -41 9 -83v-495q0 -43 -9 -83l2 -1q13 24 35 43z" />
    <glyph glyph-name="uni2196" unicode="&#x2196;" horiz-adv-x="653" 
d="M216 439q37 -23 66 -52l321 -321l-73 -73l-321 320q-35 37 -52 66h-2q6 -25 6 -56v-229l-111 -1l11 442l441 11v-112h-229q-32 0 -56 7z" />
    <glyph glyph-name="uni2197" unicode="&#x2197;" horiz-adv-x="653" 
d="M497 379q-23 -37 -52 -66l-321 -320l-74 72l321 321q32 32 66 52l-1 2q-26 -6 -56 -6h-228l-1 111l442 -11l10 -441h-111v229q0 32 7 56z" />
    <glyph glyph-name="uni2198" unicode="&#x2198;" horiz-adv-x="653" 
d="M436 141q-38 24 -65 52l-321 321l73 73l321 -320q35 -37 52 -66h2q-6 26 -6 56v229l111 1l-11 -442l-441 -11v112h229q32 0 56 -7v2z" />
    <glyph glyph-name="uni2199" unicode="&#x2199;" horiz-adv-x="653" 
d="M156 201q23 37 52 66l321 320l74 -72l-321 -321q-32 -32 -66 -52l1 -2q25 6 56 6h229l1 -111l-443 11l-10 441h111v-229q0 -32 -7 -56z" />
    <glyph glyph-name="partialdiff" unicode="&#x2202;" horiz-adv-x="574" 
d="M438 335q-4 18 -6 40q-22 225 -209 225q-66 0 -129 -28l-38 109q84 34 170 34q66 0 121.5 -21t98.5 -63.5t67.5 -113.5t24.5 -165q0 -105 -26.5 -185t-88.5 -131t-152 -51q-107 0 -171 64.5t-64 167.5q0 106 65 170t160 64q67 0 111.5 -31.5t61.5 -85.5zM278 101
q119 0 141 164q-56 72 -143 72q-56 0 -87 -33t-31 -85q0 -53 32.5 -85.5t87.5 -32.5z" />
    <glyph glyph-name="emptyset" unicode="&#x2205;" 
d="M478 482q60 -65 60 -158q0 -100 -68 -166t-170 -66q-92 0 -158 55l-56 -56l-19 20l55 55q-60 65 -60 158q0 100 68 166t170 66q93 0 157 -55l56 56l20 -20zM178 324q0 -46 25 -77l174 174q-31 25 -77 25q-54 0 -88 -34.5t-34 -87.5zM300 202q54 0 88 34.5t34 87.5
q0 44 -25 77l-175 -174q33 -25 78 -25z" />
    <glyph glyph-name="uni2206" unicode="&#x2206;" horiz-adv-x="628" 
d="M359 700l249 -700h-588l249 700h90zM314 523l-148 -450h295z" />
    <glyph glyph-name="product" unicode="&#x220f;" horiz-adv-x="710" 
d="M690 700v-109h-112v-669h-113v669h-220v-669h-113v669h-112v109h670z" />
    <glyph glyph-name="summation" unicode="&#x2211;" horiz-adv-x="553" 
d="M517 700v-115h-336l248 -290l-248 -290h336v-115h-481v115l249 290l-249 290v115h481z" />
    <glyph glyph-name="minus" unicode="&#x2212;" 
d="M539 327v-58h-478v58h478z" />
    <glyph glyph-name="radical" unicode="&#x221a;" horiz-adv-x="633" 
d="M499 715h114l-231 -715h-111v1l-144 353h-107v108h182l119 -305z" />
    <glyph glyph-name="infinity" unicode="&#x221e;" horiz-adv-x="760" 
d="M579 450q72 0 116.5 -42t44.5 -111t-44.5 -111t-116.5 -42q-60 0 -105 30t-94 86q-49 -56 -94 -86t-105 -30q-72 0 -116.5 42t-44.5 111t44.5 111t116.5 42q60 0 105 -30t94 -86q49 56 94 86t105 30zM181 401q-49 0 -79.5 -29.5t-30.5 -74.5t30.5 -74.5t79.5 -29.5
q47 0 84.5 26.5t81.5 77.5q-44 51 -81.5 77.5t-84.5 26.5zM579 401q-47 0 -83.5 -26.5t-82.5 -77.5q46 -51 82.5 -77.5t83.5 -26.5q49 0 79.5 29.5t30.5 74.5t-30.5 74.5t-79.5 29.5z" />
    <glyph glyph-name="integral" unicode="&#x222b;" horiz-adv-x="407" 
d="M367 715v-106q-55 0 -81.5 -25.5t-26.5 -82.5v-522q0 -95 -55.5 -144.5t-163.5 -49.5v106q53 1 79 26t26 82v522q0 194 222 194z" />
    <glyph glyph-name="approxequal" unicode="&#x2248;" 
d="M170 461q45 0 136 -42t123 -42q58 0 81 71h54q-17 -68 -53 -99t-81 -31t-136 42t-123 42q-58 0 -81 -71h-54q17 68 53 99t81 31zM170 297q45 0 136 -42.5t123 -42.5q57 0 81 72h54q-17 -68 -53 -99t-81 -31t-136 42t-123 42q-58 0 -81 -72h-54q17 68 53 99.5t81 31.5z
" />
    <glyph glyph-name="notequal" unicode="&#x2260;" 
d="M553 372h-180l-87 -144h267v-56h-301l-57 -93h-56l56 93h-148v56h182l88 144h-270v56h303l55 90h57l-55 -90h146v-56z" />
    <glyph glyph-name="lessequal" unicode="&#x2264;" 
d="M528 489v-59l-378 -91l378 -89v-60l-458 119v61zM533 155v-54h-466v54h466z" />
    <glyph glyph-name="greaterequal" unicode="&#x2265;" 
d="M72 489l458 -119v-61l-458 -119v60l378 89l-378 91v59zM67 155h466v-54h-466v54z" />
    <glyph glyph-name="uni2460" unicode="&#x2460;" horiz-adv-x="830" 
d="M415 -15q-161 0 -263 103t-102 262t102 262t263 103t263 -103t102 -262t-102 -262t-263 -103zM415 49q129 0 212.5 85.5t83.5 215.5t-83.5 215.5t-212.5 85.5t-212.5 -85.5t-83.5 -215.5t83.5 -215.5t212.5 -85.5zM399 162v237q0 27 6 40l-2 1q-6 -7 -21 -14l-60 -28v59
l80 49l11 42h45v-386h-59z" />
    </font>
</defs>
</svg>
