<svg xmlns="http://www.w3.org/2000/svg" width="24" height="24" viewBox="0 0 24 24"><defs><style>.a{fill:none;}.b{fill:#101f09;}</style></defs><path class="a" d="M0,0H24V24H0Z"/><path class="b" d="M14,19h5V5H5V19h7V14H10V12h2V10.346a4.367,4.367,0,0,1,.4-2.311A2.726,2.726,0,0,1,13.536,6.9a3.963,3.963,0,0,1,1.687-.381A6.457,6.457,0,0,1,16.5,6.6V8.5H16a3.626,3.626,0,0,0-1.522.164.727.727,0,0,0-.314.314c-.12.226-.164.45-.164,1.368V12h2.5L16,14H14ZM4,3H20a1,1,0,0,1,1,1V20a1,1,0,0,1-1,1H4a1,1,0,0,1-1-1V4A1,1,0,0,1,4,3Z"/></svg>