<svg xmlns="http://www.w3.org/2000/svg" xmlns:xlink="http://www.w3.org/1999/xlink" width="1600" height="620" viewBox="0 0 1600 620"><defs><style>.a{opacity:0.04;}.b{fill:url(#a);}.c{fill:none;}</style><linearGradient id="a" x1="1.255" y1="-0.451" x2="-0.764" y2="1.604" gradientUnits="objectBoundingBox"><stop offset="0" stop-color="#ccd0cc"/><stop offset="1" stop-color="#086420"/></linearGradient></defs><g class="a" transform="translate(0 0)"><rect class="b" width="116.936" height="116.941" transform="matrix(0.707, -0.707, 0.707, 0.707, 0, 82.688)"/><g transform="translate(35.466 29.517)"><path class="b" d="M138.8,96.627h94.436v408H138.8Z" transform="translate(-138.797 81.185)"/><path class="b" d="M420.836,109.957V193.9c-7.588-.586-13.411-1.165-20.413-1.165-50.117,0-83.348,27.394-83.348,87.421v148.06H226.147V114.636H313v41.371C335.146,125.7,372.45,109.957,420.836,109.957Z" transform="translate(364.002 157.598)"/><path class="b" d="M259.219,271.414c0-94.429,72.865-161.457,172.553-161.457,99.646,0,171.932,67.028,171.932,161.457,0,94.449-72.285,161.471-171.932,161.471C332.084,432.885,259.219,365.863,259.219,271.414Zm252.385,0c0-54.189-34.369-86.848-79.832-86.848s-80.46,32.659-80.46,86.848,34.988,86.862,80.46,86.862S511.6,325.617,511.6,271.414Z" transform="translate(554.72 157.598)"/><g transform="translate(162.608)"><path class="c" d="M257.069,121.039c-45.457,0-80.44,32.659-80.44,86.848s34.982,86.862,80.44,86.862c44.885,0,79.847-32.659,79.847-86.862S301.954,121.039,257.069,121.039Z" transform="translate(-84.53 221.125)"/><path class="b" d="M413.6,374.5c-22.735-25.763-55.381-38.046-93.843-38.046-88.6,0-156.805,63.22-156.805,162.12s68.206,162.134,156.805,162.134c41.963,0,75.187-13.473,97.923-40.987v36.3h86.855V116.11L413.6,70.635ZM335.489,585.794c-45.457,0-80.439-32.793-80.439-87.218s34.982-87.205,80.439-87.205c44.885,0,79.847,32.793,79.847,87.205S380.374,585.794,335.489,585.794Z" transform="translate(-162.95 -70.226)"/><path class="b" d="M521.079,474.95,651.644,341.514H543.216L410.329,467.919V70.574l-90.94,45.487V656.382h90.94V576.209l43.721-43.321,99.073,123.494H663.3Z" transform="translate(738.63 -70.574)"/></g></g></g></svg>