<svg xmlns="http://www.w3.org/2000/svg" width="76" height="56" viewBox="0 0 76 56"><defs><style>.a{fill:#fff;}.b{fill:none;}</style></defs><g transform="translate(1.681 50.308)"><path class="a" d="M139.439,173.29h1.781v.439h-2.451v-.394l1.668-2.246h-1.648v-.444h2.334v.382Z" transform="translate(-138.769 -169.282)"/><path class="a" d="M156.4,173.608c-.019-.093-.034-.175-.044-.247a1.781,1.781,0,0,1-.019-.215,1.308,1.308,0,0,1-.409.372,1.045,1.045,0,0,1-.543.149,1.006,1.006,0,0,1-.734-.246.906.906,0,0,1-.252-.68.8.8,0,0,1,.358-.692,1.674,1.674,0,0,1,.971-.249h.61v-.3a.565.565,0,0,0-.165-.429.649.649,0,0,0-.467-.158.68.68,0,0,0-.442.137.411.411,0,0,0-.168.328l-.533.006-.005-.017a.737.737,0,0,1,.315-.616,1.3,1.3,0,0,1,.865-.279,1.274,1.274,0,0,1,.844.266.945.945,0,0,1,.319.768v1.485a2.844,2.844,0,0,0,.017.319,1.673,1.673,0,0,0,.063.3Zm-.932-.41a1,1,0,0,0,.55-.157.742.742,0,0,0,.319-.359v-.5h-.63a.815.815,0,0,0-.543.171.511.511,0,0,0-.2.4.424.424,0,0,0,.128.325A.537.537,0,0,0,155.467,173.2Z" transform="translate(-149.385 -169.161)"/><path class="a" d="M171.6,170.524l.04.4a1.048,1.048,0,0,1,.383-.341,1.155,1.155,0,0,1,.54-.121.951.951,0,0,1,.529.142.859.859,0,0,1,.332.428,1.154,1.154,0,0,1,.387-.418,1.009,1.009,0,0,1,.557-.152.924.924,0,0,1,.744.323,1.478,1.478,0,0,1,.274.973v1.844h-.561v-1.85a1.023,1.023,0,0,0-.157-.645.571.571,0,0,0-.468-.19.594.594,0,0,0-.466.2.863.863,0,0,0-.209.5v1.981h-.565v-1.85a1.011,1.011,0,0,0-.161-.634.558.558,0,0,0-.463-.2.772.772,0,0,0-.422.105.68.68,0,0,0-.254.3v2.283H171.1v-3.084Z" transform="translate(-160.731 -169.161)"/><path class="a" d="M192.968,172.037a1.7,1.7,0,0,1,.37-1.127,1.241,1.241,0,0,1,1.006-.443,1.255,1.255,0,0,1,1.013.442,1.692,1.692,0,0,1,.372,1.128v.063a1.689,1.689,0,0,1-.37,1.128,1.379,1.379,0,0,1-2.019,0,1.686,1.686,0,0,1-.372-1.127Zm.561.063a1.462,1.462,0,0,0,.207.809.746.746,0,0,0,1.224,0,1.457,1.457,0,0,0,.208-.809v-.063a1.451,1.451,0,0,0-.209-.806.687.687,0,0,0-.614-.322.677.677,0,0,0-.608.322,1.464,1.464,0,0,0-.207.806Z" transform="translate(-175.583 -169.161)"/><path class="a" d="M210.591,170.524l.04.459a1.116,1.116,0,0,1,.386-.38,1.028,1.028,0,0,1,.529-.135,1.006,1.006,0,0,1,.772.292,1.282,1.282,0,0,1,.274.9v1.947h-.561v-1.935a.835.835,0,0,0-.161-.579.645.645,0,0,0-.492-.171.868.868,0,0,0-.44.1.755.755,0,0,0-.286.292v2.289h-.562v-3.084Z" transform="translate(-187.213 -169.161)"/><path class="a" d="M228.474,173.608c-.019-.093-.034-.175-.044-.247a1.718,1.718,0,0,1-.018-.215,1.309,1.309,0,0,1-.409.372,1.045,1.045,0,0,1-.543.149,1.007,1.007,0,0,1-.734-.246.906.906,0,0,1-.252-.68.8.8,0,0,1,.358-.692,1.674,1.674,0,0,1,.971-.249h.61v-.3a.565.565,0,0,0-.166-.429.648.648,0,0,0-.467-.158.679.679,0,0,0-.442.137.411.411,0,0,0-.168.328l-.533.006-.005-.017a.738.738,0,0,1,.315-.616,1.306,1.306,0,0,1,.865-.279,1.274,1.274,0,0,1,.844.266.945.945,0,0,1,.319.768v1.485a2.926,2.926,0,0,0,.017.319,1.646,1.646,0,0,0,.063.3Zm-.932-.41a1,1,0,0,0,.55-.157.745.745,0,0,0,.319-.359v-.5h-.63a.816.816,0,0,0-.543.171.511.511,0,0,0-.2.4.423.423,0,0,0,.128.325A.537.537,0,0,0,227.542,173.2Z" transform="translate(-198.342 -169.161)"/><path class="a" d="M243.487,172.819l.048.217h.017l.054-.217.71-2.174h.573l-1.134,3.084h-.425l-1.149-3.084h.576Z" transform="translate(-209.012 -169.282)"/><path class="a" d="M259.268,166.969h-.561V166.4h.561Zm0,3.873h-.561v-3.084h.561Z" transform="translate(-220.236 -166.396)"/><path class="a" d="M269.757,172.586l.1.388h.018l.758-2.328h.624l-1.3,3.557a1.593,1.593,0,0,1-.335.542.772.772,0,0,1-.589.231,1.2,1.2,0,0,1-.174-.016c-.071-.011-.125-.021-.163-.03l.057-.442a.739.739,0,0,1,.1.006c.079.005.129.008.15.008a.346.346,0,0,0,.293-.16,1.637,1.637,0,0,0,.191-.353l.134-.322-1.146-3.021h.627Z" transform="translate(-226.875 -169.282)"/><path class="a" d="M296.142,168.325v.744h.584v.416h-.584v1.873a.421.421,0,0,0,.09.305.325.325,0,0,0,.238.089.534.534,0,0,0,.108-.013.783.783,0,0,0,.1-.027l.077.385a.493.493,0,0,1-.185.084.933.933,0,0,1-.242.033.727.727,0,0,1-.544-.207.9.9,0,0,1-.2-.649v-1.873h-.49v-.416h.49v-.744Z" transform="translate(-244.949 -167.706)"/><path class="a" d="M310.108,173.608c-.019-.093-.034-.175-.044-.247a1.775,1.775,0,0,1-.019-.215,1.308,1.308,0,0,1-.409.372,1.044,1.044,0,0,1-.542.149,1.008,1.008,0,0,1-.734-.246.907.907,0,0,1-.252-.68.8.8,0,0,1,.357-.692,1.675,1.675,0,0,1,.971-.249h.609v-.3a.565.565,0,0,0-.165-.429.648.648,0,0,0-.467-.158.678.678,0,0,0-.442.137.41.41,0,0,0-.168.328l-.533.006-.005-.017a.738.738,0,0,1,.314-.616,1.307,1.307,0,0,1,.865-.279,1.274,1.274,0,0,1,.844.266.944.944,0,0,1,.319.768v1.485a2.923,2.923,0,0,0,.018.319,1.618,1.618,0,0,0,.063.3Zm-.932-.41a1,1,0,0,0,.55-.157.745.745,0,0,0,.319-.359v-.5h-.63a.817.817,0,0,0-.543.171.511.511,0,0,0-.2.4.421.421,0,0,0,.129.325A.535.535,0,0,0,309.176,173.2Z" transform="translate(-253.791 -169.161)"/><path class="a" d="M324.93,167.871l-.288.986h-.276l0-.977v-.559h.561Z" transform="translate(-264.834 -167.024)"/><path class="a" d="M335.871,170.843h-.561V166.4h.561Z" transform="translate(-272.269 -166.396)"/><path class="a" d="M346.827,166.969h-.561V166.4h.561Zm0,3.873h-.561v-3.084h.561Z" transform="translate(-279.71 -166.396)"/><path class="a" d="M357.58,170.524l.039.4a1.049,1.049,0,0,1,.383-.341,1.155,1.155,0,0,1,.54-.121.952.952,0,0,1,.529.142.859.859,0,0,1,.332.428,1.151,1.151,0,0,1,.387-.418,1.008,1.008,0,0,1,.557-.152.925.925,0,0,1,.744.323,1.48,1.48,0,0,1,.273.973v1.844H360.8v-1.85a1.023,1.023,0,0,0-.157-.645.571.571,0,0,0-.467-.19.594.594,0,0,0-.466.2.863.863,0,0,0-.209.5v1.981h-.565v-1.85a1.013,1.013,0,0,0-.161-.634.56.56,0,0,0-.464-.2.772.772,0,0,0-.422.105.68.68,0,0,0-.254.3v2.283h-.561v-3.084Z" transform="translate(-287.054 -169.161)"/></g><g transform="translate(0 18.166)"><rect class="a" width="5.571" height="5.571" transform="matrix(0.707, -0.707, 0.707, 0.707, 0, 3.94)"/><g transform="translate(1.69 1.406)"><path class="a" d="M138.8,96.627h4.5v19.438h-4.5Z" transform="translate(-138.797 -88.27)"/><path class="a" d="M235.423,109.957v4c-.361-.028-.639-.055-.973-.055-2.388,0-3.971,1.305-3.971,4.165v7.054h-4.332V110.18h4.138v1.971A6.03,6.03,0,0,1,235.423,109.957Z" transform="translate(-198.129 -97.325)"/><path class="a" d="M259.219,117.649c0-4.5,3.472-7.692,8.221-7.692s8.191,3.193,8.191,7.692-3.444,7.693-8.191,7.693S259.219,122.149,259.219,117.649Zm12.024,0c0-2.582-1.637-4.138-3.8-4.138a4.15,4.15,0,0,0,0,8.276C269.606,121.788,271.243,120.232,271.243,117.649Z" transform="translate(-220.593 -97.325)"/><g transform="translate(7.747)"><path class="b" d="M180.462,121.039a4.15,4.15,0,0,0,0,8.276c2.138,0,3.8-1.556,3.8-4.138S182.6,121.039,180.462,121.039Z" transform="translate(-172.242 -104.852)"/><path class="a" d="M174.892,85.053a5.739,5.739,0,0,0-4.471-1.805c-4.221,0-7.471,3-7.471,7.692s3.25,7.693,7.471,7.693a5.747,5.747,0,0,0,4.665-1.945V98.41h4.138V72.793l-4.332-2.158ZM171.17,95.078a4.15,4.15,0,0,1,0-8.276c2.138,0,3.8,1.556,3.8,4.138S173.309,95.078,171.17,95.078Z" transform="translate(-162.95 -70.616)"/><path class="a" d="M329,89.761l6.221-6.331h-5.166l-6.331,6V70.574l-4.333,2.158V98.369h4.333v-3.8L325.8,92.51l4.72,5.859h5.249Z" transform="translate(-269.21 -70.574)"/></g></g></g><g transform="translate(21.378)"><g transform="translate(0 11.519)"><path class="a" d="M221.445,54.381,200.18,43.792v4.46l21.265,10.589,21.3-10.609V43.771Z" transform="translate(-200.18 -43.771)"/></g><g transform="translate(2.104)"><path class="a" d="M206.738,24.359l18.347,10.518-18.347-16.61Z" transform="translate(-206.738 -14.928)"/><path class="a" d="M219.93,12.574V7.858l14.116,18.5Z" transform="translate(-215.699 -7.858)"/></g><g transform="translate(22.08)"><path class="a" d="M287.362,24.359,269.017,34.878l18.346-16.61Z" transform="translate(-269.017 -14.928)"/><path class="a" d="M283.132,12.574V7.858l-14.115,18.5Z" transform="translate(-269.017 -7.858)"/></g></g></svg>