<svg xmlns="http://www.w3.org/2000/svg" xmlns:xlink="http://www.w3.org/1999/xlink" width="960" height="960" viewBox="0 0 960 960">
  <defs>
    <clipPath id="clip-path">
      <rect id="maps" width="960" height="960" transform="translate(0 0)" fill="#f5f5f5"/>
    </clipPath>
  </defs>
  <g id="map_taskent" data-name="map/taskent" opacity="0.02" clip-path="url(#clip-path)">
    <g id="Layer_2" data-name="Layer 2" transform="translate(36.128 0.039)">
      <g id="Layer_4" data-name="Layer 4">
        <path id="Path_53" data-name="Path 53" d="M152.526,291.452c2.62,1.315,2.99,5.317,3.255,11.268.041.933.094,2.089.17,2.934,14.281.035,67.906.651,76.371,7.706,8.765,7.295,8.272,81.574,8.019,99.837l18.834,9.39c3.772.681,36.482-2.089,52.285-3.427,8.389-.71,12.46-1.05,13.306-1.05a7.591,7.591,0,0,0,2.2-1.027c2.55-1.438,6.809-3.844,10.88.217,3.924,3.92,17.113,9.008,21.736,5.569,3.907-2.934,18.505-30.276,26.789-46.826a2.168,2.168,0,0,1,2.044-1.174L444.94,377.7a3.01,3.01,0,0,0,.4-.8c0-2.629,0-3.885,1.4-4.636a2.853,2.853,0,0,1,3.178.534,12.738,12.738,0,0,0,1.433.857,3.576,3.576,0,0,0,2.937,0A4.884,4.884,0,0,0,457,370.579c1.175-3.521,4.03-7.8,5.37-9.707-.37-3.175,2.044-10.317,8.812-27.876,2.027-5.282,4.324-11.2,4.465-12.324,0-2.893,1.4-12.758,1.463-13.175a2.183,2.183,0,0,1,.588-1.227c1.539-1.532,5.757-5.98,6.815-8.087.494-.986.494-4.548.494-7.142,0-3.633,0-7.383.834-9.877.352-1.056.7-1.948,1.034-2.793a20.93,20.93,0,0,0,1.762-9.5c-.053-3.128-15.433-13.756-33.956-23.539l-42.956,62.26a2.163,2.163,0,0,1-1.763.939H370.49l-12.337,13.7a2.169,2.169,0,0,1-2.89.3L268.64,259.081a2.152,2.152,0,0,1-.682-2.647l7.737-16.755-36.964-16.432c-.17-.07-19.751-8.263-38.944-2.782-24.245,6.919-40.43,9.032-52.426,6.86l-.135,1.174c1.439,69.214-11.55,67.771-11.55,67.771l-7.22,5.786-1.328,5.282C148.549,289.474,151.322,290.854,152.526,291.452Z" transform="translate(-8.649 -15.082)" fill="#f5f5f5"/>
        <path id="Path_54" data-name="Path 54" d="M124.614,569.567c3.936-4.918,8.225-7.747,12.137-7.958a7,7,0,0,1,5.522,2.013,3.471,3.471,0,0,0,2.644.282c3.178-.516,7.426-2.981,9.041-6.209,1.281-2.559,3.043-2.852,3.983-2.811,2.35.129,4.318,2.705,5.687,5.352a83.909,83.909,0,0,1,15.55-14.871c10.715-7.629,24.169-10.5,30.131-10.5,4.794,0,27.223-11.737,30.825-15.382-1.275-2.048-6.92-7.125-11.949-11.027a2.182,2.182,0,0,1-.834-1.708V420.194c.587-37.894-1.016-93.311-6.462-97.8-5.91-4.924-48.173-6.708-75.12-6.708-2.673,0-2.8-2.811-2.984-7.042-.088-1.966-.258-5.81-.822-7.283-3.331,1.256-14.152,9.466-23.005,16.96a2.146,2.146,0,0,1-1.921.446l-.135.54-7.22-1.444-5.775,4.325v15.845L83.7,372.658l1.486,41.8L57.743,450.511l-2.89,14.419L33.2,482.237V488l7.22,10.094-1.445,15.845L14.434,547.126l-2.884,8.65-7.22,7.213L0,574.521l2.884,2.887,2.89-7.212s1.445-1.444,8.659-1.444,20.227-10.094,20.227-10.094l46.193-47.583s1.445,38.932,0,59.12c-.781,10.91,1.392,18.005,3.554,22.248a2.053,2.053,0,0,1,.587-.422C94.495,587.7,120.144,575.149,124.614,569.567Z" transform="translate(0 -20.793)" fill="#f5f5f5"/>
        <path id="Path_55" data-name="Path 55" d="M200.111,202.589c20.708-5.91,41.011,2.612,41.863,2.975l39.014,17.318a2.184,2.184,0,0,1,1.175,1.215,2.158,2.158,0,0,1-.065,1.667l-7.919,17.142,83.568,61.263L369.432,291.2a2.145,2.145,0,0,1,1.61-.716H410.32l44.1-63.968.094-.123,4.477-5.563-8.513-7.295a2.164,2.164,0,0,1-.276-3l23.346-28.8c-8.636-9.061-57.478-60.235-80.942-83.681-24.3-24.267-44.1-70.723-47.309-78.51l-40.659,30.81-11.55,1.467-4.33,12.976s-88.056,79.314-109.7,92.29-27.429,33.169-27.429,33.169l-2.232,19.073a.588.588,0,0,1,.141,0C160.85,211.445,176.453,209.344,200.111,202.589Z" transform="translate(-10.163 -1.348)" fill="#f5f5f5"/>
        <path id="Path_56" data-name="Path 56" d="M840.7,481.612l-10.1-4.325V470.08H827.7c-34.661-24.513-38.973-57.683-38.973-57.683l-5.775-1.444-25.984-5.763-.858-10.305-5.939,9.977a2.161,2.161,0,0,1-1.392,1.009L722.8,411.641a2.187,2.187,0,0,1-2.074-.657l-28.352-31.162L665.7,375.613a2.127,2.127,0,0,1-1.175-.587c-11.567-11.555-23.934-20.822-26.5-19.883a4.407,4.407,0,0,0-.118,1.05c0,13.721-19.974,33.844-20.843,34.7a2.163,2.163,0,0,1-3.607-.915c-.347-.282-2.05-1.332-8.031-1.332-6.832,0-11.209,13.339-12.337,18.48a2.167,2.167,0,0,1-1.915,1.7c-26.436,2.523-45.235-11.737-50.664-16.432l-1.522,1.52c15.58,20.388,78.627,103.129,80.067,108.88a5.5,5.5,0,0,1-1.433,5.434c-1.016,1.215-2.561,3.046,5.481,15.552,12.02,18.674,65.533,148.987,75.255,172.766,6.462-8.216,25.02-30.358,42.139-35.247,14.875-4.243,24.086-13.381,30.231-19.425a58.21,58.21,0,0,1,5.152-4.742c3.46-2.588,19.334-35.664,32.522-65.476a2.155,2.155,0,0,1,1.674-1.262l9.353-1.338,19.827-21.039h0l-12.989-46.145,17.319-7.289Z" transform="translate(-36.668 -24.5)" fill="#f5f5f5"/>
        <path id="Path_57" data-name="Path 57" d="M297.047,635.975c-.364-3.028-1.034-10.27.253-14.126a61.6,61.6,0,0,1,2.426-5.71c1.71-3.715,3.836-8.339,4.7-12.776,1.422-7.083,8.653-29.155,16.238-39.766,7.014-9.8,8.26-12.2,8.26-20.37,0-7.107,8.489-11.344,15.31-14.754,2.973-1.485,5.781-2.887,6.979-4.079a38.282,38.282,0,0,1,2.9-2.558c3.942-3.263,8.019-6.637,8.019-16.1,0-7.471.358-9.325,3.889-10.435,1.14-.358,2.7-.851,5.287-3.926,3.525-4.214,2.038-7.776.47-11.555-1.175-2.835-2.391-5.769-.587-8.451,1.621-2.43,4.23-3.715,6.327-4.742,2.32-1.174,3.413-1.761,3.413-2.711,0-3.292,1.416-9.977,10.915-17.547,1.263-1.009,2.937-2.248,4.835-3.686,7.543-5.64,23.223-17.377,23.223-23.474,0-5.951,8.031-14.085,15.116-21.28,1.275-1.3,2.732-2.776,4.059-4.178l-51.8-2.594c-4.071,8.093-21.8,42.87-27.429,47.09-7.05,5.282-22.853-1.455-27.364-5.968-1.586-1.584-2.885-1.1-5.687.481a9.052,9.052,0,0,1-4.336,1.59c-.7,0-6.374.481-12.924,1.039-44.313,3.744-52.6,3.967-54.423,3.063l-17.078-8.533v81.973c8.624,6.778,12.995,11.5,12.995,14.032,0,1.133,0,3.521-15.6,11.649-2.5,1.309-15.174,7.817-19.768,7.817-5.828,0-18.247,3.01-27.611,9.695a83.04,83.04,0,0,0-16.819,16.8,2.169,2.169,0,0,1-3.789-.5,20.021,20.021,0,0,0-3.166-5.728c-.029.047-.059.106-.088.164-2.35,4.7-7.925,7.852-12.225,8.545-2.755.446-4.976-.065-6.4-1.491a2.775,2.775,0,0,0-2.221-.757c-2.567.147-5.928,2.518-8.994,6.344-5.928,7.4-37.6,22.042-41.205,23.691l-.176.053a11.815,11.815,0,0,0,1.439,1.585l43.3,38.932c23.094,36.051,2.884,69.214,2.884,69.214l32.311,43.891C200.038,708.834,286.055,644.127,297.047,635.975Z" transform="translate(-6.325 -26.989)" fill="#f5f5f5"/>
        <path id="Path_58" data-name="Path 58" d="M363.386,15.546c.211.522,21.413,52.759,46.78,78.1,25.7,25.675,81.753,84.508,82.316,85.095a2.164,2.164,0,0,1,.112,2.852l-23.217,28.668,8.5,7.283a2.158,2.158,0,0,1,.282,2.993l-4.941,6.174c12.337,6.514,35.73,19.859,35.73,27.084a25.135,25.135,0,0,1-2.039,11.092c-.311.775-.634,1.6-.958,2.57-.587,1.831-.587,5.376-.587,8.509,0,3.85,0,7.177-.952,9.079-1.34,2.676-5.569,7.119-7.109,8.691-.446,3.187-1.322,9.9-1.322,11.966,0,1.338-1.175,4.46-4.758,13.762-2.937,7.576-8.225,21.256-8.577,25.065,5.563,2.348,33.221,13.1,45.47,17.847a108.589,108.589,0,0,0,9.4-7.794c-.123-.176-.264-.358-.382-.517-1.639-2.207-4.7-6.309-1.809-10.628,3.913-5.869,8.507-11.561,12.871-9.39,1.175.587,6.362.493,11.162,0-1.263-17.764.112-19.132.781-19.8a3.11,3.11,0,0,1,2.55-.915,4.273,4.273,0,0,1,1.762.64c.405-3.175.828-6.854.828-8.292,0-3,3.249-3.462,5.875-3.826,3.86-.54,6.633-1.127,7.173-3.8.587-2.934-.676-4.5-2.139-6.3s-3.155-3.862-2.127-6.943c1.14-3.41,4.665-3.621,7.5-3.785s5.552-.329,7.255-2.6c1.428-1.9.781-2.934-.705-4.977-1.081-1.479-3.1-4.225-.534-6.79s5.34-8.034,5.37-8.087a2.15,2.15,0,0,1,1.709-1.174l27.423-2.881a2.155,2.155,0,0,1,2.35,1.931c.64,6.35,3.155,15.845,6.738,17.131,1.762.628,3.936-1.056,5.458-2.582,5.775-5.769,5.011-6.538,2.744-8.8s-5.546-5.6-4.811-12.911c1.492-14.918,32.387-51.544,33.7-53.093a2.163,2.163,0,0,1,1.651-.769h26.571l22.394-21c-44.648-38.862-56.186-53.287-63.4-86.421S616.51,59.15,616.51,59.15s-43.308,2.887-70.732,4.325-62.084-46.168-62.084-46.168S460.6,0,412.98,0C377.473,0,366.035,9.613,362.5,14.507a2.136,2.136,0,0,1,.881,1.039Z" transform="translate(-24.661)" fill="#f5f5f5"/>
        <path id="Path_59" data-name="Path 59" d="M709.676,209.93H683.24c-9.147,10.9-30.954,38.956-32.058,49.965-.529,5.282,1.563,7.418,3.584,9.454,4.112,4.149,4.741,7.441-2.761,14.936-3.525,3.521-6.856,4.695-9.987,3.6-6.239-2.224-8.577-13.639-9.318-18.621L608.537,271.8a40.041,40.041,0,0,1-5.516,8.046,11.713,11.713,0,0,0,.864,1.285c1.433,1.948,4.112,5.575.676,10.129-2.908,3.873-7.279,4.108-10.469,4.319-2.074.123-3.449.246-3.648.833-.241.728.059,1.232,1.375,2.84,1.6,1.96,4.018,4.924,3.025,9.877-1.175,5.869-7.208,6.743-10.815,7.242-.7.1-1.592.223-2.156.358-.188,3.662-1.386,12.083-1.439,12.471a2.168,2.168,0,0,1-3.948.892,12.33,12.33,0,0,0-.94-1.209,157.784,157.784,0,0,0,.588,17.148,2.161,2.161,0,0,1-1.892,2.312c-2.861.358-12.448,1.4-15.668-.211-.065,0-1.933-.182-7.337,7.917-1,1.508-.218,3.087,1.686,5.646.875,1.174,1.568,2.107,1.568,3.251,0,1,0,2.347-10.3,10.223,5.446,4.542,22.359,16.731,45.37,15.147C590.9,385.037,595.642,370,605.729,370c5.4,0,8.46.839,10.163,1.872,6.251-6.561,18-20.945,18-29.994,0-3.216,1.51-4.519,2.773-5.041,6.5-2.676,23.281,12.911,30.736,20.317l26.736,4.219a2.186,2.186,0,0,1,1.263.681l28.022,30.793,23.845-5.282,7.056-11.778a2.145,2.145,0,0,1,1.68-1.039l-.094-1.144,2.885-8.65c66.384-50.47,79.391-79.314,85.183-83.64s4.33-8.65,4.33-8.65l-1.439-11.538,5.775-5.769,1.439-7.207,4.33-1.444c17.324-2.881,7.22,5.769,15.862,7.213s10.1-10.094,17.325-10.094,5.775,8.65,10.1,12.976S924.8,243.821,924.8,243.821a209.248,209.248,0,0,0-4.33-38.938c-4.33-20.188-10.1-14.419-10.1-14.419-8.659,14.419-11.549,5.769-11.549,5.769s7.22-43.258-7.214-47.583-38.973,15.845-50.523,17.3-12.995-4.325-28.868-7.207-24.544,15.845-28.874,24.513-15.862,11.532-25.984,7.207c-6.627-2.835-15.744-4.437-21.231-5.194a2.129,2.129,0,0,1-.634,1.3L711.2,209.349a2.157,2.157,0,0,1-1.522.581Z" transform="translate(-37.021 -10.215)" fill="#f5f5f5"/>
        <path id="Path_60" data-name="Path 60" d="M459.573,394.533c-1.5,1.761-3.59,3.909-6.309,6.667-5.522,5.6-13.87,14.085-13.87,18.245,0,7.629-11.8,17.089-24.956,26.931-1.868,1.4-3.525,2.623-4.7,3.6-8.413,6.7-9.317,12.148-9.317,14.173,0,3.727-3.231,5.317-5.834,6.59-1.8.886-3.66,1.8-4.635,3.263-.505.757.229,2.524,1,4.4,1.616,3.885,4.048,9.754-1.14,15.98-3.384,4.055-5.839,4.824-7.3,5.282-.159.053-.364.112-.488.164-.247.634-.37,2.7-.37,6.144,0,11.5-5.287,15.9-9.582,19.431-.946.786-1.839,1.526-2.6,2.289-1.692,1.69-4.665,3.175-8.1,4.888-5.757,2.876-12.924,6.456-12.924,10.886,0,9.267-1.715,12.612-9.065,22.888-7.114,9.977-14.193,31.491-15.515,38.1-.987,4.93-3.231,9.812-5.04,13.733-.952,2.077-1.762,3.867-2.244,5.282-.723,2.154-.587,6.409-.317,9.73,12.419-9.161,59.575-42.43,98.895-50.03,10.71-2.072,18.693-3.521,25.109-4.736,18.294-3.386,21.966-4.073,33.321-8.339l23.117-36.667c-8.6-12.494-18.27-25.74-20.115-27-3.407-1.7-1.856-5.387-.934-7.594a12.592,12.592,0,0,0,1.263-4.39c0-.176,0-.288-1.175-.757-.928-.364-2.473-.974-2.655-2.694-.2-1.878,1.392-3.286,4.8-5.558,8.554-5.7,12.026-8.128,12.026-11.15a10.45,10.45,0,0,1,1.3-4.771c.834-1.761,1.01-2.113-.67-3.791-3.143-3.14-4.817-9.1-6.045-13.457a29.3,29.3,0,0,0-1.269-3.961c-2.209-2.764-8.512-27.436,1.293-46.262Z" transform="translate(-21.501 -27.222)" fill="#f5f5f5"/>
        <path id="Path_61" data-name="Path 61" d="M866.506,588.234c-17.324,10.094-17.324-5.769-17.324-5.769,5.775-14.419,2.89-37.495,0-37.495s-7.214,4.325-7.214,4.325h-2.085a2.142,2.142,0,0,1-.588,1.485L817.557,573.85a2.162,2.162,0,0,1-1.269.663l-8.918,1.268c-5.569,12.565-27.652,61.791-33.392,66.092a53.649,53.649,0,0,0-4.7,4.354c-6.462,6.356-16.15,15.963-32.088,20.54-19.252,5.493-41.922,36.386-42.151,36.685a2.169,2.169,0,0,1-1.762.892,1.924,1.924,0,0,1-.259,0,2.162,2.162,0,0,1-1.762-1.332c-.635-1.555-63.588-155.782-76.324-175.571-9.053-14.085-7.766-17.559-5.152-20.669.658-.781.729-.863.546-1.6-1.762-4.918-49.083-67.771-80.484-108.8a2.164,2.164,0,0,1,.194-2.846l1.98-1.978c-9.558-3.7-35.765-13.868-43.009-16.884a38.233,38.233,0,0,0-4.471,8.1,9.124,9.124,0,0,1-5.164,5.7,7.868,7.868,0,0,1-6.321-.035,4.759,4.759,0,0,1-.311,1.033l26.242,7.846a2.165,2.165,0,0,1,1.228,3.2c-10.357,16.814-4.747,40.664-3.067,43.621.8.91,1.257,2.436,2.144,5.6,1.034,3.674,2.591,9.225,4.935,11.567,3.848,3.838,2.5,6.655,1.516,8.715a6.528,6.528,0,0,0-.881,2.934c0,5.487-4.659,8.592-13.952,14.783-.728.481-1.286.874-1.71,1.174a4.607,4.607,0,0,1,2.673,4.214,15.952,15.952,0,0,1-1.6,6.062,14.971,14.971,0,0,0-.817,2.236c3.36,2.248,15.274,19.279,22.247,29.419a2.146,2.146,0,0,1,.041,2.348l-20.767,32.952c1.175-.469,2.409-.957,3.654-1.461,18.864-7.553,44.7-17.905,57.138-6.86,2.937,2.582,5.64,4.918,8.277,7.171,8.413,7.2,15.174,12.987,18.917,19.513l10.122-1.3a2.551,2.551,0,0,1,2.285,1.021c1.028,1.315,1.057,3.521.082,7.418-.112.464-.335,1.579.094,1.972.664.587,3.008.7,5.787-.217,3.4-1.138,17.577-8.609,22.753-11.391a2.151,2.151,0,0,1,2.849.745c10.445,16.391,10.445,17.788,10.445,18.463,0,1.807-.5,2.418-16.291,10.968-3.677,2-8.225,4.478-8.947,5.041a7.246,7.246,0,0,1-3.877,1.684,12.587,12.587,0,0,1,3.131,8.263c0,7.042-2.8,41.714-3.037,44.7h.875s15.862-2.881,28.868-2.881,27.423,25.951,27.423,25.951l2.89,7.213H649.981L634.12,723.782h-10.1c-1.445,4.325-8.659,7.207-8.659,7.207-11.549,0-53.413,33.17-59.188,44.7s-10.1,18.78-10.1,18.78,0,7.207-2.884,21.626-7.22,17.307-1.445,21.632S570.6,821.882,570.6,821.882h10.1s15.862-12.976,41.863-25.957S660.1,749.785,660.1,749.785h1.439l5.775,20.188,14.434-14.425h7.2s1.445-7.207,2.885-8.65,15.862,2.887,15.862,2.887v5.763s8.665-5.763,10.1-5.763,1.445-11.538,1.445-11.538l8.659-1.444s14.434,14.419,17.325,14.419,4.33-2.881,4.33-2.881l2.884-25.957,47.638-49.026h11.55c1.439,0,12.989-15.846,15.862-15.846s7.214,4.325,7.214,4.325l-1.445,17.307s14.44-1.444,18.8-2.887,7.214,2.887,7.214,2.887l11.55,15.845,18.764-15.845L882.379,650.3l-21.654-20.188,44.748-43.258S883.824,578.14,866.506,588.234Z" transform="translate(-32.161 -25.851)" fill="#f5f5f5"/>
        <path id="Path_62" data-name="Path 62" d="M511.7,796.432c-4.33,1.444-5.769,12.976-11.544,12.976s-12.995,2.887-12.995,2.887L456.85,776.244l-56.3,30.282-8.659-85.095H364.47L358.7,732.969l-4.33,2.881-2.873,11.555-8.659,7.207-2.89,17.306-8.659,1.444L312.52,735.868c-24.539-37.495,20.209-50.47,20.209-50.47H581.571v-.176c0-.376,3.037-37.483,3.037-44.525,0-4.108-3-6.514-4.447-7.664-.723-.587-1.933-1.549-1.392-3.093a2.267,2.267,0,0,1,2.232-1.5c4.7,0,5.6-.728,5.687-.81.7-.7,2.738-1.849,9.881-5.722,4.33-2.347,11.191-6.057,13.641-7.729-1.24-2.43-4.776-8.287-8.313-13.885-4.835,2.576-17.965,9.5-21.66,10.734-1.6.534-7.091,2.066-10.093-.71-1.075-.992-2.18-2.876-1.351-6.191a19.723,19.723,0,0,0,.54-2.87l-9.717,1.215a2.18,2.18,0,0,1-2.209-1.174c-3.155-6.315-9.987-12.142-18.593-19.525-2.65-2.265-5.393-4.613-8.33-7.224-10.439-9.272-34.837.5-52.649,7.629-2.538,1.015-4.952,1.983-7.208,2.846l-1.98.757a2.168,2.168,0,0,1-1.686.833,2.732,2.732,0,0,1-.376-.053c-11.121,4.149-15.074,4.883-33.321,8.257-6.4,1.174-14.375,2.664-25.073,4.73-37.951,7.341-85.019,40.405-97.156,49.3a16.3,16.3,0,0,1,2.937-.945c14.434,12.982,1.439,34.625,1.439,34.625-24.539,24.513-40.418,69.214-40.418,69.214,5.775,8.65,4.33,23.07,4.33,23.07l-47.673,74.978,4.33,4.331,28.868,1.438,8.665,23.075L222.99,903.142l-21.654,38.932,41.863-2.882c7.214-21.632,20.209-21.632,20.209-21.632l108.259-8.651c-11.55,7.207-5.775,30.282-5.775,30.282l-21.648,25.957,28.886,33.164,10.1-8.651h66.384c20.209-69.25-10.1-86.521-10.1-86.521C451.058,885.835,504.471,857,504.471,857s-8.659-12.976,0-21.632,8.659-21.626,7.214-25.957,8.665-14.419,8.665-14.419a30.952,30.952,0,0,0-8.647,1.443Z" transform="translate(-13.697 -39.381)" fill="#f5f5f5"/>
        <path id="Path_63" data-name="Path 63" d="M215.723,825.491s-4.33-4.325-1.445-8.65,4.33-12.975,4.33-12.975c-2.884-8.656-2.884-20.188,2.89-24.513s12.989-12.982,15.862-17.307S241.7,749.07,241.7,749.07s5.769-2.887,5.769-4.331a62.172,62.172,0,0,1,1.445-7.207l4.33-2.887,2.89-10.094a7.61,7.61,0,0,0,7.214-5.763c1.439-5.763-4.33-8.656-4.33-8.656l10.1-5.769,2.89-7.207,8.659-1.444,17.319-23.07,8.665,2.882-1.445-15.845a3.788,3.788,0,0,1,.658-2.119c-8.3,6.162-97.608,73.264-123.839,119.626a2.156,2.156,0,0,1-.617.663l1.11,1.514s2.89,1.438-1.439,15.845,0,17.307,0,17.307l33.2,17.306Z" transform="translate(-12.188 -45.371)" fill="#f5f5f5"/>
      </g>
    </g>
  </g>
</svg>
