<svg xmlns="http://www.w3.org/2000/svg" width="24" height="24" viewBox="0 0 24 24"><defs><style>.a{fill:none;}.b{fill:#101f09;}</style></defs><path class="a" d="M0,0H24V24H0Z"/><path class="b" d="M12,20a8,8,0,1,0-8-8A8,8,0,0,0,12,20Zm0,2A10,10,0,1,1,22,12,10,10,0,0,1,12,22ZM8.89,13.17l-2.5-.779c-.54-.165-.543-.537.121-.8l9.733-3.76c.565-.23.885.061.7.79l-1.657,7.82c-.116.557-.451.69-.916.433l-2.551-1.888L10.635,16.13a.686.686,0,0,1-.409.244c-.187.026-.341-.03-.454-.34L8.9,13.163l-.012.008Z"/></svg>